<svg width="14" height="14" viewBox="0 0 14 14" fill="none" xmlns="http://www.w3.org/2000/svg">
<path d="M11.8129 3.9375H2.18787C1.94624 3.9375 1.75037 4.13338 1.75037 4.375V11.375C1.75037 11.6166 1.94624 11.8125 2.18787 11.8125H11.8129C12.0545 11.8125 12.2504 11.6166 12.2504 11.375V4.375C12.2504 4.13338 12.0545 3.9375 11.8129 3.9375Z" stroke="#030602" stroke-width="1.2" stroke-linecap="round" stroke-linejoin="round"/>
<path d="M9.1875 3.9375V3.0625C9.1875 2.83044 9.09531 2.60788 8.93122 2.44378C8.76712 2.27969 8.54456 2.1875 8.3125 2.1875H5.6875C5.45544 2.1875 5.23288 2.27969 5.06878 2.44378C4.90469 2.60788 4.8125 2.83044 4.8125 3.0625V3.9375" stroke="#030602" stroke-width="1.2" stroke-linecap="round" stroke-linejoin="round"/>
<path d="M7 6.34375V9.40625" stroke="#030602" stroke-width="1.2" stroke-linecap="round" stroke-linejoin="round"/>
<path d="M8.53125 7.875H5.46875" stroke="#030602" stroke-width="1.2" stroke-linecap="round" stroke-linejoin="round"/>
</svg>
