<svg width="32" height="32" viewBox="0 0 32 32" fill="none" xmlns="http://www.w3.org/2000/svg">
<rect x="2" y="2" width="28" height="28" rx="14" fill="#AEEFA2"/>
<g clip-path="url(#clip0_2098_18971)">
<path d="M4 12.4065C4 9.40229 4 7.90019 4.60316 6.76101C5.08991 5.84171 5.84171 5.08991 6.76101 4.60316C7.90019 4 9.40229 4 12.4065 4H19.5935C22.5977 4 24.0998 4 25.239 4.60316C26.1583 5.08991 26.9101 5.84171 27.3968 6.76101C28 7.90019 28 9.40229 28 12.4065V19.5935C28 22.5977 28 24.0998 27.3968 25.239C26.9101 26.1583 26.1583 26.9101 25.239 27.3968C24.0998 28 22.5977 28 19.5935 28H12.4065C9.40229 28 7.90019 28 6.76101 27.3968C5.84171 26.9101 5.08991 26.1583 4.60316 25.239C4 24.0998 4 22.5977 4 19.5935V12.4065Z" fill="#AEEFA2"/>
<path d="M9.31177 12.1634L9.42424 11.9653C9.8882 11.0458 10.324 10.9327 11.2379 11.4561L14.5278 13.4083V9.51801C14.5278 8.54191 14.8653 8.21655 15.9057 8.21655H16.1166C17.1429 8.21655 17.4803 8.54191 17.4803 9.51801V13.4083L20.7702 11.4561C21.6841 10.9185 22.12 11.0458 22.5839 11.9653L22.6964 12.1634C23.1744 13.0688 23.0479 13.5073 22.2043 13.96L18.7457 15.8556L22.2184 17.8502C23.0338 18.3312 23.1322 18.7556 22.6683 19.661L22.5699 19.8449C22.1059 20.7644 21.6701 20.8776 20.7843 20.3541L17.4803 18.4019V22.2922C17.4803 23.2966 17.1429 23.622 16.1166 23.622H15.9057C14.8653 23.622 14.5278 23.2966 14.5278 22.2922V18.4019L11.2098 20.3541C10.3662 20.8634 9.93038 20.7502 9.42424 19.8449L9.32583 19.661C8.81968 18.7697 8.94622 18.3454 9.78979 17.8502L13.2484 15.8556L9.80385 13.96C8.96028 13.5073 8.83374 13.0688 9.31177 12.1634Z" fill="#193914"/>
</g>
<defs>
<clipPath id="clip0_2098_18971">
<rect x="4" y="4" width="24" height="24" rx="8" fill="white"/>
</clipPath>
</defs>
</svg>
