<svg width="20" height="18" viewBox="0 0 20 18" fill="none" xmlns="http://www.w3.org/2000/svg">
<path fill-rule="evenodd" clip-rule="evenodd" d="M6.23607 4H4C2.89543 4 2 4.89543 2 6V14C2 15.1046 2.89543 16 4 16H16C17.1046 16 18 15.1046 18 14V6C18 4.89543 17.1046 4 16 4H14L13.4038 3.20502L13.402 3.20268C13.3974 3.19679 13.3878 3.18454 13.3736 3.16684C13.345 3.13127 13.2985 3.0748 13.237 3.00451C13.1115 2.86108 12.9363 2.67484 12.7338 2.49482C12.5259 2.31005 12.3282 2.1667 12.1604 2.07721C12.0531 2.01997 11.994 2.00387 11.9784 2H8C7.71751 2 7.44622 2.13221 7.16421 2.41421C7.02863 2.54979 6.92239 2.69071 6.8516 2.7969C6.81733 2.84831 6.79445 2.88694 6.78336 2.90634C6.78177 2.90913 6.78044 2.91148 6.77938 2.91337L6.23607 4ZM15 2C15 2 13.5 0 12 0H8C6 0 5 2 5 2H4C1.79086 2 0 3.79086 0 6V14C0 16.2091 1.79086 18 4 18H16C18.2091 18 20 16.2091 20 14V6C20 3.79086 18.2091 2 16 2H15Z" fill="currentColor"/>
<path fill-rule="evenodd" clip-rule="evenodd" d="M10 13C11.6569 13 13 11.6569 13 10C13 8.34315 11.6569 7 10 7C8.34315 7 7 8.34315 7 10C7 11.6569 8.34315 13 10 13ZM10 15C12.7614 15 15 12.7614 15 10C15 7.23858 12.7614 5 10 5C7.23858 5 5 7.23858 5 10C5 12.7614 7.23858 15 10 15Z" fill="currentColor"/>
<path d="M5 6C5 6.55228 4.55228 7 4 7C3.44772 7 3 6.55228 3 6C3 5.44772 3.44772 5 4 5C4.55228 5 5 5.44772 5 6Z" fill="currentColor"/>
</svg>
