<svg width="16" height="16" viewBox="0 0 16 16" fill="none" xmlns="http://www.w3.org/2000/svg">
<g clip-path="url(#clip0_1368_638)">
<path d="M14.4077 9.28154C14.4077 9.28157 14.4076 9.28159 14.4076 9.28161L13.1173 10.5719C12.7268 10.9624 12.0936 10.9624 11.7031 10.5719L5.42827 4.29693C5.03775 3.9064 5.03776 3.27324 5.42828 2.88272L6.71854 1.59246C8.8419 -0.53082 12.2843 -0.53082 14.4077 1.59246C16.5309 3.71573 16.5309 7.15819 14.4077 9.28147C14.4077 9.28149 14.4077 9.28152 14.4077 9.28154ZM9.28162 14.4076C9.28165 14.4076 9.28167 14.4076 9.28169 14.4076L10.5719 13.1173C10.9624 12.7268 10.9624 12.0936 10.5719 11.7031L4.29701 5.42821C3.90648 5.03768 3.27332 5.03768 2.88279 5.42821L1.59246 6.71854C-0.53082 8.84182 -0.53082 12.2843 1.59246 14.4076C3.71581 16.5308 7.15819 16.5309 9.28155 14.4076C9.28157 14.4076 9.28159 14.4076 9.28162 14.4076Z" fill="#081106"/>
</g>
<defs>
<clipPath id="clip0_1368_638">
<rect width="16" height="16" fill="white"/>
</clipPath>
</defs>
</svg>
