<svg width="35" height="34" viewBox="0 0 35 34" fill="none" xmlns="http://www.w3.org/2000/svg">
<g clip-path="url(#clip0_2342_10095)">
<path d="M0.887122 20.0335H4.2035C5.64787 25.8816 10.9814 30.2218 17.34 30.2218C22.0285 30.2218 26.1597 27.8621 28.5854 24.2782C28.9732 23.7052 28.751 22.9434 28.1464 22.6C27.5182 22.2433 26.7216 22.476 26.3054 23.0623C24.3253 25.8516 21.0479 27.6747 17.34 27.6747C12.4149 27.6747 8.24949 24.4582 6.87464 20.0335H10.6121C10.9563 20.0335 11.1287 19.622 10.8853 19.3813L6.5386 15.0829L6.02279 14.5728C5.87191 14.4236 5.62729 14.4236 5.47641 14.5728L3.83368 16.1973L0.613933 19.3813C0.370548 19.622 0.542923 20.0335 0.887122 20.0335Z" fill="currentColor"/>
<path d="M34.1129 13.9656H30.7965C29.3521 8.11752 24.0186 3.77734 17.66 3.77734C12.9715 3.77734 8.84028 6.13702 6.41456 9.72097C6.02676 10.2939 6.24899 11.0558 6.85361 11.3991C7.48181 11.7558 8.27837 11.5231 8.69459 10.9368C10.6747 8.14754 13.952 6.32441 17.66 6.32441C22.5851 6.32441 26.7505 9.54092 28.1253 13.9656H24.3879C24.0437 13.9656 23.8713 14.3771 24.1147 14.6178L28.4614 18.9163L28.9772 19.4263C29.1281 19.5755 29.3727 19.5755 29.5236 19.4263L31.1663 17.8018L34.3861 14.6178C34.6295 14.3771 34.4571 13.9656 34.1129 13.9656Z" fill="currentColor"/>
</g>
<defs>
<clipPath id="clip0_2342_10095">
<rect width="34" height="34" fill="currentColor" transform="translate(0.5)"/>
</clipPath>
</defs>
</svg>
