<svg width="10" height="10" viewBox="0 0 10 10" fill="none" xmlns="http://www.w3.org/2000/svg">
<path fill-rule="evenodd" clip-rule="evenodd" d="M5 10C7.76142 10 10 7.76142 10 5C10 2.23858 7.76142 0 5 0C2.23858 0 0 2.23858 0 5C0 7.76142 2.23858 10 5 10ZM6 3C6 2.44772 5.55228 2 5 2C4.44772 2 4 2.44772 4 3V5.14663C4 5.62445 4.22764 6.07368 4.61295 6.35624L5.90864 7.30641C6.354 7.63301 6.9798 7.53673 7.30641 7.09136C7.63301 6.646 7.53673 6.0202 7.09136 5.69359L6 4.89326V3Z" fill="currentColor"/>
<path fill-rule="evenodd" clip-rule="evenodd" d="M5 10C7.76142 10 10 7.76142 10 5C10 2.23858 7.76142 0 5 0C2.23858 0 0 2.23858 0 5C0 7.76142 2.23858 10 5 10ZM6 3C6 2.44772 5.55228 2 5 2C4.44772 2 4 2.44772 4 3V5.14663C4 5.62445 4.22764 6.07368 4.61295 6.35624L5.90864 7.30641C6.354 7.63301 6.9798 7.53673 7.30641 7.09136C7.63301 6.646 7.53673 6.0202 7.09136 5.69359L6 4.89326V3Z" fill="currentColor"/>
</svg>
