<svg width="20" height="20" viewBox="0 0 20 20" fill="none" xmlns="http://www.w3.org/2000/svg">
<path d="M10 0C8.067 0 6.5 1.567 6.5 3.5V4C6.5 4.55228 6.94772 5 7.5 5C8.05229 5 8.5 4.55228 8.5 4V3.5C8.5 2.67157 9.17157 2 10 2H16.5C17.3284 2 18 2.67157 18 3.5V10.5C18 11.0523 17.5523 11.5 17 11.5H16C15.4477 11.5 15 11.9477 15 12.5C15 13.0523 15.4477 13.5 16 13.5H17C18.6569 13.5 20 12.1569 20 10.5V3.5C20 1.567 18.433 0 16.5 0H10Z" fill="currentColor"/>
<path fill-rule="evenodd" clip-rule="evenodd" d="M3.5 6C1.567 6 0 7.567 0 9.5V16.5C0 18.433 1.567 20 3.5 20H10.5C12.433 20 14 18.433 14 16.5V9.5C14 7.567 12.433 6 10.5 6H3.5ZM2 9.5C2 8.67157 2.67157 8 3.5 8H10.5C11.3284 8 12 8.67157 12 9.5V16.5C12 17.3284 11.3284 18 10.5 18H3.5C2.67157 18 2 17.3284 2 16.5V9.5Z" fill="currentColor"/>
</svg>
