<svg width="20" height="20" viewBox="0 0 20 20" fill="none" xmlns="http://www.w3.org/2000/svg">
<path d="M10 20C8.067 20 6.5 18.433 6.5 16.5V16C6.5 15.4477 6.94772 15 7.5 15C8.05229 15 8.5 15.4477 8.5 16V16.5C8.5 17.3284 9.17157 18 10 18H16.5C17.3284 18 18 17.3284 18 16.5V9.5C18 8.94772 17.5523 8.5 17 8.5H16C15.4477 8.5 15 8.05229 15 7.5C15 6.94771 15.4477 6.5 16 6.5H17C18.6569 6.5 20 7.84315 20 9.5V16.5C20 18.433 18.433 20 16.5 20H10Z" fill="#030602"/>
<path fill-rule="evenodd" clip-rule="evenodd" d="M3.5 14C1.567 14 0 12.433 0 10.5V3.5C0 1.567 1.567 0 3.5 0H10.5C12.433 0 14 1.567 14 3.5V10.5C14 12.433 12.433 14 10.5 14H3.5ZM2 10.5C2 11.3284 2.67157 12 3.5 12H10.5C11.3284 12 12 11.3284 12 10.5V3.5C12 2.67157 11.3284 2 10.5 2H3.5C2.67157 2 2 2.67157 2 3.5V10.5Z" fill="#030602"/>
</svg>
