<svg width="24" height="24" viewBox="0 0 24 24" fill="none" xmlns="http://www.w3.org/2000/svg">
    <path d="M9 8.99976L11 8.99976L11 6.99976C11 6.73454 11.1054 6.48019 11.2929 6.29265C11.4804 6.10511 11.7348 5.99976 12 5.99976C12.2652 5.99976 12.5196 6.10511 12.7071 6.29265C12.8946 6.48019 13 6.73454 13 6.99976L13 8.99976L15 8.99976C15.2652 8.99976 15.5196 9.10511 15.7071 9.29265C15.8946 9.48019 16 9.73454 16 9.99976C16 10.265 15.8946 10.5193 15.7071 10.7069C15.5196 10.8944 15.2652 10.9998 15 10.9998L13 10.9998L13 12.9998C13 13.265 12.8946 13.5193 12.7071 13.7069C12.5196 13.8944 12.2652 13.9998 12 13.9998C11.7348 13.9998 11.4804 13.8944 11.2929 13.7069C11.1054 13.5193 11 13.265 11 12.9998L11 10.9998L9 10.9998C8.73478 10.9998 8.48043 10.8944 8.29289 10.7069C8.10536 10.5193 8 10.265 8 9.99976C8 9.73454 8.10536 9.48019 8.29289 9.29265C8.48043 9.10512 8.73478 8.99976 9 8.99976ZM5 1.99976L19 1.99976C19.7956 1.99976 20.5587 2.31583 21.1213 2.87844C21.6839 3.44104 22 4.20411 22 4.99976L22 14.9998C22 15.7954 21.6839 16.5585 21.1213 17.1211C20.5587 17.6837 19.7957 17.9998 19 17.9998L7.41 17.9998L3.71 21.7098C3.61656 21.8024 3.50575 21.8758 3.38391 21.9255C3.26207 21.9753 3.13161 22.0005 3 21.9998C2.86883 22.0031 2.73868 21.9757 2.62 21.9198C2.43739 21.8447 2.28106 21.7173 2.17072 21.5536C2.06039 21.3899 2.00099 21.1972 2 20.9998L2 4.99976C2 4.20411 2.31607 3.44105 2.87868 2.87844C3.44129 2.31583 4.20435 1.99976 5 1.99976ZM4 18.5898L6.29 16.2898C6.38344 16.1971 6.49426 16.1238 6.6161 16.074C6.73793 16.0242 6.8684 15.999 7 15.9998L19 15.9998C19.2652 15.9998 19.5196 15.8944 19.7071 15.7069C19.8946 15.5193 20 15.265 20 14.9998L20 4.99976C20 4.73454 19.8946 4.48019 19.7071 4.29265C19.5196 4.10511 19.2652 3.99976 19 3.99976L5 3.99976C4.73478 3.99976 4.48043 4.10512 4.29289 4.29265C4.10536 4.48019 4 4.73454 4 4.99976L4 18.5898Z" fill="currentColor"/>
</svg>
