<svg width="18" height="18" viewBox="0 0 18 18" fill="none" xmlns="http://www.w3.org/2000/svg">
<path fill-rule="evenodd" clip-rule="evenodd" d="M8.78234 0.666992C13.2573 0.666992 16.8973 4.30699 16.8973 8.78199C16.8973 10.8933 16.0871 12.8189 14.7612 14.2641L17.3702 16.8676C17.6143 17.1117 17.6152 17.5067 17.371 17.7509C17.2493 17.8742 17.0885 17.9351 16.9285 17.9351C16.7693 17.9351 16.6093 17.8742 16.4868 17.7526L13.8464 15.1195C12.4574 16.2319 10.6962 16.8978 8.78234 16.8978C4.30734 16.8978 0.666504 13.257 0.666504 8.78199C0.666504 4.30699 4.30734 0.666992 8.78234 0.666992ZM8.78234 1.91699C4.9965 1.91699 1.9165 4.99616 1.9165 8.78199C1.9165 12.5678 4.9965 15.6478 8.78234 15.6478C12.5673 15.6478 15.6473 12.5678 15.6473 8.78199C15.6473 4.99616 12.5673 1.91699 8.78234 1.91699Z" fill="#9393C1"/>
</svg>
