<svg width="12" height="12" viewBox="0 0 12 12" fill="none" xmlns="http://www.w3.org/2000/svg">
<path d="M10.4351 8.85117L6.30311 3.15469C6.15311 2.94844 5.84608 2.94844 5.69725 3.15469L1.56404 8.85117C1.55387 8.86518 1.54778 8.88173 1.54644 8.899C1.5451 8.91626 1.54857 8.93355 1.55645 8.94896C1.56434 8.96438 1.57634 8.9773 1.59113 8.98631C1.60591 8.99532 1.6229 9.00006 1.64022 9H2.51912C2.57889 9 2.63514 8.9707 2.67029 8.92266L5.99959 4.33359L9.32889 8.92266C9.36404 8.9707 9.42029 9 9.48006 9H10.359C10.4351 9 10.4797 8.91328 10.4351 8.85117Z" fill="black" fill-opacity="0.88"/>
</svg>
