<svg width="20" height="20" viewBox="0 0 20 20" fill="none" xmlns="http://www.w3.org/2000/svg">
<path fill-rule="evenodd" clip-rule="evenodd" d="M18 1.28702C16.7811 0.068066 14.8048 0.0680639 13.5858 1.28702L5.08659 9.78624C4.64749 10.2253 4.31665 10.7606 4.12028 11.3498L3.28696 13.8497C2.84396 15.1787 4.10831 16.4431 5.4373 16.0001L7.93729 15.1668C8.5264 14.9704 9.0617 14.6396 9.5008 14.2005L18 5.70123C19.219 4.48228 19.219 2.50597 18 1.28702ZM15 2.70123C15.4379 2.26333 16.1479 2.26333 16.5858 2.70123C17.0237 3.13913 17.0237 3.84911 16.5858 4.28702L15.2929 5.57991L13.7071 3.99412L15 2.70123ZM12.2929 5.40834L13.8787 6.99412L8.08659 12.7862C7.86704 13.0058 7.59939 13.1712 7.30483 13.2694L5.37406 13.913L6.01765 11.9822C6.11583 11.6877 6.28125 11.42 6.5008 11.2005L12.2929 5.40834Z" fill="#030602"/>
<path d="M1 18.0001C0.447715 18.0001 0 18.4478 0 19.0001C0 19.5524 0.447716 20.0001 1 20.0001H19C19.5523 20.0001 20 19.5524 20 19.0001C20 18.4478 19.5523 18.0001 19 18.0001H1Z" fill="#030602"/>
</svg>
