<svg width="33" height="32" viewBox="0 0 33 32" fill="none" xmlns="http://www.w3.org/2000/svg">
    <path d="M27.5 17C27.5 23.4381 18.195 25.6467 16.7013 25.9598C16.5685 25.9878 16.4315 25.9878 16.2988 25.9598C14.805 25.6467 5.5 23.4381 5.5 17V9.70043C5.5 9.49516 5.56317 9.29486 5.68093 9.12673C5.7987 8.9586 5.96535 8.83078 6.15826 8.76063L16.1583 5.12427C16.379 5.044 16.621 5.044 16.8417 5.12427L26.8417 8.76063C27.0347 8.83078 27.2013 8.9586 27.3191 9.12673C27.4368 9.29486 27.5 9.49516 27.5 9.70043V17Z" stroke="currentColor" stroke-width="2" stroke-linecap="round" stroke-linejoin="round"/>
    <path d="M11.5 14H21.5" stroke="currentColor" stroke-width="2" stroke-linecap="round" stroke-linejoin="round"/>
    <path d="M11.5 18H21.5" stroke="currentColor" stroke-width="2" stroke-linecap="round" stroke-linejoin="round"/>
    <path d="M27.1763 19H28.5C29.2957 19 30.0588 18.6839 30.6214 18.1213C31.184 17.5587 31.5 16.7956 31.5 16V13C31.5 12.2044 31.184 11.4413 30.6214 10.8787C30.0588 10.3161 29.2957 10 28.5 10H27.5" stroke="currentColor" stroke-width="2" stroke-linecap="round" stroke-linejoin="round"/>
    <path d="M5.8239 19H4.5C3.70435 19 2.94129 18.6839 2.37868 18.1213C1.81607 17.5587 1.5 16.7956 1.5 16V13C1.5 12.2044 1.81607 11.4413 2.37868 10.8787C2.94129 10.3161 3.70435 10 4.5 10H5.5" stroke="currentColor" stroke-width="2" stroke-linecap="round" stroke-linejoin="round"/>
</svg>
