<svg width="18" height="22" viewBox="0 0 18 22" fill="none" xmlns="http://www.w3.org/2000/svg">
<path d="M9.45234 12.4625L9.45937 12.4297C9.59531 11.8695 9.76641 11.1711 9.63281 10.5383C9.54375 10.0391 9.17578 9.84453 8.86172 9.83047C8.49141 9.81406 8.16094 10.025 8.07891 10.332C7.92422 10.8945 8.0625 11.6633 8.31562 12.643C7.99687 13.4023 7.48828 14.5062 7.11563 15.1625C6.42188 15.5211 5.49141 16.0742 5.35312 16.7727C5.325 16.9016 5.35781 17.0656 5.43516 17.2133C5.52187 17.3773 5.66016 17.5039 5.82187 17.5648C5.89219 17.5906 5.97656 17.6117 6.075 17.6117C6.4875 17.6117 7.15547 17.2789 8.04609 15.7508C8.18203 15.7063 8.32266 15.6594 8.45859 15.6125C9.09609 15.3969 9.75703 15.1719 10.3547 15.0711C11.0156 15.425 11.768 15.6523 12.2789 15.6523C12.7852 15.6523 12.9844 15.3523 13.0594 15.1719C13.1906 14.8555 13.1273 14.457 12.9141 14.2438C12.6047 13.9391 11.8523 13.8594 10.6805 14.0047C10.1039 13.6531 9.72656 13.175 9.45234 12.4625ZM6.88125 16.0227C6.55547 16.4961 6.30937 16.7328 6.17578 16.8359C6.33281 16.5477 6.63984 16.243 6.88125 16.0227ZM8.93438 10.5031C9.05625 10.7117 9.03984 11.3422 8.94609 11.6609C8.83125 11.1945 8.81484 10.5336 8.88281 10.4562C8.90156 10.4586 8.91797 10.4727 8.93438 10.5031ZM8.89688 13.3273C9.14766 13.7609 9.46406 14.1336 9.81328 14.4102C9.30703 14.525 8.84531 14.7148 8.43281 14.8836C8.33437 14.9234 8.23828 14.9633 8.14453 15.0008C8.45625 14.4359 8.71641 13.7961 8.89688 13.3273ZM12.5438 14.8625C12.5461 14.8672 12.5484 14.8742 12.5344 14.8836H12.5297L12.525 14.8906C12.5063 14.9023 12.3141 15.0148 11.4867 14.6891C12.4383 14.6445 12.5414 14.8602 12.5438 14.8625ZM17.0297 5.76406L11.9859 0.720313C11.8453 0.579688 11.6555 0.5 11.4562 0.5H1.5C1.08516 0.5 0.75 0.835156 0.75 1.25V20.75C0.75 21.1648 1.08516 21.5 1.5 21.5H16.5C16.9148 21.5 17.25 21.1648 17.25 20.75V6.29609C17.25 6.09687 17.1703 5.90469 17.0297 5.76406ZM15.5203 6.64062H11.1094V2.22969L15.5203 6.64062ZM15.5625 19.8125H2.4375V2.1875H9.51562V7.25C9.51562 7.51107 9.61934 7.76145 9.80394 7.94606C9.98855 8.13066 10.2389 8.23438 10.5 8.23438H15.5625V19.8125Z" fill="black" fill-opacity="0.45"/>
</svg>
