<svg width="41" height="40" viewBox="0 0 41 40" fill="none" xmlns="http://www.w3.org/2000/svg">
    <path fill-rule="evenodd" clip-rule="evenodd" d="M33.25 6.66667H8.25C7.78976 6.66667 7.41667 7.03977 7.41667 7.5V32.5C7.41667 32.9602 7.78977 33.3333 8.25 33.3333H33.25C33.7102 33.3333 34.0833 32.9602 34.0833 32.5V7.5C34.0833 7.03977 33.7102 6.66667 33.25 6.66667ZM8.25 5C6.86929 5 5.75 6.11929 5.75 7.5V32.5C5.75 33.8807 6.86929 35 8.25 35H33.25C34.6307 35 35.75 33.8807 35.75 32.5V7.5C35.75 6.11929 34.6307 5 33.25 5H8.25Z" fill="#FF5555"/>
    <path fill-rule="evenodd" clip-rule="evenodd" d="M17.824 13.6082C16.455 13.8447 15.4572 15.0048 15.2946 16.3847L14.0834 26.6666H27.4167L26.2038 16.3707C26.042 14.9977 25.0537 13.8396 23.6919 13.6014C21.6498 13.2444 19.9485 13.2411 17.824 13.6082ZM18.8585 17.2064C18.9156 16.7497 18.5916 16.3332 18.135 16.2762C17.6783 16.2191 17.2618 16.543 17.2047 16.9997L16.4508 23.0315C16.3936 23.4882 16.7176 23.9047 17.1743 23.9617C17.631 24.0188 18.0475 23.6949 18.1045 23.2382L18.8585 17.2064Z" fill="#FF5555"/>
    <path fill-rule="evenodd" clip-rule="evenodd" d="M19.4787 15.0639C20.2044 15.5798 20.6305 16.4677 20.5123 17.4132L19.7584 23.4449C19.6803 24.0696 19.378 24.6114 18.9425 24.9999H25.5422L24.5486 16.5657C24.4633 15.8415 23.962 15.3406 23.4049 15.2432C22.0123 14.9997 20.8134 14.9371 19.4787 15.0639ZM26.2038 16.3707C26.042 14.9977 25.0537 13.8396 23.6919 13.6014C21.6498 13.2444 19.9485 13.2411 17.824 13.6082C16.455 13.8447 15.4572 15.0048 15.2946 16.3847L14.0834 26.6666H27.4167L26.2038 16.3707ZM18.8585 17.2064L18.1045 23.2382C18.0475 23.6949 17.631 24.0188 17.1743 23.9617C16.7176 23.9047 16.3936 23.4882 16.4508 23.0315L17.2047 16.9997C17.2618 16.543 17.6783 16.2191 18.135 16.2762C18.5916 16.3332 18.9156 16.7497 18.8585 17.2064Z" fill="#FF5555"/>
    <path fill-rule="evenodd" clip-rule="evenodd" d="M28.25 29.9999H13.25V28.3333H28.25V29.9999Z" fill="#FF5555"/>
    <path d="M11.5834 20.0001C11.5834 20.281 11.596 20.5589 11.6207 20.8334H9.08337V19.1667H11.6207C11.596 19.4412 11.5834 19.7192 11.5834 20.0001Z" fill="#FF5555"/>
    <path d="M13.2603 14.7137C12.9404 15.166 12.6605 15.6486 12.4257 16.1563L10.2296 14.8884L11.0629 13.4451L13.2603 14.7137Z" fill="#FF5555"/>
    <path d="M16.9062 11.6757C16.3984 11.9106 15.9159 12.1905 15.4635 12.5103L14.1949 10.3131L15.6383 9.47974L16.9062 11.6757Z" fill="#FF5555"/>
    <path d="M20.75 10.8333C20.469 10.8333 20.1911 10.8459 19.9166 10.8706V8.33325H21.5833V10.8706C21.3088 10.8459 21.0309 10.8333 20.75 10.8333Z" fill="#FF5555"/>
    <path d="M26.0364 12.5103C25.5841 12.1905 25.1015 11.9106 24.5938 11.6757L25.8617 9.47974L27.305 10.3131L26.0364 12.5103Z" fill="#FF5555"/>
    <path d="M29.0742 16.1563C28.8394 15.6486 28.5595 15.166 28.2396 14.7137L30.437 13.4451L31.2703 14.8884L29.0742 16.1563Z" fill="#FF5555"/>
    <path d="M29.9167 20.0001C29.9167 19.7192 29.9041 19.4412 29.8794 19.1667H32.4167V20.8334H29.8794C29.9041 20.5589 29.9167 20.281 29.9167 20.0001Z" fill="#FF5555"/>
</svg>
