<svg width="48" height="24" viewBox="0 0 48 24" fill="none" xmlns="http://www.w3.org/2000/svg">
<g clip-path="url(#clip0_1940_53240)">
<path d="M0 0H48V24H0V0Z" fill="#00ABC2"/>
<path d="M25.9323 13.31C27.7158 13.31 29.1615 11.8642 29.1615 10.0808C29.1615 8.29732 27.7158 6.85156 25.9323 6.85156C24.1489 6.85156 22.7031 8.29732 22.7031 10.0808C22.7031 11.8642 24.1489 13.31 25.9323 13.31Z" fill="#FFEC2D"/>
<path d="M25.932 6.40991C26.124 6.40751 26.196 6.28751 26.196 6.14351C26.196 5.95151 25.932 5.03711 25.932 5.03711C25.932 5.03711 25.668 5.95151 25.668 6.14351C25.668 6.28751 25.74 6.40991 25.932 6.40991Z" fill="#FFEC2D"/>
<path d="M29.6018 10.0804C29.6042 10.2724 29.7242 10.3444 29.8682 10.3444C30.0602 10.3444 30.9746 10.0804 30.9746 10.0804C30.9746 10.0804 30.0602 9.81641 29.8682 9.81641C29.7242 9.81641 29.6018 9.88841 29.6018 10.0804Z" fill="#FFEC2D"/>
<path d="M25.9323 13.7483C25.7403 13.7507 25.6683 13.8707 25.6683 14.0147C25.6683 14.2067 25.9323 15.1211 25.9323 15.1211C25.9323 15.1211 26.1963 14.2067 26.1963 14.0147C26.1963 13.8707 26.1243 13.7483 25.9323 13.7483Z" fill="#FFEC2D"/>
<path d="M22.2624 10.0798C22.26 9.88775 22.14 9.81575 21.996 9.81575C21.804 9.81575 20.8896 10.0798 20.8896 10.0798C20.8896 10.0798 21.804 10.3438 21.996 10.3438C22.14 10.3438 22.2624 10.2718 22.2624 10.0798Z" fill="#FFEC2D"/>
<path d="M27.3367 6.68964C27.515 6.7609 27.6275 6.67759 27.6826 6.54455C27.756 6.36716 27.8621 5.42134 27.8621 5.42134C27.8621 5.42134 27.2682 6.16511 27.1948 6.34249C27.1397 6.47553 27.1593 6.61617 27.3367 6.68964Z" fill="#FFEC2D"/>
<path d="M29.3221 11.4842C29.2508 11.6625 29.3341 11.7749 29.4672 11.83C29.6446 11.9035 30.5904 12.0095 30.5904 12.0095C30.5904 12.0095 29.8466 11.4157 29.6692 11.3422C29.5362 11.2871 29.3956 11.3068 29.3221 11.4842Z" fill="#FFEC2D"/>
<path d="M24.5275 13.4705C24.3492 13.3993 24.2368 13.4826 24.1817 13.6156C24.1082 13.793 24.0022 14.7388 24.0022 14.7388C24.0022 14.7388 24.596 13.995 24.6695 13.8177C24.7246 13.6846 24.7049 13.544 24.5275 13.4705Z" fill="#FFEC2D"/>
<path d="M22.5422 8.67597C22.6134 8.49767 22.5301 8.38523 22.3971 8.33012C22.2197 8.25665 21.2739 8.15063 21.2739 8.15063C21.2739 8.15063 22.0176 8.74446 22.195 8.81793C22.3281 8.87304 22.4687 8.85336 22.5422 8.67597Z" fill="#FFEC2D"/>
<path d="M28.5265 7.48552C28.664 7.61958 28.7997 7.58564 28.9016 7.48382C29.0373 7.34806 29.4972 6.5148 29.4972 6.5148C29.4972 6.5148 28.664 6.9747 28.5282 7.11047C28.4264 7.21229 28.3907 7.34975 28.5265 7.48552Z" fill="#FFEC2D"/>
<path d="M28.5262 12.6749C28.3921 12.8124 28.4261 12.9482 28.5279 13.05C28.6637 13.1858 29.4969 13.6457 29.4969 13.6457C29.4969 13.6457 29.037 12.8124 28.9013 12.6766C28.7994 12.5748 28.662 12.5392 28.5262 12.6749Z" fill="#FFEC2D"/>
<path d="M23.3368 12.6746C23.1993 12.5406 23.0635 12.5745 22.9617 12.6763C22.826 12.8121 22.3661 13.6454 22.3661 13.6454C22.3661 13.6454 23.1993 13.1855 23.3351 13.0497C23.4369 12.9479 23.4725 12.8104 23.3368 12.6746Z" fill="#FFEC2D"/>
<path d="M23.3371 7.48521C23.4711 7.34775 23.4372 7.21199 23.3354 7.11016C23.1996 6.9744 22.3664 6.5145 22.3664 6.5145C22.3664 6.5145 22.8263 7.34775 22.962 7.48351C23.0639 7.58534 23.2013 7.62098 23.3371 7.48521Z" fill="#FFEC2D"/>
<path d="M29.323 8.6755C29.3987 8.85197 29.5371 8.87257 29.6701 8.81746C29.8475 8.74398 30.5913 8.15015 30.5913 8.15015C30.5913 8.15015 29.6454 8.25618 29.4681 8.32965C29.335 8.38476 29.2495 8.49812 29.323 8.6755Z" fill="#FFEC2D"/>
<path d="M27.3362 13.4714C27.1598 13.5471 27.1392 13.6855 27.1943 13.8185C27.2677 13.9959 27.8616 14.7397 27.8616 14.7397C27.8616 14.7397 27.7555 13.7939 27.6821 13.6165C27.627 13.4835 27.5136 13.3979 27.3362 13.4714Z" fill="#FFEC2D"/>
<path d="M22.5423 11.4847C22.4666 11.3082 22.3282 11.2876 22.1951 11.3427C22.0177 11.4162 21.274 12.01 21.274 12.01C21.274 12.01 22.2198 11.904 22.3972 11.8305C22.5302 11.7754 22.6157 11.662 22.5423 11.4847Z" fill="#FFEC2D"/>
<path d="M24.528 6.69071C24.7045 6.61502 24.7251 6.4766 24.67 6.34356C24.5965 6.16618 24.0027 5.42241 24.0027 5.42241C24.0027 5.42241 24.1087 6.36823 24.1822 6.54562C24.2373 6.67866 24.3507 6.76419 24.528 6.69071Z" fill="#FFEC2D"/>
<path d="M26.6474 6.47605C26.8361 6.51115 26.9302 6.40751 26.9583 6.26627C26.9957 6.07796 26.9152 5.12963 26.9152 5.12963C26.9152 5.12963 26.4779 5.97496 26.4404 6.16327C26.4123 6.3045 26.459 6.43859 26.6474 6.47605Z" fill="#FFEC2D"/>
<path d="M29.5308 10.7919C29.4957 10.9807 29.5993 11.0747 29.7406 11.1028C29.9289 11.1402 30.8772 11.0597 30.8772 11.0597C30.8772 11.0597 30.0319 10.6224 29.8436 10.5849C29.7023 10.5568 29.5682 10.6036 29.5308 10.7919Z" fill="#FFEC2D"/>
<path d="M25.2159 13.6743C25.0271 13.6392 24.9331 13.7429 24.905 13.8841C24.8676 14.0724 24.9481 15.0208 24.9481 15.0208C24.9481 15.0208 25.3854 14.1754 25.4229 13.9871C25.451 13.8459 25.4042 13.7118 25.2159 13.6743Z" fill="#FFEC2D"/>
<path d="M22.3325 9.36046C22.3676 9.17168 22.264 9.07765 22.1227 9.04956C21.9344 9.0121 20.9861 9.09264 20.9861 9.09264C20.9861 9.09264 21.8314 9.52995 22.0197 9.56741C22.1609 9.5955 22.295 9.54877 22.3325 9.36046Z" fill="#FFEC2D"/>
<path d="M27.9705 7.02835C28.1315 7.13302 28.258 7.07324 28.338 6.95351C28.4447 6.79387 28.7332 5.8869 28.7332 5.8869C28.7332 5.8869 28.0057 6.50053 27.899 6.66017C27.819 6.7799 27.8109 6.92168 27.9705 7.02835Z" fill="#FFEC2D"/>
<path d="M28.9834 12.1189C28.8787 12.2799 28.9385 12.4064 29.0582 12.4864C29.2178 12.5931 30.1248 12.8816 30.1248 12.8816C30.1248 12.8816 29.5112 12.1541 29.3515 12.0474C29.2318 11.9674 29.09 11.9593 28.9834 12.1189Z" fill="#FFEC2D"/>
<path d="M23.8938 13.1318C23.7328 13.0271 23.6063 13.0869 23.5263 13.2066C23.4196 13.3663 23.1311 14.2733 23.1311 14.2733C23.1311 14.2733 23.8586 13.6596 23.9653 13.5C24.0453 13.3803 24.0534 13.2385 23.8938 13.1318Z" fill="#FFEC2D"/>
<path d="M22.8809 8.04123C22.9856 7.88025 22.9258 7.75372 22.8061 7.67371C22.6464 7.56704 21.7394 7.27854 21.7394 7.27854C21.7394 7.27854 22.3531 8.00606 22.5127 8.11273C22.6324 8.19273 22.7742 8.20087 22.8809 8.04123Z" fill="#FFEC2D"/>
<path d="M28.9808 8.03688C29.0895 8.19519 29.2293 8.18839 29.349 8.10839C29.5086 8.00172 30.1223 7.2742 30.1223 7.2742C30.1223 7.2742 29.2153 7.5627 29.0556 7.66937C28.9359 7.74937 28.8741 7.87724 28.9808 8.03688Z" fill="#FFEC2D"/>
<path d="M27.969 13.1263C27.8107 13.235 27.8175 13.3748 27.8975 13.4945C28.0041 13.6541 28.7317 14.2678 28.7317 14.2678C28.7317 14.2678 28.4432 13.3608 28.3365 13.2012C28.2565 13.0814 28.1286 13.0197 27.969 13.1263Z" fill="#FFEC2D"/>
<path d="M22.8786 12.1155C22.7699 11.9572 22.6301 11.964 22.5104 12.044C22.3507 12.1506 21.7371 12.8781 21.7371 12.8781C21.7371 12.8781 22.6441 12.5896 22.8037 12.483C22.9235 12.403 22.9852 12.2751 22.8786 12.1155Z" fill="#FFEC2D"/>
<path d="M23.8914 7.02407C24.0497 6.9154 24.0429 6.77563 23.9629 6.65589C23.8562 6.49625 23.1287 5.88263 23.1287 5.88263C23.1287 5.88263 23.4172 6.78959 23.5239 6.94923C23.6039 7.06897 23.7317 7.13074 23.8914 7.02407Z" fill="#FFEC2D"/>
<path d="M29.5313 9.36464C29.5711 9.55248 29.7028 9.59969 29.844 9.57159C30.0323 9.53414 30.8777 9.09682 30.8777 9.09682C30.8777 9.09682 29.9293 9.01628 29.741 9.05374C29.5998 9.08183 29.4938 9.17633 29.5313 9.36464Z" fill="#FFEC2D"/>
<path d="M26.6481 13.6797C26.4602 13.7195 26.413 13.8512 26.4411 13.9925C26.4786 14.1808 26.9159 15.0261 26.9159 15.0261C26.9159 15.0261 26.9964 14.0778 26.959 13.8895C26.9309 13.7482 26.8364 13.6422 26.6481 13.6797Z" fill="#FFEC2D"/>
<path d="M22.333 10.7955C22.2932 10.6077 22.1615 10.5605 22.0202 10.5886C21.8319 10.626 20.9866 11.0633 20.9866 11.0633C20.9866 11.0633 21.9349 11.1439 22.1232 11.1064C22.2645 11.0783 22.3705 10.9838 22.333 10.7955Z" fill="#FFEC2D"/>
<path d="M25.2162 6.48047C25.404 6.44065 25.4512 6.30891 25.4232 6.16768C25.3857 5.97937 24.9484 5.13404 24.9484 5.13404C24.9484 5.13404 24.8678 6.08238 24.9053 6.27069C24.9334 6.41192 25.0279 6.51792 25.2162 6.48047Z" fill="#FFEC2D"/>
<path d="M25.3561 17.0762C25.2697 17.081 25.1857 17.0922 25.1033 17.1186C24.9905 17.1338 24.8825 17.173 24.7705 17.1914L24.7257 17.1986L24.6505 17.2058C24.6553 17.2266 24.6585 17.2474 24.6585 17.2682C24.6585 17.2898 24.6561 17.3106 24.6505 17.3282C24.6457 17.345 24.6305 17.3658 24.6185 17.3786C24.6025 17.3962 24.5857 17.4114 24.5657 17.421C24.5465 17.4306 24.5249 17.4346 24.5033 17.4362C24.4817 17.437 24.4593 17.4362 24.4385 17.4282C24.4169 17.421 24.3969 17.4074 24.3785 17.3914C24.3564 17.3968 24.334 17.4008 24.3113 17.4034C24.2889 17.4058 24.2681 17.4058 24.2481 17.4034C24.2257 17.397 24.2025 17.3898 24.1809 17.381C24.1592 17.372 24.1383 17.361 24.1185 17.3482C24.0369 17.3962 23.9457 17.4418 23.8961 17.5258C23.8681 17.5642 23.8625 17.6082 23.8561 17.6538C23.8521 17.7098 23.8665 17.769 23.8905 17.821C23.8993 17.8362 23.9065 17.7658 23.9337 17.7562C23.9793 17.7186 24.0361 17.6914 24.0937 17.6762C24.1425 17.6514 24.1361 17.6778 24.1161 17.7162C24.1113 17.7362 24.0841 17.8122 24.1209 17.7738C24.2833 17.7018 24.4633 17.6874 24.6385 17.6738C24.8929 17.6474 25.1481 17.6418 25.4033 17.6386L26.1233 17.6538C26.2377 17.657 26.3529 17.6826 26.4657 17.6634C26.4929 17.6562 26.5353 17.6546 26.5513 17.6386C26.5001 17.609 26.4401 17.6082 26.3833 17.601H25.9257C25.7985 17.5882 25.6657 17.5866 25.5457 17.5386C25.5137 17.5258 25.4841 17.4954 25.4537 17.5282C25.4081 17.5442 25.3593 17.5554 25.3113 17.5586C25.2273 17.565 25.1433 17.5474 25.0657 17.5162C25.1217 17.4386 25.1889 17.3706 25.2505 17.2986C25.2009 17.2906 25.1529 17.2802 25.1033 17.2682C25.1905 17.2082 25.2713 17.1402 25.3561 17.0762Z" fill="#FFEC2D"/>
<path d="M29.0929 17.9052C28.919 18.0096 28.7863 17.8245 28.641 17.769C28.5372 17.8254 28.5275 18.014 28.4305 18.1034C28.3145 18.2354 28.1723 18.0665 28.1828 17.9362C28.0441 18.0532 27.9739 18.3183 27.7495 18.2829C27.6432 18.1961 27.5642 18.0141 27.4829 18.2214C27.4167 18.3227 27.2403 18.4669 27.149 18.3139C27.1207 18.1787 27.0529 18.0199 26.9794 18.2345C26.929 18.3863 26.767 18.4979 26.6103 18.4315C26.5246 18.3614 26.6791 18.102 26.5699 18.1205C26.4067 18.2284 26.3119 18.4963 26.0841 18.4748C25.9957 18.3756 26.1378 18.2074 26.0408 18.0972C25.9263 18.2441 25.7993 18.4593 25.6012 18.4748C25.5055 18.3973 25.605 18.1748 25.5439 18.1419C25.3406 18.2637 25.1262 18.4809 24.8707 18.4129C24.9703 18.032 25.3864 17.8983 25.7364 17.8686C26.3385 17.7946 26.972 17.9307 27.5514 17.7133C27.645 17.6564 27.8718 17.5756 27.791 17.4435C27.7195 17.3392 27.9771 17.38 28.0019 17.2581C27.9865 17.1038 28.1201 17.125 28.2506 17.1115C28.8356 17.0863 29.4135 17.2095 29.9968 17.2304C30.0409 17.5146 29.7256 17.7142 29.4718 17.6264C29.3505 17.6461 29.1687 17.3477 29.2044 17.5647C29.1799 17.6787 29.197 17.8292 29.0929 17.9053M24.1153 17.3233C24.2508 17.4473 24.3457 17.3 24.4723 17.2461C24.8969 17.1001 25.2674 16.8449 25.6326 16.5899C25.8539 16.4068 26.0458 16.1693 26.343 16.1099C26.9227 15.9346 27.5389 15.9559 28.1209 15.7941C28.564 15.1874 29.3167 14.9709 29.9472 14.6222C30.0888 14.5782 30.1435 14.4617 30.1887 14.333C30.4294 13.9531 30.7572 13.6165 31.145 13.3865C31.3284 13.2863 31.5473 13.2285 31.755 13.2744C31.7401 13.5217 31.5982 13.741 31.4269 13.9121C31.5671 13.909 31.6876 13.8204 31.8293 13.8254C31.8778 14.0793 31.6037 14.2121 31.4578 14.3702C31.5391 14.3891 31.8503 14.4126 31.6807 14.494C31.4646 14.644 31.2177 14.747 31.0182 14.9212C31.2023 14.9543 31.2233 14.9934 31.0361 15.06C30.9348 15.1286 30.7399 15.1526 30.7211 15.2864C30.8601 15.3719 30.657 15.4568 30.5787 15.4846C30.4289 15.5195 30.2715 15.5845 30.4705 15.6983C30.3953 15.812 30.2338 15.8363 30.102 15.8251C30.142 15.9539 30.1999 16.0981 30.0326 16.155C29.6576 16.4384 29.2175 16.6447 28.7462 16.6918C29.335 16.7371 29.9415 16.6278 30.4447 16.3075C30.5111 16.229 30.8595 16.1446 30.6646 16.0785C30.5729 16.0404 30.3763 15.998 30.363 15.928C30.6355 15.7599 30.9789 15.8197 31.2721 15.7198C31.2797 15.6249 31.0491 15.6513 30.9631 15.6297C30.7581 15.6129 30.7701 15.5606 30.9678 15.5412C31.2179 15.4749 31.5012 15.4619 31.7116 15.2988C31.5403 15.2195 31.3248 15.2893 31.142 15.2245C31.4519 15.0889 31.8175 15.0753 32.0955 14.8716C32.2221 14.7307 31.9332 14.7748 31.8491 14.7782C31.6775 14.8081 31.5981 14.7259 31.7931 14.6546C32.126 14.4092 32.5475 14.2497 32.7813 13.8939C32.8367 13.8142 32.9117 13.5742 32.735 13.6606C32.5027 13.7378 32.2983 13.999 32.0336 13.9182C32.5552 13.5139 33.0515 13.0537 33.408 12.4943C33.4264 12.3329 33.1731 12.3155 33.1072 12.4422C32.7721 12.7651 32.4688 13.1462 32.0398 13.3486C32.4507 12.952 32.7904 12.4824 33.0868 11.9957C33.1503 11.8509 33.3211 11.6768 33.2284 11.5161C33.079 11.3924 32.8921 11.5057 32.8145 11.6536C32.554 11.9937 32.3562 12.3907 32.0212 12.6676C32.3145 12.1079 32.6181 11.5121 32.6255 10.8665C32.6246 10.7336 32.5979 10.5379 32.4174 10.5627C32.2743 10.5884 32.3083 10.8025 32.2493 10.9108C32.1195 11.3519 32.0585 11.8295 31.7921 12.2157C31.8521 11.8573 31.9569 11.4837 31.8764 11.1218C31.8388 10.96 31.5776 11.0296 31.6113 11.1897C31.2992 12.7703 30.2386 14.1527 28.8515 14.9524C28.2164 15.3118 27.507 15.5434 26.7852 15.6485C26.591 15.691 26.381 15.666 26.1955 15.7322C25.7458 16.077 25.4736 16.654 24.9042 16.8347C24.6491 16.9615 24.3163 16.9872 24.1339 17.2243C24.1181 17.2546 24.1147 17.2897 24.1153 17.3233Z" fill="#FFEC2D"/>
<path d="M25.8193 15.7191C25.7353 15.8715 25.6859 16.0468 25.5779 16.1834C25.2529 15.8877 24.7818 15.8974 24.3696 15.8778C24.0293 15.8596 23.6593 15.8282 23.3961 15.5855C23.1191 15.3587 22.8931 15.0642 22.5836 14.8801C22.3012 14.8033 22.0164 14.7072 21.7893 14.5136C21.3041 14.118 21.0261 13.5311 20.5519 13.1232C20.4615 13.0342 20.3549 12.9653 20.2536 12.8898C20.1574 12.9132 20.201 13.1209 20.0832 13.015C20.0191 12.9694 19.8588 12.965 19.8444 13.0287C19.9894 13.2197 20.1345 13.4379 20.1546 13.6822C20.0557 13.6923 19.8799 13.6613 19.8309 13.6982C19.9622 13.895 20.1305 14.0695 20.3218 14.2085C20.23 14.2232 20.0493 14.2152 20.0141 14.2521C20.2039 14.4068 20.4075 14.565 20.6561 14.6047C20.7069 14.6718 20.5817 14.8013 20.687 14.8585C20.7481 14.8835 20.9497 14.9253 20.8108 14.9947C20.7155 15.0589 20.7509 15.2086 20.8727 15.2052C20.9498 15.2446 21.1228 15.2542 21.1363 15.3223C21.068 15.3918 20.8555 15.4742 21.0364 15.5393C21.2053 15.633 21.398 15.6938 21.5909 15.7005C21.4941 15.782 21.3748 15.8282 21.2752 15.9048C21.7204 16.1659 22.2139 16.3375 22.7015 16.5029C22.8957 16.5677 23.0921 16.6282 23.2934 16.6663C22.7086 16.6325 22.1433 16.4594 21.6106 16.2224C21.3346 16.1013 21.0566 15.9843 20.7737 15.8801C20.8977 15.8155 21.0412 15.7997 21.1699 15.7439C20.9028 15.6903 20.6111 15.6728 20.3763 15.526C20.4123 15.4618 20.5487 15.4588 20.6241 15.4261C20.766 15.3921 20.854 15.3509 20.6539 15.3385C20.4522 15.2838 20.2209 15.3084 20.0431 15.1867C20.0545 15.1137 20.2406 15.1391 20.3164 15.1076C20.4118 15.0912 20.5179 15.0775 20.5941 15.0133C20.2823 14.884 19.8743 14.9756 19.6301 14.7002C19.5737 14.5953 19.805 14.6798 19.8709 14.6623C20.0382 14.6623 20.2181 14.7155 20.3774 14.6481C19.923 14.4485 19.4363 14.2618 19.0897 13.8927C19.0512 13.8334 18.9359 13.6713 19.029 13.6513C19.2987 13.687 19.4939 13.9814 19.7825 13.9356C19.8208 13.8839 19.6149 13.7992 19.5635 13.7254C19.1428 13.3644 18.7345 12.9726 18.4397 12.4998C18.4194 12.3419 18.6676 12.3182 18.7329 12.4402C19.0547 12.75 19.3453 13.1116 19.746 13.3232C19.8881 13.3921 19.6643 13.2416 19.6345 13.187C19.2643 12.757 18.9118 12.3029 18.653 11.7966C18.6067 11.7053 18.53 11.5401 18.6685 11.4915C18.8071 11.4221 18.9446 11.5167 19.0148 11.6357C19.287 11.979 19.4873 12.3871 19.8264 12.6731C19.5375 12.1125 19.2291 11.5224 19.2216 10.8772C19.2284 10.7522 19.2365 10.563 19.406 10.5682C19.5484 10.5466 19.5259 10.7289 19.5726 10.8158C19.7129 11.2897 19.7741 11.8027 20.0555 12.2211C19.9934 11.8696 19.9019 11.5075 19.9626 11.1501C19.9767 11.0327 20.1088 10.9972 20.195 11.0682C20.2647 11.2388 20.2793 11.4495 20.3428 11.6319C20.7042 12.8684 21.5158 13.9559 22.5734 14.6857C23.4444 15.2831 24.4781 15.6397 25.533 15.7019C25.6283 15.7102 25.724 15.7131 25.8194 15.7189" fill="#FFEC2D"/>
<path d="M24.4806 17.3578C24.512 17.3578 24.5374 17.3323 24.5374 17.3009C24.5374 17.2696 24.512 17.2441 24.4806 17.2441C24.4493 17.2441 24.4238 17.2696 24.4238 17.3009C24.4238 17.3323 24.4493 17.3578 24.4806 17.3578Z" fill="#FFEC2D"/>
<path d="M24.4753 17.3159C24.4881 17.3159 24.4985 17.3055 24.4985 17.2927C24.4985 17.2799 24.4881 17.2695 24.4753 17.2695C24.4625 17.2695 24.4521 17.2799 24.4521 17.2927C24.4521 17.3055 24.4625 17.3159 24.4753 17.3159Z" fill="#FFEC2D" stroke="#FFEC2D" stroke-width="0.009144"/>
<path d="M2.88034 1.75046C2.88034 1.75046 2.6497 1.55664 2.57136 1.65386C2.44536 1.81022 2.95872 2.5891 2.95872 2.86337C2.95872 3.31358 2.65831 3.43601 2.28737 3.5003C2.03847 3.54346 1.63315 3.48226 1.63315 3.48226C1.70947 3.3797 1.75911 3.34949 1.8877 3.3413C1.74454 3.26698 1.59876 3.10562 1.59876 2.85449C1.59876 2.46718 1.75819 2.30753 1.75819 1.8709C1.75819 1.62866 1.55957 1.32031 1.55957 1.32031C1.91067 1.35545 2.08467 1.68053 1.98567 1.94033C2.04154 1.94837 2.09227 1.93577 2.13586 1.89449C2.16154 1.96649 2.12098 2.05008 2.06667 2.1221C2.11042 2.14548 2.14255 2.13146 2.21225 2.11706C2.20563 2.19127 2.16118 2.27009 2.05241 2.3443C2.36803 2.26234 2.56224 2.48232 2.56224 2.71262C2.56224 2.88658 2.44035 3.01126 2.32119 3.01126C2.28269 3.01126 2.22612 2.99539 2.19423 2.97156C2.17171 3.01944 2.18331 3.08352 2.20647 3.1314C2.11915 3.10831 2.06371 3.05645 2.10317 2.9485C2.03609 2.94233 1.98274 2.91967 1.94645 2.8765C1.98322 2.82938 2.03902 2.80226 2.10317 2.80447C2.05433 2.70367 2.10876 2.64727 2.18808 2.60153C2.18808 2.60153 2.13763 2.80447 2.26644 2.80447C2.32435 2.80447 2.37713 2.78561 2.37713 2.70024C2.37713 2.62591 2.31216 2.52295 2.16195 2.5295C2.01173 2.53606 1.88998 2.63306 1.88998 2.87285C1.88998 3.09403 2.06839 3.20405 2.3035 3.21115C2.51549 3.2177 2.6755 3.10286 2.6755 2.88415C2.6755 2.59308 2.25531 1.9296 2.25531 1.67023C2.25531 1.47559 2.43031 1.36697 2.60155 1.36697C2.8236 1.36697 3.01095 1.58683 3.01095 1.58683L2.88051 1.75039L2.88034 1.75046Z" fill="#FFEC2D"/>
<path d="M2.92896 7.01138C2.92896 7.49786 2.49221 7.74789 2.14901 7.74789C1.68662 7.74789 1.44043 7.47143 1.44043 7.10954C1.44043 6.90439 1.47801 6.77567 1.5726 6.57933L2.63227 4.37966C2.6693 4.30314 2.68125 4.21602 2.68125 4.08834C2.68125 3.89114 2.48997 3.72995 2.28941 3.72501C2.10657 3.72045 1.90737 3.89546 1.90737 4.0949C1.90737 4.33713 2.03304 4.44513 2.16206 4.44513C2.32085 4.44513 2.38411 4.37985 2.38411 4.26837C2.38411 4.19068 2.3466 4.15708 2.29267 4.15708C2.15649 4.15708 2.19473 4.34039 2.19473 4.34039C2.12709 4.32558 2.07151 4.25646 2.10329 4.17016C2.05193 4.15882 2.00557 4.13128 1.97105 4.09161C2.00755 4.05621 2.04943 4.0289 2.10329 4.01961C2.07139 3.9143 2.11401 3.86286 2.20615 3.84122C2.18755 3.8817 2.18693 3.91898 2.19309 3.95414C2.33813 3.91288 2.56044 3.97852 2.56044 4.22908C2.56044 4.47784 2.38778 4.68731 2.06409 4.63497C2.14109 4.67178 2.18025 4.74712 2.18817 4.83136C2.12937 4.80846 2.06409 4.8052 2.06409 4.8052C2.10194 4.87192 2.1545 4.92945 2.15225 5.06049C2.09225 5.0332 2.03649 4.98268 1.9596 5.01465C2.08032 5.2522 1.932 5.57894 1.55469 5.65624C1.69279 5.49436 1.7604 5.31959 1.7604 5.14559C1.7604 4.58169 1.60368 4.48691 1.60368 4.09487C1.60368 3.93083 1.68799 3.75371 1.8551 3.63333V3.63988C1.74465 3.61029 1.6739 3.5559 1.63322 3.48201C1.88558 3.41044 2.25242 3.41176 2.44937 3.48926C2.67578 3.51549 2.83385 3.68918 2.88041 3.77735C2.92697 3.86553 3.01742 4.18422 2.88041 4.47124L1.80285 6.75599C1.7561 6.85595 1.72773 6.96198 1.72773 7.07678C1.72773 7.3655 1.99221 7.4663 2.14245 7.4663C2.32205 7.4663 2.5049 7.3295 2.5049 7.15862C2.5049 7.05035 2.4461 6.98514 2.36121 6.98514C2.15822 6.98514 2.17056 7.15782 2.21102 7.26664C2.08469 7.20983 2.01125 7.10843 2.03143 7.00151C1.95991 6.9917 1.89182 6.95778 1.82899 6.88694C1.87843 6.82454 1.93872 6.77733 2.03143 6.77565C1.99094 6.60976 2.10199 6.53961 2.21102 6.5007C2.17653 6.62246 2.1539 6.76257 2.36121 6.76257C2.51241 6.76257 2.63141 6.78875 2.70081 6.88696L2.71713 6.23884C2.72587 6.04449 2.45702 6.05003 2.28614 6.1079C2.35063 5.88405 2.48289 5.76302 2.78899 5.79366C2.71469 5.76258 2.63551 5.69267 2.63551 5.55798C2.63556 5.37575 2.7834 5.17386 2.88045 5.11418L2.92898 7.0114L2.92896 7.01138Z" fill="#FFEC2D"/>
<path d="M2.92896 8.47104C2.92896 7.98456 2.49221 7.73453 2.14901 7.73453C1.68662 7.73453 1.44043 8.01099 1.44043 8.37288C1.44043 8.57804 1.47801 8.70675 1.5726 8.90309L2.63227 11.1028C2.6693 11.1793 2.68125 11.2664 2.68125 11.3941C2.68125 11.5913 2.48997 11.7525 2.28941 11.7574C2.10657 11.762 1.90737 11.587 1.90737 11.3875C1.90737 11.1453 2.03304 11.0373 2.16206 11.0373C2.32085 11.0373 2.38411 11.1026 2.38411 11.2141C2.38411 11.2917 2.3466 11.3253 2.29267 11.3253C2.15649 11.3253 2.19473 11.142 2.19473 11.142C2.12709 11.1568 2.07151 11.226 2.10329 11.3123C2.05193 11.3236 2.00557 11.3511 1.97105 11.3908C2.00755 11.4262 2.04943 11.4535 2.10329 11.4628C2.07139 11.5681 2.11401 11.6196 2.20615 11.6412C2.18755 11.6007 2.18693 11.5634 2.19309 11.5283C2.33813 11.5695 2.56044 11.5039 2.56044 11.2533C2.56044 11.0046 2.38778 10.7951 2.06409 10.8475C2.14109 10.8106 2.18025 10.7353 2.18817 10.6511C2.12937 10.674 2.06409 10.6772 2.06409 10.6772C2.10194 10.6105 2.1545 10.553 2.15225 10.4219C2.09225 10.4492 2.03649 10.4997 1.9596 10.4678C2.08032 10.2302 1.932 9.90349 1.55469 9.82618C1.69279 9.98806 1.7604 10.1628 1.7604 10.3368C1.7604 10.9007 1.60368 10.9955 1.60368 11.3875C1.60368 11.5516 1.68799 11.7287 1.8551 11.8491V11.8425C1.74465 11.8721 1.6739 11.9265 1.63322 12.0004C1.88558 12.072 2.25242 12.0707 2.44937 11.9932C2.67578 11.9669 2.83385 11.7932 2.88041 11.7051C2.92697 11.6169 3.01742 11.2982 2.88041 11.0112L1.80285 8.72643C1.7561 8.62647 1.72773 8.52044 1.72773 8.40565C1.72773 8.11693 1.99221 8.01612 2.14245 8.01612C2.32205 8.01612 2.5049 8.15293 2.5049 8.32381C2.5049 8.43207 2.4461 8.49728 2.36121 8.49728C2.15822 8.49728 2.17056 8.3246 2.21102 8.21578C2.08469 8.27259 2.01125 8.37399 2.03143 8.48091C1.95991 8.49072 1.89182 8.52464 1.82899 8.59549C1.87843 8.65789 1.93872 8.70509 2.03143 8.70677C1.99094 8.87266 2.10199 8.94281 2.21102 8.98172C2.17653 8.85997 2.1539 8.71985 2.36121 8.71985C2.51241 8.71985 2.63141 8.69367 2.70081 8.59546L2.71713 9.24358C2.72587 9.43793 2.45702 9.43239 2.28614 9.37453C2.35063 9.59837 2.48289 9.71941 2.78899 9.68876C2.71469 9.71984 2.63551 9.78975 2.63551 9.92444C2.63556 10.1067 2.7834 10.3086 2.88045 10.3682L2.92898 8.47102L2.92896 8.47104Z" fill="#FFEC2D"/>
<path d="M2.8804 1.75046C2.8804 1.75046 3.11104 1.55664 3.18938 1.65386C3.31538 1.81022 2.80202 2.5891 2.80202 2.86337C2.80202 3.31358 3.10243 3.43601 3.47337 3.5003C3.72228 3.54346 4.12759 3.48226 4.12759 3.48226C4.05127 3.3797 4.00164 3.34949 3.87304 3.3413C4.0162 3.26698 4.16198 3.10562 4.16198 2.85449C4.16198 2.46718 4.00255 2.30753 4.00255 1.8709C4.00255 1.62866 4.20117 1.32031 4.20117 1.32031C3.85008 1.35545 3.67608 1.68053 3.77508 1.94033C3.7192 1.94837 3.66847 1.93577 3.62488 1.89449C3.5992 1.96649 3.63976 2.05008 3.69408 2.1221C3.65032 2.14548 3.61819 2.13146 3.54849 2.11706C3.55512 2.19127 3.59956 2.27009 3.70833 2.3443C3.39271 2.26234 3.1985 2.48232 3.1985 2.71262C3.1985 2.88658 3.3204 3.01126 3.43956 3.01126C3.47805 3.01126 3.53462 2.99539 3.56652 2.97156C3.58903 3.01944 3.57744 3.08352 3.55428 3.1314C3.64159 3.10831 3.69703 3.05645 3.65757 2.9485C3.72465 2.94233 3.778 2.91967 3.81429 2.8765C3.77752 2.82938 3.72172 2.80226 3.65757 2.80447C3.70641 2.70367 3.65198 2.64727 3.57266 2.60153C3.57266 2.60153 3.62311 2.80447 3.4943 2.80447C3.43639 2.80447 3.38361 2.78561 3.38361 2.70024C3.38361 2.62591 3.44858 2.52295 3.5988 2.5295C3.74901 2.53606 3.87076 2.63306 3.87076 2.87285C3.87076 3.09403 3.69235 3.20405 3.45724 3.21115C3.24525 3.2177 3.08524 3.10286 3.08524 2.88415C3.08524 2.59308 3.50544 1.9296 3.50544 1.67023C3.50544 1.47559 3.33043 1.36697 3.15919 1.36697C2.93714 1.36697 2.7498 1.58683 2.7498 1.58683L2.88024 1.75039L2.8804 1.75046Z" fill="#FFEC2D"/>
<path d="M2.83178 7.01138C2.83178 7.49786 3.26854 7.74789 3.61174 7.74789C4.07412 7.74789 4.32031 7.47143 4.32031 7.10954C4.32031 6.90439 4.28273 6.77567 4.18814 6.57933L3.12847 4.37966C3.09144 4.30314 3.07949 4.21602 3.07949 4.08834C3.07949 3.89114 3.27077 3.72995 3.47134 3.72501C3.65417 3.72045 3.85337 3.89546 3.85337 4.0949C3.85337 4.33713 3.7277 4.44513 3.59868 4.44513C3.4399 4.44513 3.37663 4.37985 3.37663 4.26837C3.37663 4.19068 3.41414 4.15708 3.46807 4.15708C3.60425 4.15708 3.56602 4.34039 3.56602 4.34039C3.63365 4.32558 3.68923 4.25646 3.65746 4.17016C3.70881 4.15882 3.75517 4.13128 3.7897 4.09161C3.75319 4.05621 3.71131 4.0289 3.65746 4.01961C3.68935 3.9143 3.64673 3.86286 3.55459 3.84122C3.57319 3.8817 3.57382 3.91898 3.56765 3.95414C3.42262 3.91288 3.2003 3.97852 3.2003 4.22908C3.2003 4.47784 3.37296 4.68731 3.69665 4.63497C3.61966 4.67178 3.58049 4.74712 3.57257 4.83136C3.63137 4.80846 3.69665 4.8052 3.69665 4.8052C3.6588 4.87192 3.60624 4.92945 3.6085 5.06049C3.6685 5.0332 3.72425 4.98268 3.80114 5.01465C3.68042 5.2522 3.82874 5.57894 4.20605 5.65624C4.06795 5.49436 4.00034 5.31959 4.00034 5.14559C4.00034 4.58169 4.15706 4.48691 4.15706 4.09487C4.15706 3.93083 4.07275 3.75371 3.90564 3.63333V3.63988C4.01609 3.61029 4.08684 3.5559 4.12752 3.48201C3.87516 3.41044 3.50832 3.41176 3.31138 3.48926C3.08496 3.51549 2.9269 3.68918 2.88034 3.77735C2.83378 3.86553 2.74332 4.18422 2.88034 4.47124L3.95789 6.75599C4.00464 6.85595 4.03301 6.96198 4.03301 7.07678C4.03301 7.3655 3.76853 7.4663 3.61829 7.4663C3.4387 7.4663 3.25584 7.3295 3.25584 7.15862C3.25584 7.05035 3.31464 6.98514 3.39953 6.98514C3.60252 6.98514 3.59018 7.15782 3.54972 7.26664C3.67606 7.20983 3.7495 7.10843 3.72931 7.00151C3.80083 6.9917 3.86892 6.95778 3.93175 6.88694C3.88231 6.82454 3.82202 6.77733 3.72931 6.77565C3.7698 6.60976 3.65875 6.53961 3.54972 6.5007C3.58421 6.62246 3.60684 6.76257 3.39953 6.76257C3.24833 6.76257 3.12934 6.78875 3.05993 6.88696L3.04361 6.23884C3.03487 6.04449 3.30372 6.05003 3.4746 6.1079C3.41011 5.88405 3.27785 5.76302 2.97175 5.79366C3.04606 5.76258 3.12523 5.69267 3.12523 5.55798C3.12518 5.37575 2.97734 5.17386 2.88029 5.11418L2.83176 7.0114L2.83178 7.01138Z" fill="#FFEC2D"/>
<path d="M2.83178 8.47104C2.83178 7.98456 3.26854 7.73453 3.61174 7.73453C4.07412 7.73453 4.32031 8.01099 4.32031 8.37288C4.32031 8.57804 4.28273 8.70675 4.18814 8.90309L3.12847 11.1028C3.09144 11.1793 3.07949 11.2664 3.07949 11.3941C3.07949 11.5913 3.27077 11.7525 3.47134 11.7574C3.65417 11.762 3.85337 11.587 3.85337 11.3875C3.85337 11.1453 3.7277 11.0373 3.59868 11.0373C3.4399 11.0373 3.37663 11.1026 3.37663 11.2141C3.37663 11.2917 3.41414 11.3253 3.46807 11.3253C3.60425 11.3253 3.56602 11.142 3.56602 11.142C3.63365 11.1568 3.68923 11.226 3.65746 11.3123C3.70881 11.3236 3.75517 11.3511 3.7897 11.3908C3.75319 11.4262 3.71131 11.4535 3.65746 11.4628C3.68935 11.5681 3.64673 11.6196 3.55459 11.6412C3.57319 11.6007 3.57382 11.5634 3.56765 11.5283C3.42262 11.5695 3.2003 11.5039 3.2003 11.2533C3.2003 11.0046 3.37296 10.7951 3.69665 10.8475C3.61966 10.8106 3.58049 10.7353 3.57257 10.6511C3.63137 10.674 3.69665 10.6772 3.69665 10.6772C3.6588 10.6105 3.60624 10.553 3.6085 10.4219C3.6685 10.4492 3.72425 10.4997 3.80114 10.4678C3.68042 10.2302 3.82874 9.90349 4.20605 9.82618C4.06795 9.98806 4.00034 10.1628 4.00034 10.3368C4.00034 10.9007 4.15706 10.9955 4.15706 11.3875C4.15706 11.5516 4.07275 11.7287 3.90564 11.8491V11.8425C4.01609 11.8721 4.08684 11.9265 4.12752 12.0004C3.87516 12.072 3.50832 12.0707 3.31138 11.9932C3.08496 11.9669 2.9269 11.7932 2.88034 11.7051C2.83378 11.6169 2.74332 11.2982 2.88034 11.0112L3.95789 8.72643C4.00464 8.62647 4.03301 8.52044 4.03301 8.40565C4.03301 8.11693 3.76853 8.01612 3.61829 8.01612C3.4387 8.01612 3.25584 8.15293 3.25584 8.32381C3.25584 8.43207 3.31464 8.49728 3.39953 8.49728C3.60252 8.49728 3.59018 8.3246 3.54972 8.21578C3.67606 8.27259 3.7495 8.37399 3.72931 8.48091C3.80083 8.49072 3.86892 8.52464 3.93175 8.59549C3.88231 8.65789 3.82202 8.70509 3.72931 8.70677C3.7698 8.87266 3.65875 8.94281 3.54972 8.98172C3.58421 8.85997 3.60684 8.71985 3.39953 8.71985C3.24833 8.71985 3.12934 8.69367 3.05993 8.59546L3.04361 9.24358C3.03487 9.43793 3.30372 9.43239 3.4746 9.37453C3.41011 9.59837 3.27785 9.71941 2.97175 9.68876C3.04606 9.71984 3.12523 9.78975 3.12523 9.92444C3.12518 10.1067 2.97734 10.3086 2.88029 10.3682L2.83176 8.47102L2.83178 8.47104Z" fill="#FFEC2D"/>
<path d="M2.88034 22.2495C2.88034 22.2495 2.6497 22.4434 2.57136 22.3461C2.44536 22.1898 2.95872 21.4109 2.95872 21.1366C2.95872 20.6864 2.65831 20.564 2.28737 20.4997C2.03847 20.4565 1.63315 20.5177 1.63315 20.5177C1.70947 20.6203 1.75911 20.6505 1.8877 20.6587C1.74454 20.733 1.59876 20.8944 1.59876 21.1455C1.59876 21.5328 1.75819 21.6925 1.75819 22.1291C1.75819 22.3713 1.55957 22.6797 1.55957 22.6797C1.91067 22.6446 2.08467 22.3195 1.98567 22.0597C2.04154 22.0516 2.09227 22.0642 2.13586 22.1055C2.16154 22.0335 2.12098 21.9499 2.06667 21.8779C2.11042 21.8545 2.14255 21.8685 2.21225 21.8829C2.20563 21.8087 2.16118 21.7299 2.05241 21.6557C2.36803 21.7377 2.56224 21.5177 2.56224 21.2874C2.56224 21.1134 2.44035 20.9887 2.32119 20.9887C2.28269 20.9887 2.22612 21.0046 2.19423 21.0284C2.17171 20.9806 2.18331 20.9165 2.20647 20.8686C2.11915 20.8917 2.06371 20.9436 2.10317 21.0515C2.03609 21.0577 1.98274 21.0803 1.94645 21.1235C1.98322 21.1706 2.03902 21.1977 2.10317 21.1955C2.05433 21.2963 2.10876 21.3527 2.18808 21.3985C2.18808 21.3985 2.13763 21.1955 2.26644 21.1955C2.32435 21.1955 2.37713 21.2144 2.37713 21.2998C2.37713 21.3741 2.31216 21.477 2.16195 21.4705C2.01173 21.4639 1.88998 21.3669 1.88998 21.1272C1.88998 20.906 2.06839 20.796 2.3035 20.7888C2.51549 20.7823 2.6755 20.8971 2.6755 21.1158C2.6755 21.4069 2.25531 22.0704 2.25531 22.3298C2.25531 22.5244 2.43031 22.633 2.60155 22.633C2.8236 22.633 3.01095 22.4132 3.01095 22.4132L2.88051 22.2496L2.88034 22.2495Z" fill="#FFEC2D"/>
<path d="M2.92896 16.9886C2.92896 16.5021 2.49221 16.2521 2.14901 16.2521C1.68662 16.2521 1.44043 16.5286 1.44043 16.8905C1.44043 17.0956 1.47801 17.2243 1.5726 17.4207L2.63227 19.6203C2.6693 19.6969 2.68125 19.784 2.68125 19.9117C2.68125 20.1089 2.48997 20.27 2.28941 20.275C2.10657 20.2796 1.90737 20.1045 1.90737 19.9051C1.90737 19.6629 2.03304 19.5549 2.16206 19.5549C2.32085 19.5549 2.38411 19.6202 2.38411 19.7316C2.38411 19.8093 2.3466 19.8429 2.29267 19.8429C2.15649 19.8429 2.19473 19.6596 2.19473 19.6596C2.12709 19.6744 2.07151 19.7435 2.10329 19.8298C2.05193 19.8412 2.00557 19.8687 1.97105 19.9084C2.00755 19.9438 2.04943 19.9711 2.10329 19.9804C2.07139 20.0857 2.11401 20.1371 2.20615 20.1588C2.18755 20.1183 2.18693 20.081 2.19309 20.0459C2.33813 20.0871 2.56044 20.0215 2.56044 19.7709C2.56044 19.5222 2.38778 19.3127 2.06409 19.365C2.14109 19.3282 2.18025 19.2529 2.18817 19.1686C2.12937 19.1915 2.06409 19.1948 2.06409 19.1948C2.10194 19.1281 2.1545 19.0706 2.15225 18.9395C2.09225 18.9668 2.03649 19.0173 1.9596 18.9854C2.08032 18.7478 1.932 18.4211 1.55469 18.3438C1.69279 18.5056 1.7604 18.6804 1.7604 18.8544C1.7604 19.4183 1.60368 19.5131 1.60368 19.9051C1.60368 20.0692 1.68799 20.2463 1.8551 20.3667V20.3601C1.74465 20.3897 1.6739 20.4441 1.63322 20.518C1.88558 20.5896 2.25242 20.5882 2.44937 20.5107C2.67578 20.4845 2.83385 20.3108 2.88041 20.2226C2.92697 20.1345 3.01742 19.8158 2.88041 19.5288L1.80285 17.244C1.7561 17.144 1.72773 17.038 1.72773 16.9232C1.72773 16.6345 1.99221 16.5337 2.14245 16.5337C2.32205 16.5337 2.5049 16.6705 2.5049 16.8414C2.5049 16.9496 2.4461 17.0149 2.36121 17.0149C2.15822 17.0149 2.17056 16.8422 2.21102 16.7334C2.08469 16.7902 2.01125 16.8916 2.03143 16.9985C1.95991 17.0083 1.89182 17.0422 1.82899 17.1131C1.87843 17.1755 1.93872 17.2227 2.03143 17.2244C1.99094 17.3902 2.10199 17.4604 2.21102 17.4993C2.17653 17.3775 2.1539 17.2374 2.36121 17.2374C2.51241 17.2374 2.63141 17.2112 2.70081 17.113L2.71713 17.7612C2.72587 17.9555 2.45702 17.95 2.28614 17.8921C2.35063 18.116 2.48289 18.237 2.78899 18.2063C2.71469 18.2374 2.63551 18.3073 2.63551 18.442C2.63556 18.6242 2.7834 18.8261 2.88045 18.8858L2.92898 16.9886L2.92896 16.9886Z" fill="#FFEC2D"/>
<path d="M2.92896 15.529C2.92896 16.0154 2.49221 16.2655 2.14901 16.2655C1.68662 16.2655 1.44043 15.989 1.44043 15.6271C1.44043 15.422 1.47801 15.2933 1.5726 15.0969L2.63227 12.8972C2.6693 12.8207 2.68125 12.7336 2.68125 12.6059C2.68125 12.4087 2.48997 12.2475 2.28941 12.2426C2.10657 12.238 1.90737 12.413 1.90737 12.6125C1.90737 12.8547 2.03304 12.9627 2.16206 12.9627C2.32085 12.9627 2.38411 12.8974 2.38411 12.7859C2.38411 12.7083 2.3466 12.6747 2.29267 12.6747C2.15649 12.6747 2.19473 12.858 2.19473 12.858C2.12709 12.8432 2.07151 12.774 2.10329 12.6877C2.05193 12.6764 2.00557 12.6489 1.97105 12.6092C2.00755 12.5738 2.04943 12.5465 2.10329 12.5372C2.07139 12.4319 2.11401 12.3804 2.20615 12.3588C2.18755 12.3993 2.18693 12.4366 2.19309 12.4717C2.33813 12.4305 2.56044 12.4961 2.56044 12.7467C2.56044 12.9954 2.38778 13.2049 2.06409 13.1525C2.14109 13.1894 2.18025 13.2647 2.18817 13.3489C2.12937 13.326 2.06409 13.3228 2.06409 13.3228C2.10194 13.3895 2.1545 13.447 2.15225 13.5781C2.09225 13.5508 2.03649 13.5003 1.9596 13.5322C2.08032 13.7698 1.932 14.0965 1.55469 14.1738C1.69279 14.0119 1.7604 13.8372 1.7604 13.6632C1.7604 13.0993 1.60368 13.0045 1.60368 12.6125C1.60368 12.4484 1.68799 12.2713 1.8551 12.1509V12.1575C1.74465 12.1279 1.6739 12.0735 1.63322 11.9996C1.88558 11.928 2.25242 11.9293 2.44937 12.0068C2.67578 12.0331 2.83385 12.2068 2.88041 12.2949C2.92697 12.3831 3.01742 12.7018 2.88041 12.9888L1.80285 15.2736C1.7561 15.3735 1.72773 15.4796 1.72773 15.5944C1.72773 15.8831 1.99221 15.9839 2.14245 15.9839C2.32205 15.9839 2.5049 15.8471 2.5049 15.6762C2.5049 15.5679 2.4461 15.5027 2.36121 15.5027C2.15822 15.5027 2.17056 15.6754 2.21102 15.7842C2.08469 15.7274 2.01125 15.626 2.03143 15.5191C1.95991 15.5093 1.89182 15.4754 1.82899 15.4045C1.87843 15.3421 1.93872 15.2949 2.03143 15.2932C1.99094 15.1273 2.10199 15.0572 2.21102 15.0183C2.17653 15.14 2.1539 15.2801 2.36121 15.2801C2.51241 15.2801 2.63141 15.3063 2.70081 15.4045L2.71713 14.7564C2.72587 14.5621 2.45702 14.5676 2.28614 14.6255C2.35063 14.4016 2.48289 14.2806 2.78899 14.3112C2.71469 14.2802 2.63551 14.2103 2.63551 14.0756C2.63556 13.8933 2.7834 13.6914 2.88045 13.6318L2.92898 15.529L2.92896 15.529Z" fill="#FFEC2D"/>
<path d="M2.8804 22.2495C2.8804 22.2495 3.11104 22.4434 3.18938 22.3461C3.31538 22.1898 2.80202 21.4109 2.80202 21.1366C2.80202 20.6864 3.10243 20.564 3.47337 20.4997C3.72228 20.4565 4.12759 20.5177 4.12759 20.5177C4.05127 20.6203 4.00164 20.6505 3.87304 20.6587C4.0162 20.733 4.16198 20.8944 4.16198 21.1455C4.16198 21.5328 4.00255 21.6925 4.00255 22.1291C4.00255 22.3713 4.20117 22.6797 4.20117 22.6797C3.85008 22.6446 3.67608 22.3195 3.77508 22.0597C3.7192 22.0516 3.66847 22.0642 3.62488 22.1055C3.5992 22.0335 3.63976 21.9499 3.69408 21.8779C3.65032 21.8545 3.61819 21.8685 3.54849 21.8829C3.55512 21.8087 3.59956 21.7299 3.70833 21.6557C3.39271 21.7377 3.1985 21.5177 3.1985 21.2874C3.1985 21.1134 3.3204 20.9887 3.43956 20.9887C3.47805 20.9887 3.53462 21.0046 3.56652 21.0284C3.58903 20.9806 3.57744 20.9165 3.55428 20.8686C3.64159 20.8917 3.69703 20.9436 3.65757 21.0515C3.72465 21.0577 3.778 21.0803 3.81429 21.1235C3.77752 21.1706 3.72172 21.1977 3.65757 21.1955C3.70641 21.2963 3.65198 21.3527 3.57266 21.3985C3.57266 21.3985 3.62311 21.1955 3.4943 21.1955C3.43639 21.1955 3.38361 21.2144 3.38361 21.2998C3.38361 21.3741 3.44858 21.477 3.5988 21.4705C3.74901 21.4639 3.87076 21.3669 3.87076 21.1272C3.87076 20.906 3.69235 20.796 3.45724 20.7888C3.24525 20.7823 3.08524 20.8971 3.08524 21.1158C3.08524 21.4069 3.50544 22.0704 3.50544 22.3298C3.50544 22.5244 3.33043 22.633 3.15919 22.633C2.93714 22.633 2.7498 22.4132 2.7498 22.4132L2.88024 22.2496L2.8804 22.2495Z" fill="#FFEC2D"/>
<path d="M2.83178 16.9886C2.83178 16.5021 3.26854 16.2521 3.61174 16.2521C4.07412 16.2521 4.32031 16.5286 4.32031 16.8905C4.32031 17.0956 4.28273 17.2243 4.18814 17.4207L3.12847 19.6203C3.09144 19.6969 3.07949 19.784 3.07949 19.9117C3.07949 20.1089 3.27077 20.27 3.47134 20.275C3.65417 20.2796 3.85337 20.1045 3.85337 19.9051C3.85337 19.6629 3.7277 19.5549 3.59868 19.5549C3.4399 19.5549 3.37663 19.6202 3.37663 19.7316C3.37663 19.8093 3.41414 19.8429 3.46807 19.8429C3.60425 19.8429 3.56602 19.6596 3.56602 19.6596C3.63365 19.6744 3.68923 19.7435 3.65746 19.8298C3.70881 19.8412 3.75517 19.8687 3.7897 19.9084C3.75319 19.9438 3.71131 19.9711 3.65746 19.9804C3.68935 20.0857 3.64673 20.1371 3.55459 20.1588C3.57319 20.1183 3.57382 20.081 3.56765 20.0459C3.42262 20.0871 3.2003 20.0215 3.2003 19.7709C3.2003 19.5222 3.37296 19.3127 3.69665 19.365C3.61966 19.3282 3.58049 19.2529 3.57257 19.1686C3.63137 19.1915 3.69665 19.1948 3.69665 19.1948C3.6588 19.1281 3.60624 19.0706 3.6085 18.9395C3.6685 18.9668 3.72425 19.0173 3.80114 18.9854C3.68042 18.7478 3.82874 18.4211 4.20605 18.3438C4.06795 18.5056 4.00034 18.6804 4.00034 18.8544C4.00034 19.4183 4.15706 19.5131 4.15706 19.9051C4.15706 20.0692 4.07275 20.2463 3.90564 20.3667V20.3601C4.01609 20.3897 4.08684 20.4441 4.12752 20.518C3.87516 20.5896 3.50832 20.5882 3.31138 20.5107C3.08496 20.4845 2.9269 20.3108 2.88034 20.2226C2.83378 20.1345 2.74332 19.8158 2.88034 19.5288L3.95789 17.244C4.00464 17.144 4.03301 17.038 4.03301 16.9232C4.03301 16.6345 3.76853 16.5337 3.61829 16.5337C3.4387 16.5337 3.25584 16.6705 3.25584 16.8414C3.25584 16.9496 3.31464 17.0149 3.39953 17.0149C3.60252 17.0149 3.59018 16.8422 3.54972 16.7334C3.67606 16.7902 3.7495 16.8916 3.72931 16.9985C3.80083 17.0083 3.86892 17.0422 3.93175 17.1131C3.88231 17.1755 3.82202 17.2227 3.72931 17.2244C3.7698 17.3902 3.65875 17.4604 3.54972 17.4993C3.58421 17.3775 3.60684 17.2374 3.39953 17.2374C3.24833 17.2374 3.12934 17.2112 3.05993 17.113L3.04361 17.7612C3.03487 17.9555 3.30372 17.95 3.4746 17.8921C3.41011 18.116 3.27785 18.237 2.97175 18.2063C3.04606 18.2374 3.12523 18.3073 3.12523 18.442C3.12518 18.6242 2.97734 18.8261 2.88029 18.8858L2.83176 16.9886L2.83178 16.9886Z" fill="#FFEC2D"/>
<path d="M2.83178 15.529C2.83178 16.0154 3.26854 16.2655 3.61174 16.2655C4.07412 16.2655 4.32031 15.989 4.32031 15.6271C4.32031 15.422 4.28273 15.2933 4.18814 15.0969L3.12847 12.8972C3.09144 12.8207 3.07949 12.7336 3.07949 12.6059C3.07949 12.4087 3.27077 12.2475 3.47134 12.2426C3.65417 12.238 3.85337 12.413 3.85337 12.6125C3.85337 12.8547 3.7277 12.9627 3.59868 12.9627C3.4399 12.9627 3.37663 12.8974 3.37663 12.7859C3.37663 12.7083 3.41414 12.6747 3.46807 12.6747C3.60425 12.6747 3.56602 12.858 3.56602 12.858C3.63365 12.8432 3.68923 12.774 3.65746 12.6877C3.70881 12.6764 3.75517 12.6489 3.7897 12.6092C3.75319 12.5738 3.71131 12.5465 3.65746 12.5372C3.68935 12.4319 3.64673 12.3804 3.55459 12.3588C3.57319 12.3993 3.57382 12.4366 3.56765 12.4717C3.42262 12.4305 3.2003 12.4961 3.2003 12.7467C3.2003 12.9954 3.37296 13.2049 3.69665 13.1525C3.61966 13.1894 3.58049 13.2647 3.57257 13.3489C3.63137 13.326 3.69665 13.3228 3.69665 13.3228C3.6588 13.3895 3.60624 13.447 3.6085 13.5781C3.6685 13.5508 3.72425 13.5003 3.80114 13.5322C3.68042 13.7698 3.82874 14.0965 4.20605 14.1738C4.06795 14.0119 4.00034 13.8372 4.00034 13.6632C4.00034 13.0993 4.15706 13.0045 4.15706 12.6125C4.15706 12.4484 4.07275 12.2713 3.90564 12.1509V12.1575C4.01609 12.1279 4.08684 12.0735 4.12752 11.9996C3.87516 11.928 3.50832 11.9293 3.31138 12.0068C3.08496 12.0331 2.9269 12.2068 2.88034 12.2949C2.83378 12.3831 2.74332 12.7018 2.88034 12.9888L3.95789 15.2736C4.00464 15.3735 4.03301 15.4796 4.03301 15.5944C4.03301 15.8831 3.76853 15.9839 3.61829 15.9839C3.4387 15.9839 3.25584 15.8471 3.25584 15.6762C3.25584 15.5679 3.31464 15.5027 3.39953 15.5027C3.60252 15.5027 3.59018 15.6754 3.54972 15.7842C3.67606 15.7274 3.7495 15.626 3.72931 15.5191C3.80083 15.5093 3.86892 15.4754 3.93175 15.4045C3.88231 15.3421 3.82202 15.2949 3.72931 15.2932C3.7698 15.1273 3.65875 15.0572 3.54972 15.0183C3.58421 15.14 3.60684 15.2801 3.39953 15.2801C3.24833 15.2801 3.12934 15.3063 3.05993 15.4045L3.04361 14.7564C3.03487 14.5621 3.30372 14.5676 3.4746 14.6255C3.41011 14.4016 3.27785 14.2806 2.97175 14.3112C3.04606 14.2802 3.12523 14.2103 3.12523 14.0756C3.12518 13.8933 2.97734 13.6914 2.88029 13.6318L2.83176 15.529L2.83178 15.529Z" fill="#FFEC2D"/>
</g>
<defs>
<clipPath id="clip0_1940_53240">
<rect width="48" height="24" fill="white"/>
</clipPath>
</defs>
</svg>
