<svg width="20" height="14" viewBox="0 0 20 14" fill="none" xmlns="http://www.w3.org/2000/svg">
<path d="M18.67 9.31006L12 13.1601C11.5944 13.3931 11.1348 13.5154 10.667 13.5149C10.1992 13.5144 9.73983 13.391 9.33477 13.157C8.92971 12.9231 8.59321 12.5869 8.35896 12.182C8.12471 11.7771 8.00094 11.3178 8.00004 10.8501L4.00004 13.1601C3.59444 13.3931 3.13476 13.5154 2.667 13.5149C2.19924 13.5144 1.73983 13.391 1.33477 13.157C0.929709 12.9231 0.593207 12.5869 0.35896 12.182C0.124713 11.7771 0.000940661 11.3178 3.5892e-05 10.8501V3.15006C-0.00240318 2.68313 0.11951 2.22398 0.353251 1.81977C0.586992 1.41555 0.924133 1.08085 1.33004 0.850058C1.73504 0.607853 2.19813 0.479982 2.67004 0.480057C3.13711 0.482555 3.59547 0.606626 4.00004 0.840057L8.00004 3.15006C7.99789 2.68185 8.11984 2.22143 8.35346 1.81566C8.58708 1.4099 8.92404 1.07328 9.33004 0.840057C9.73559 0.604733 10.1961 0.480791 10.665 0.480791C11.1339 0.480791 11.5945 0.604733 12 0.840057L18.67 4.69006C19.0749 4.9247 19.4109 5.26161 19.6445 5.66704C19.8781 6.07246 20.0011 6.53215 20.0011 7.00006C20.0011 7.46797 19.8781 7.92766 19.6445 8.33308C19.4109 8.7385 19.0749 9.07541 18.67 9.31006ZM8.00004 5.46006L3.00004 2.58006C2.89907 2.52289 2.78498 2.49292 2.66896 2.49308C2.55293 2.49325 2.43893 2.52354 2.33812 2.581C2.23732 2.63846 2.15316 2.72111 2.0939 2.82086C2.03464 2.92062 2.00229 3.03405 2.00004 3.15006V10.8501C2.00229 10.9661 2.03464 11.0795 2.0939 11.1793C2.15316 11.279 2.23732 11.3617 2.33812 11.4191C2.43893 11.4766 2.55293 11.5069 2.66896 11.507C2.78498 11.5072 2.89907 11.4772 3.00004 11.4201L8.00004 8.54006V5.46006ZM17.67 6.46006L11 2.57006C10.8976 2.51314 10.7823 2.48328 10.665 2.48328C10.5478 2.48328 10.4325 2.51314 10.33 2.57006C10.2285 2.62869 10.1443 2.71334 10.0863 2.81528C10.0283 2.91722 9.99854 3.03278 10 3.15006V10.8501C9.99854 10.9673 10.0283 11.0829 10.0863 11.1848C10.1443 11.2868 10.2285 11.3714 10.33 11.4301C10.435 11.4856 10.5513 11.5163 10.67 11.5201C10.7862 11.5211 10.9004 11.4899 11 11.4301L17.67 7.58006C17.7718 7.52122 17.8563 7.43666 17.915 7.33485C17.9737 7.23305 18.0046 7.11759 18.0046 7.00006C18.0046 6.88253 17.9737 6.76707 17.915 6.66526C17.8563 6.56346 17.7718 6.47889 17.67 6.42006V6.46006Z" fill="black"/>
</svg>
