<svg width="23" height="24" viewBox="0 0 23 24" fill="none" xmlns="http://www.w3.org/2000/svg">
<path fill-rule="evenodd" clip-rule="evenodd" d="M6.90567 12C6.90567 14.4109 8.8584 16.3637 11.2693 16.3637C13.6693 16.3637 15.6329 14.4109 15.6329 12C15.6329 9.58911 13.6802 7.63638 11.2693 7.63638C8.8584 7.63638 6.90567 9.58911 6.90567 12ZM9.08749 12C9.08749 10.8 10.0693 9.8182 11.2693 9.8182C12.4693 9.8182 13.4511 10.8 13.4511 12C13.4511 13.2 12.4693 14.1818 11.2693 14.1818C10.0693 14.1818 9.08749 13.2 9.08749 12Z" fill="#F5F9FF" fill-opacity="0.95"/>
<path fill-rule="evenodd" clip-rule="evenodd" d="M11.0293 24H11.5093C12.382 24 13.2002 23.6618 13.8329 23.04C14.4547 22.4182 14.7929 21.6 14.7929 20.7273V20.52C14.7929 20.3236 14.8365 20.1382 14.9347 19.9745C15.0329 19.8109 15.1638 19.6691 15.3383 19.5709L15.8074 19.2982C16.1456 19.1127 16.5383 19.0909 16.9311 19.32L17.062 19.3855C17.8038 19.8109 18.7093 19.9309 19.5383 19.7127C20.3893 19.4945 21.0874 18.9491 21.5347 18.1855L21.7638 17.7709C22.2002 17.0182 22.3202 16.1345 22.0911 15.2945C21.862 14.4545 21.3165 13.7455 20.5311 13.2873L20.4002 13.2218C20.2256 13.1236 20.0947 12.9818 19.9965 12.8182C19.9093 12.6436 19.8547 12.4582 19.8547 12.2618V11.7164C19.8438 11.5309 19.8983 11.3345 19.9965 11.1709C20.0947 11.0073 20.2256 10.8764 20.4111 10.7673L20.5747 10.6582C21.3274 10.2218 21.862 9.51273 22.0911 8.67273C22.3202 7.83273 22.2002 6.94909 21.7638 6.19636L21.5238 5.78182C21.0874 5.02909 20.3783 4.49455 19.5383 4.26545C18.6983 4.03636 17.8038 4.15636 17.0838 4.57091L16.8874 4.68C16.5493 4.86545 16.1238 4.86545 15.7965 4.68L15.3274 4.40727C15.1529 4.32 15.022 4.17818 14.9238 4.01455C14.8365 3.85091 14.782 3.65455 14.782 3.46909V3.27273C14.782 2.4 14.4438 1.58182 13.822 0.96C13.2002 0.338182 12.382 0 11.5093 0H11.0293C10.1565 0 9.32743 0.338182 8.71653 0.96C8.09471 1.58182 7.75653 2.4 7.75653 3.27273V3.46909C7.75653 3.65455 7.70198 3.85091 7.61471 4.01455C7.51653 4.17818 7.37471 4.32 7.21107 4.41818L6.74198 4.68C6.4038 4.87636 6.01107 4.89818 5.60744 4.66909L5.47653 4.60364C4.7238 4.16727 3.84016 4.04727 3.00016 4.27636C2.17107 4.49455 1.44016 5.05091 1.01471 5.79273L0.774708 6.20727C0.338345 6.96 0.229254 7.84364 0.447435 8.68364C0.676526 9.53455 1.21107 10.2327 1.92016 10.6473L2.13834 10.7891C2.30198 10.8764 2.4438 11.0182 2.52016 11.1709C2.60744 11.3345 2.66198 11.52 2.66198 11.7055V12.2727C2.66198 12.4582 2.61834 12.6545 2.52016 12.8182C2.42198 12.9927 2.29107 13.1236 2.10562 13.2327L1.9638 13.32C1.21107 13.7564 0.676526 14.4655 0.447435 15.3055C0.218345 16.1564 0.338345 17.0291 0.774708 17.7927L1.02562 18.1964C1.45107 18.9491 2.18198 19.4945 3.01107 19.7236C3.85107 19.9527 4.73471 19.8327 5.45471 19.4182L5.65107 19.3091C5.98925 19.1236 6.41471 19.1236 6.74198 19.3091L7.21107 19.5818C7.38562 19.68 7.51653 19.8218 7.61471 19.9855C7.70198 20.1491 7.75653 20.3455 7.75653 20.5309V20.7273C7.75653 21.6 8.09471 22.4182 8.71653 23.04C9.33834 23.6618 10.1565 24 11.0293 24ZM7.83289 17.4218C7.33107 17.1382 6.77471 16.9855 6.19653 16.9855C5.61834 16.9855 5.05107 17.1382 4.6038 17.4109L4.40744 17.52C4.15653 17.6618 3.86198 17.7055 3.57834 17.6291C3.29471 17.5527 3.05471 17.3673 2.91289 17.1164L2.67289 16.7018C2.53107 16.4509 2.48744 16.1564 2.5638 15.8727C2.64016 15.5891 2.81471 15.3491 3.08744 15.1964L3.22925 15.1091C3.73107 14.8255 4.14562 14.4109 4.42925 13.9091C4.7238 13.4073 4.86562 12.84 4.86562 12.2727V11.7055C4.86562 11.1382 4.70198 10.5818 4.41834 10.08C4.13471 9.57818 3.72016 9.17455 3.2838 8.92364L3.06562 8.78182C2.81471 8.64 2.62925 8.41091 2.55289 8.12727C2.48744 7.84364 2.52016 7.54909 2.66198 7.29818L2.91289 6.88364C3.05471 6.63273 3.29471 6.44727 3.56744 6.38182C3.85107 6.30545 4.14562 6.33818 4.42925 6.50182L4.56016 6.56727C5.54198 7.14545 6.82925 7.14545 7.83289 6.56727L8.30198 6.30546C8.8038 6.01091 9.21834 5.59636 9.50198 5.10545C9.78562 4.60364 9.93834 4.04727 9.93834 3.46909V3.27273C9.93834 2.98909 10.0583 2.70545 10.2547 2.49818C10.462 2.30182 10.7456 2.18182 11.0293 2.18182H11.5093C11.7929 2.18182 12.0765 2.30182 12.2838 2.49818C12.4802 2.70545 12.6002 2.98909 12.6002 3.27273V3.48C12.6002 4.04727 12.7529 4.61455 13.0365 5.11636C13.3202 5.60727 13.7347 6.02182 14.2256 6.30546L14.6947 6.57818C15.6874 7.15636 17.0074 7.14545 17.9347 6.6L18.1311 6.49091C18.382 6.34909 18.6874 6.30545 18.9602 6.38182C19.2438 6.45818 19.4838 6.63273 19.6256 6.88364L19.8656 7.29818C20.0074 7.54909 20.0511 7.85455 19.9747 8.12727C19.8983 8.4 19.7238 8.64 19.462 8.79273L19.3093 8.88C18.8074 9.16364 18.3929 9.57818 18.1093 10.08C17.8256 10.5709 17.6729 11.1491 17.6729 11.7164V12.2618C17.6729 12.8291 17.8256 13.3964 18.1093 13.8982C18.3929 14.4 18.8074 14.8145 19.342 15.12L19.4729 15.1855C19.7238 15.3273 19.9093 15.5782 19.9856 15.8509C20.0511 16.1345 20.0183 16.4291 19.8656 16.6909L19.6365 17.1055C19.4838 17.3564 19.2547 17.5309 18.9711 17.6073C18.6874 17.6836 18.382 17.6509 18.1093 17.4873L17.9783 17.4218C16.9856 16.8436 15.6983 16.8436 14.7056 17.4218L14.2365 17.6945C13.7347 17.9891 13.3202 18.3927 13.0365 18.8945C12.7529 19.3964 12.6002 19.9636 12.6002 20.5309V20.7273C12.6002 21.0218 12.4911 21.2945 12.2838 21.5018C12.0765 21.7091 11.8038 21.8182 11.5093 21.8182H11.0293C10.7347 21.8182 10.462 21.7091 10.2438 21.5018C10.0365 21.2945 9.92743 21.0218 9.92743 20.7273V20.52C9.92743 19.9418 9.77471 19.3855 9.49107 18.8836C9.20744 18.3927 8.79289 17.9782 8.30198 17.6945L7.83289 17.4218Z" fill="#F5F9FF" fill-opacity="0.95"/>
</svg>
