<svg width="29" height="28" viewBox="0 0 29 28" fill="none" xmlns="http://www.w3.org/2000/svg">
<path fill-rule="evenodd" clip-rule="evenodd" d="M14.5009 0.669312C15.0084 0.669312 15.4719 0.957443 15.6965 1.41256L19.2845 8.68253L27.3074 9.84833C27.8096 9.92131 28.2269 10.2731 28.3837 10.7558C28.5405 11.2385 28.4097 11.7683 28.0463 12.1226L22.2409 17.7815L23.6114 25.7719C23.6971 26.2722 23.4915 26.7777 23.0809 27.076C22.6703 27.3743 22.126 27.4137 21.6768 27.1775L14.5009 23.4049L7.32497 27.1775C6.87574 27.4137 6.3314 27.3743 5.9208 27.076C5.51021 26.7777 5.30458 26.2722 5.39037 25.7719L6.76084 17.7815L0.955424 12.1226C0.591994 11.7683 0.461198 11.2385 0.618031 10.7558C0.774864 10.2731 1.19213 9.92131 1.69438 9.84833L9.71727 8.68253L13.3052 1.41256C13.5298 0.957443 13.9933 0.669312 14.5009 0.669312ZM14.5009 5.01538L11.7983 10.4913C11.6041 10.8848 11.2287 11.1576 10.7944 11.2207L4.75139 12.0988L9.12417 16.3612C9.43841 16.6675 9.58181 17.1088 9.50763 17.5414L8.47536 23.56L13.8804 20.7184C14.2688 20.5142 14.7329 20.5142 15.1213 20.7184L20.5264 23.56L19.4941 17.5414C19.4199 17.1088 19.5633 16.6675 19.8776 16.3612L24.2503 12.0988L18.2073 11.2207C17.773 11.1576 17.3976 10.8848 17.2034 10.4913L14.5009 5.01538Z" fill="#C4C4C4"/>
</svg>
