<svg width="33" height="32" viewBox="0 0 33 32" fill="none" xmlns="http://www.w3.org/2000/svg">
    <path d="M4.75 16H9.75L11.75 13L15.75 19L17.75 16H20.75" stroke="currentColor" stroke-width="2" stroke-linecap="round" stroke-linejoin="round"/>
    <path d="M4.26428 11.9992C4.25483 11.8334 4.25006 11.667 4.25 11.5C4.25025 9.99767 4.77082 8.54179 5.72318 7.3799C6.67555 6.218 8.00093 5.4218 9.47399 5.12668C10.947 4.83155 12.4769 5.05571 13.8033 5.76104C15.1298 6.46637 16.171 7.60934 16.75 8.99563L16.75 8.99564C17.329 7.60935 18.3702 6.46638 19.6967 5.76105C21.0231 5.05571 22.5529 4.83155 24.026 5.12668C25.4991 5.4218 26.8245 6.218 27.7768 7.37989C28.7292 8.54179 29.2497 9.99767 29.25 11.5C29.25 20 16.75 27 16.75 27C16.75 27 11.7569 24.2039 8.08219 20.0001" stroke="currentColor" stroke-width="2" stroke-linecap="round" stroke-linejoin="round"/>
</svg>
