<svg width="16" height="15" viewBox="0 0 16 15" fill="none" xmlns="http://www.w3.org/2000/svg">
<path d="M0.368591 5.58678C0.368591 8.80358 3.07311 11.9827 7.27679 14.6948C7.51033 14.8454 7.7966 14.9961 7.99247 14.9961C8.18835 14.9961 8.47462 14.8454 8.70816 14.6948C12.9194 11.9827 15.6164 8.80358 15.6164 5.58678C15.6164 2.80693 13.6953 0.878357 11.2319 0.878357C9.79298 0.878357 8.67049 1.53377 7.99247 2.52819C7.32953 1.5413 6.19951 0.878357 4.76061 0.878357C2.28963 0.878357 0.368591 2.80693 0.368591 5.58678ZM1.92049 5.57925C1.92049 3.68081 3.17105 2.39259 4.85101 2.39259C6.20704 2.39259 6.96792 3.21374 7.44253 3.92942C7.65347 4.23829 7.7966 4.33623 7.99247 4.33623C8.19588 4.33623 8.32395 4.23076 8.54242 3.92942C9.0547 3.2288 9.78544 2.39259 11.1339 2.39259C12.8214 2.39259 14.072 3.68081 14.072 5.57925C14.072 8.23104 11.3147 11.1691 8.13561 13.2785C8.06781 13.3237 8.02261 13.3538 7.99247 13.3538C7.96234 13.3538 7.91714 13.3237 7.85687 13.2785C4.67774 11.1691 1.92049 8.23104 1.92049 5.57925Z" fill="#1C1C1E"/>
</svg>
