<svg width="24" height="24" viewBox="0 0 24 24" fill="none" xmlns="http://www.w3.org/2000/svg">
    <path fill-rule="evenodd" clip-rule="evenodd" d="M11.1 2.30189L3.6 7.96226C3.22229 8.24733 3 8.69471 3 9.16981V20.4906C3 21.3242 3.67157 22 4.5 22H8.5L8.64446 21.9931C9.40511 21.92 10 21.2752 10 20.4906V15.9623H14V20.4906C14 21.3242 14.6716 22 15.5 22H19.5C20.3284 22 21 21.3242 21 20.4906V9.16981C21 8.69471 20.7777 8.24733 20.4 7.96226L12.9 2.30189C12.3667 1.89937 11.6333 1.89937 11.1 2.30189ZM11.999 4.13736L19 9.42138V19.9874H16V15.4591C16 14.6255 15.3284 13.9497 14.5 13.9497H9.5L9.35554 13.9566C8.59489 14.0297 8 14.6745 8 15.4591V19.9874H5V9.42038L11.999 4.13736ZM9 10.9308H15C15.5523 10.9308 16 11.3813 16 11.9371C16 12.4929 15.5523 12.9434 15 12.9434H9C8.44772 12.9434 8 12.4929 8 11.9371C8 11.3813 8.44772 10.9308 9 10.9308Z" fill="currentColor"/>
</svg>
