<svg width="32" height="32" viewBox="0 0 32 32" fill="none" xmlns="http://www.w3.org/2000/svg">
<g clip-path="url(#clip0_1008_4240)">
<path d="M6.89562 29.0263C8.56566 22.0983 6.58316 21.8613 6.58316 18.4997C6.58316 17.3791 7.46667 14.6963 7.59596 13.3926C7.89764 10.3973 7.15421 11.1946 9.34141 8.97509L9.47071 5.8936C10.5697 4.83771 11.1192 3.88956 12.466 4.22357C13.2848 6.65859 11.7333 5.8936 11.5825 8.73805C12.4983 9.95556 13.1125 10.0741 13.802 11.604C14.6747 13.5434 14.0498 13.5219 15.6983 15.1488C18.1226 15.429 19.5879 15.4397 21.3226 13.6943C21.5057 11.8303 20.4283 11.9919 21.5273 10.2788C22.2815 9.10438 23.0249 8.46869 24.4364 8.94276C24.8997 10.7744 22.8202 11.1515 23.4667 13.1879C26.2572 13.468 26.9037 9.62155 29.037 9.42761C29.037 13.5327 24.7488 14.0714 24.6519 17.4114C24.5872 19.5017 26.4404 25.2552 28.3151 26.4835C29.9636 23.9515 31.7414 21.1933 31.9461 18.1333C33.3791 -2.74747 5.75354 -6.55084 0.506397 11.7333C0.237037 12.6707 0.0754209 13.6189 0 14.567V16.9912C0.4633 23.0034 4.1697 28.2828 6.89562 29.0263Z" fill="white"/>
<path d="M14.9764 31.8276C22.4431 32.7111 21.6566 30.4054 20.1805 21.9044C19.5987 18.5535 18.9199 16.7865 14.9441 17.099C12.466 20.0404 13.7158 25.7724 13.802 28.2828C13.8667 30.2653 13.5327 30.3946 14.9764 31.8276ZM23.5636 29.7805C24.8135 29.6296 25.029 29.371 26.0418 28.563C26.2034 26.8498 25.029 24.0916 23.1973 23.5421C22.3354 25.2014 22.5832 28.1535 23.5636 29.7805ZM11.2593 31.2027C11.2593 29.1125 11.5178 24.7919 10.4404 23.3051C9.00741 23.7253 9.44916 24.9535 9.43839 27.5717C9.42761 29.4896 9.07206 31.0088 11.2593 31.2027Z" fill="white"/>
</g>
<defs>
<clipPath id="clip0_1008_4240">
<rect width="32" height="32" fill="white"/>
</clipPath>
</defs>
</svg>
