<svg width="22" height="22" viewBox="0 0 22 22" fill="none" xmlns="http://www.w3.org/2000/svg">
<path d="M7.37425 10.8487L13.1399 6.67685C13.1679 6.65651 13.201 6.64432 13.2355 6.64164C13.27 6.63897 13.3046 6.6459 13.3355 6.66167C13.3663 6.67745 13.3921 6.70145 13.4101 6.73102C13.4282 6.76059 13.4376 6.79457 13.4375 6.8292V7.92841C13.4375 8.16747 13.3227 8.39482 13.1282 8.53544L9.72034 11.0011L13.1282 13.4667C13.3227 13.6073 13.4375 13.8323 13.4375 14.0737V15.1729C13.4375 15.3253 13.2641 15.4143 13.1399 15.3253L7.37425 11.1534C7.27112 11.0784 7.27112 10.9237 7.37425 10.8487Z" fill="#3D9645"/>
<path d="M11 0.5C16.7984 0.5 21.5 5.20156 21.5 11C21.5 16.7984 16.7984 21.5 11 21.5C5.20156 21.5 0.5 16.7984 0.5 11C0.5 5.20156 5.20156 0.5 11 0.5ZM11 19.7188C15.8141 19.7188 19.7188 15.8141 19.7188 11C19.7188 6.18594 15.8141 2.28125 11 2.28125C6.18594 2.28125 2.28125 6.18594 2.28125 11C2.28125 15.8141 6.18594 19.7188 11 19.7188Z" fill="#3D9645"/>
</svg>
