<svg width="20" height="17" viewBox="0 0 20 17" fill="none" xmlns="http://www.w3.org/2000/svg">
<path fill-rule="evenodd" clip-rule="evenodd" d="M10.8228 4.54254C10.4384 5.01516 9.72432 5.03716 9.31155 4.58909L8.52903 3.73965C7.55135 2.67835 6.62539 2 5.41667 2C3.26647 2 2 3.45056 2 5.16656C2 5.73538 2.33812 6.68268 3.22275 7.97725C4.06441 9.20895 5.22261 10.5003 6.43519 11.6998C7.63911 12.8908 8.85019 13.9457 9.76426 14.7055C9.86333 14.7878 9.95875 14.8665 10.0501 14.9415C10.1378 14.8687 10.2292 14.7924 10.324 14.7127C11.2275 13.9534 12.4245 12.899 13.6145 11.7091C14.813 10.5107 15.9578 9.22063 16.7899 7.9906C17.6639 6.69846 18 5.75095 18 5.17975C18 3.45716 16.7269 2 14.5833 2C13.337 2 12.2887 2.74031 11.5516 3.64654L10.8228 4.54254ZM8.51757 1.03857C7.67597 0.437978 6.66323 0 5.41667 0C2.19502 0 0 2.31315 0 5.16656C0 8.91549 6.21469 14.3916 8.87355 16.563C9.56675 17.1291 10.5462 17.1261 11.2362 16.556C13.8695 14.3804 20 8.91425 20 5.17975C20 2.32635 17.805 0 14.5833 0C13.3535 0 12.3055 0.428938 11.4601 1.01772C10.8735 1.42633 10.3844 1.91193 10 2.38456C9.57033 1.91815 9.08251 1.44172 8.51757 1.03857Z" fill="#C4C4C4"/>
</svg>
