<svg width="22" height="18" viewBox="0 0 22 18" fill="none" xmlns="http://www.w3.org/2000/svg">
<path d="M19.7286 1.59154C19.2243 1.08697 18.6255 0.686718 17.9665 0.413637C17.3074 0.140555 16.601 0 15.8876 0C15.1742 0 14.4678 0.140555 13.8088 0.413637C13.1497 0.686718 12.5509 1.08697 12.0466 1.59154L10.9999 2.63819L9.95325 1.59154C8.93455 0.572831 7.55289 0.000528031 6.11222 0.000528041C4.67155 0.000528052 3.28989 0.572831 2.27118 1.59154C1.25248 2.61024 0.680176 3.9919 0.680176 5.43257C0.680176 6.87324 1.25248 8.2549 2.27118 9.27361L3.31784 10.3203L10.9999 18.0023L18.682 10.3203L19.7286 9.27361C20.2332 8.76928 20.6335 8.17048 20.9065 7.51143C21.1796 6.85237 21.3202 6.14596 21.3202 5.43257C21.3202 4.71918 21.1796 4.01277 20.9065 3.35372C20.6335 2.69466 20.2332 2.09586 19.7286 1.59154Z" fill="#F62F5A"/>
</svg>
