<svg width="20" height="24" viewBox="0 0 20 24" fill="none" xmlns="http://www.w3.org/2000/svg">
<path fill-rule="evenodd" clip-rule="evenodd" d="M15.304 5.19561C16.0006 5.89208 16.5534 6.71895 16.9303 7.62903C17.3074 8.5391 17.5014 9.51453 17.5014 10.4996C17.5014 11.4847 17.3074 12.4601 16.9303 13.3702C16.5534 14.2803 16.0006 15.1071 15.304 15.8036L10 21.1046L4.696 15.8021C3.99948 15.1056 3.44695 14.2787 3.07 13.3686C2.69304 12.4586 2.49901 11.4831 2.49901 10.4981C2.49901 9.51306 2.69304 8.53767 3.07 7.62761C3.44695 6.71754 3.99948 5.89064 4.696 5.19411C5.39254 4.49757 6.21944 3.94506 7.12949 3.56809C8.03956 3.19113 9.01497 2.99712 10 2.99712C10.9851 2.99712 11.9604 3.19113 12.8705 3.56809C13.7806 3.94506 14.6074 4.49757 15.304 5.19411V5.19561ZM16.894 17.3936C18.2577 16.0301 19.1863 14.2928 19.5627 12.4015C19.9389 10.5101 19.7458 8.54967 19.0079 6.76805C18.2699 4.98642 17.0203 3.46364 15.417 2.39225C13.8135 1.32087 11.9284 0.749023 10 0.749023C8.0716 0.749023 6.1865 1.32087 4.58311 2.39225C2.97971 3.46364 1.73003 4.98642 0.992095 6.76805C0.25417 8.54967 0.0611349 10.5101 0.43741 12.4015C0.813685 14.2928 1.74236 16.0301 3.106 17.3936L8.4085 22.6976C8.61745 22.9067 8.86555 23.0726 9.13864 23.1857C9.41171 23.2989 9.70441 23.3571 10 23.3571C10.2956 23.3571 10.5883 23.2989 10.8614 23.1857C11.1344 23.0726 11.3826 22.9067 11.5915 22.6976L16.894 17.3936ZM10 13.4996C10.7957 13.4996 11.5587 13.1835 12.1213 12.6209C12.6839 12.0583 13 11.2953 13 10.4996C13 9.70395 12.6839 8.9409 12.1213 8.37828C11.5587 7.81568 10.7957 7.49961 10 7.49961C9.20436 7.49961 8.44129 7.81568 7.87868 8.37828C7.31608 8.9409 7 9.70395 7 10.4996C7 11.2953 7.31608 12.0583 7.87868 12.6209C8.44129 13.1835 9.20436 13.4996 10 13.4996Z" fill="white"/>
</svg>
