<svg width="131" height="32" viewBox="0 0 131 32" fill="none" xmlns="http://www.w3.org/2000/svg">
<path d="M0 11.3216C0 7.4969 0 5.58454 0.767897 4.13424C1.38758 2.96385 2.34471 2.00672 3.5151 1.38704C4.9654 0.619141 6.87775 0.619141 10.7025 0.619141H19.8524C23.6771 0.619141 25.5894 0.619141 27.0397 1.38704C28.2101 2.00672 29.1673 2.96385 29.7869 4.13424C30.5548 5.58454 30.5548 7.49689 30.5548 11.3216V20.4715C30.5548 24.2962 30.5548 26.2086 29.7869 27.6589C29.1673 28.8293 28.2101 29.7864 27.0397 30.4061C25.5894 31.174 23.6771 31.174 19.8524 31.174H10.7025C6.87776 31.174 4.9654 31.174 3.5151 30.4061C2.34471 29.7864 1.38758 28.8293 0.767897 27.6589C0 26.2086 0 24.2962 0 20.4715V11.3216Z" fill="#AEEFA2"/>
<path d="M6.76251 11.0121L6.9057 10.76C7.49638 9.58931 8.05126 9.44523 9.21472 10.1116L13.4032 12.597V7.64423C13.4032 6.40154 13.8328 5.9873 15.1573 5.9873H15.4258C16.7325 5.9873 17.162 6.40154 17.162 7.64423V12.597L21.3505 10.1116C22.514 9.42722 23.0688 9.58931 23.6595 10.76L23.8027 11.0121C24.4113 12.1647 24.2502 12.723 23.1762 13.2994L18.773 15.7127L23.1941 18.2521C24.2323 18.8645 24.3576 19.4048 23.7669 20.5574L23.6416 20.7915C23.0509 21.9622 22.4961 22.1063 21.3684 21.4399L17.162 18.9545V23.9073C17.162 25.186 16.7325 25.6002 15.4258 25.6002H15.1573C13.8328 25.6002 13.4032 25.186 13.4032 23.9073V18.9545L9.17892 21.4399C8.10496 22.0883 7.55008 21.9442 6.9057 20.7915L6.78041 20.5574C6.13603 19.4228 6.29712 18.8825 7.37109 18.2521L11.7743 15.7127L7.38898 13.2994C6.31502 12.723 6.15393 12.1647 6.76251 11.0121Z" fill="#193914"/>
<path d="M52.1478 12.3085C52.0728 11.5515 51.7506 10.9634 51.1813 10.5443C50.6119 10.1251 49.8393 9.91554 48.8634 9.91554C48.2002 9.91554 47.6403 10.0094 47.1836 10.1971C46.7269 10.3785 46.3766 10.6319 46.1326 10.9572C45.8948 11.2825 45.776 11.6516 45.776 12.0645C45.7635 12.4086 45.8354 12.7089 45.9918 12.9654C46.1545 13.2219 46.3766 13.444 46.6581 13.6317C46.9396 13.8131 47.2649 13.9726 47.634 14.1103C48.0032 14.2416 48.3973 14.3542 48.8164 14.4481L50.5431 14.861C51.3815 15.0487 52.151 15.2989 52.8516 15.6117C53.5523 15.9245 54.1592 16.3093 54.6722 16.766C55.1852 17.2227 55.5824 17.7607 55.864 18.3801C56.1517 18.9994 56.2988 19.7095 56.305 20.5103C56.2988 21.6864 55.9985 22.7062 55.4041 23.5695C54.8161 24.4266 53.9652 25.0929 52.8516 25.5683C51.7443 26.0375 50.4086 26.2721 48.8446 26.2721C47.2931 26.2721 45.9418 26.0344 44.7906 25.5589C43.6458 25.0835 42.7511 24.3797 42.1068 23.4475C41.4686 22.5091 41.1339 21.3486 41.1027 19.966H45.0346C45.0784 20.6104 45.263 21.1484 45.5883 21.5801C45.9199 22.0055 46.3609 22.3277 46.9115 22.5466C47.4683 22.7593 48.097 22.8657 48.7977 22.8657C49.4858 22.8657 50.0833 22.7656 50.5901 22.5654C51.1031 22.3652 51.5003 22.0868 51.7818 21.7302C52.0634 21.3736 52.2041 20.9638 52.2041 20.5009C52.2041 20.0692 52.0759 19.7064 51.8194 19.4123C51.5691 19.1183 51.2 18.868 50.712 18.6616C50.2303 18.4551 49.6391 18.2674 48.9384 18.0985L46.8458 17.573C45.2254 17.1789 43.9461 16.5627 43.0076 15.7243C42.0692 14.886 41.6031 13.7568 41.6094 12.3367C41.6031 11.173 41.9128 10.1564 42.5384 9.2868C43.1703 8.4172 44.0368 7.73841 45.1379 7.25044C46.2389 6.76246 47.4902 6.51847 48.8915 6.51847C50.3179 6.51847 51.5629 6.76246 52.6264 7.25044C53.6962 7.73841 54.5283 8.4172 55.1226 9.2868C55.7169 10.1564 56.0235 11.1636 56.0423 12.3085H52.1478Z" fill="#030602"/>
<path d="M63.0733 26.2721C62.1537 26.2721 61.3341 26.1126 60.6147 25.7935C59.8952 25.4682 59.3259 24.9896 58.9068 24.3578C58.4939 23.7196 58.2874 22.9251 58.2874 21.9742C58.2874 21.1734 58.4344 20.5009 58.7285 19.9566C59.0225 19.4123 59.4229 18.9744 59.9296 18.6428C60.4364 18.3112 61.012 18.061 61.6563 17.8921C62.307 17.7232 62.9889 17.6043 63.7021 17.5355C64.5404 17.4479 65.2161 17.3666 65.7291 17.2915C66.2421 17.2102 66.6143 17.0913 66.8458 16.9349C67.0772 16.7785 67.193 16.547 67.193 16.2405V16.1842C67.193 15.5898 67.0053 15.13 66.6299 14.8047C66.2608 14.4794 65.7353 14.3167 65.0534 14.3167C64.3339 14.3167 63.7615 14.4762 63.3361 14.7953C62.9107 15.1081 62.6292 15.5022 62.4915 15.9777L58.7942 15.6774C58.9818 14.8016 59.351 14.0446 59.9015 13.4065C60.452 12.7621 61.1621 12.2678 62.0317 11.9238C62.9076 11.5734 63.921 11.3982 65.0722 11.3982C65.8729 11.3982 66.6393 11.4921 67.3713 11.6798C68.1095 11.8674 68.7633 12.1584 69.3326 12.5525C69.9081 12.9466 70.3617 13.4534 70.6933 14.0727C71.0249 14.6858 71.1906 15.4209 71.1906 16.278V26H67.3994V24.0012H67.2868C67.0554 24.4516 66.7457 24.8489 66.3578 25.193C65.9699 25.5308 65.5038 25.7967 64.9596 25.9906C64.4153 26.1783 63.7865 26.2721 63.0733 26.2721ZM64.2182 23.5132C64.8063 23.5132 65.3255 23.3975 65.776 23.166C66.2264 22.9282 66.5799 22.6092 66.8364 22.2088C67.0929 21.8084 67.2211 21.3548 67.2211 20.8481V19.3185C67.096 19.3998 66.924 19.4749 66.705 19.5437C66.4923 19.6063 66.2514 19.6657 65.9824 19.722C65.7134 19.772 65.4444 19.819 65.1754 19.8628C64.9064 19.9003 64.6624 19.9347 64.4434 19.966C63.9742 20.0348 63.5644 20.1443 63.2141 20.2944C62.8638 20.4446 62.5916 20.6479 62.3977 20.9044C62.2037 21.1546 62.1068 21.4674 62.1068 21.8428C62.1068 22.3871 62.3038 22.8031 62.698 23.0909C63.0984 23.3724 63.6051 23.5132 64.2182 23.5132Z" fill="#030602"/>
<path d="M83.5355 19.8628V11.5859H87.5332V26H83.695V23.3818H83.5449C83.2196 24.2264 82.6784 24.9052 81.9214 25.4182C81.1707 25.9312 80.2542 26.1877 79.1719 26.1877C78.2084 26.1877 77.3607 25.9687 76.6288 25.5308C75.8968 25.0929 75.3244 24.4704 74.9115 23.6633C74.5048 22.8563 74.2984 21.8897 74.2921 20.7636V11.5859H78.2898V20.0504C78.296 20.9013 78.5244 21.5738 78.9748 22.068C79.4252 22.5623 80.029 22.8094 80.7859 22.8094C81.2677 22.8094 81.7181 22.6999 82.1373 22.4809C82.5564 22.2557 82.8943 21.9241 83.1508 21.4862C83.4135 21.0483 83.5418 20.5071 83.5355 19.8628Z" fill="#030602"/>
<path d="M94.7285 17.6669V26H90.7308V11.5859H94.5408V14.129H94.7097C95.0288 13.2907 95.5637 12.6276 96.3144 12.1396C97.0651 11.6454 97.9754 11.3982 99.0452 11.3982C100.046 11.3982 100.919 11.6172 101.663 12.0551C102.408 12.4931 102.987 13.1187 103.399 13.932C103.812 14.739 104.019 15.7024 104.019 16.8223V26H100.021V17.5355C100.027 16.6534 99.8022 15.9652 99.3455 15.471C98.8888 14.9705 98.26 14.7202 97.4593 14.7202C96.9212 14.7202 96.4458 14.836 96.0329 15.0674C95.6262 15.2989 95.3072 15.6368 95.0757 16.0809C94.8505 16.5189 94.7347 17.0475 94.7285 17.6669Z" fill="#030602"/>
<path fill-rule="evenodd" clip-rule="evenodd" d="M113.738 26.2815C112.256 26.2815 110.98 25.9812 109.91 25.3806C108.846 24.7738 108.027 23.9167 107.451 22.8094C106.875 21.6958 106.588 20.3789 106.588 18.8587C106.588 17.376 106.875 16.0747 107.451 14.9548C108.027 13.835 108.837 12.9623 109.882 12.3367C110.933 11.711 112.165 11.3982 113.579 11.3982C114.53 11.3982 115.415 11.5515 116.235 11.8581C117.06 12.1584 117.78 12.6119 118.393 13.2188C119.012 13.8256 119.494 14.5889 119.838 15.5085C120.182 16.4219 120.354 17.4917 120.354 18.7179V19.8158L110.538 19.8252C110.538 20.5384 110.67 21.1546 110.933 21.6739C111.202 22.1932 111.58 22.5935 112.068 22.8751C112.556 23.1566 113.135 23.2974 113.804 23.2974C114.248 23.2974 114.655 23.2348 115.024 23.1097C115.393 22.9846 115.709 22.7969 115.972 22.5466C116.235 22.2964 116.435 21.9898 116.572 21.627L120.27 21.871C120.082 22.7593 119.697 23.5351 119.116 24.1982C118.54 24.8551 117.796 25.3681 116.882 25.7372C115.975 26.1001 114.927 26.2815 113.738 26.2815ZM116.591 17.3384L110.538 17.4698C110.545 16.9005 110.679 16.3844 110.942 15.9214C111.205 15.4522 111.568 15.08 112.031 14.8047C112.5 14.5232 113.038 14.3824 113.645 14.3824C114.226 14.3824 114.736 14.5107 115.174 14.7672C115.618 15.0174 115.966 15.3646 116.216 15.8088C116.466 16.253 116.591 16.7629 116.591 17.3384Z" fill="#030602"/>
<path d="M130.63 11.5859V14.5889H127.918V21.5707C127.918 21.9398 127.974 22.2276 128.087 22.434C128.199 22.6342 128.356 22.775 128.556 22.8563C128.762 22.9376 129 22.9783 129.269 22.9783C129.457 22.9783 129.645 22.9627 129.832 22.9314C130.02 22.8938 130.164 22.8657 130.264 22.8469L130.893 25.8217C130.693 25.8843 130.411 25.9562 130.048 26.0375C129.685 26.1251 129.244 26.1783 128.725 26.1971C127.762 26.2346 126.917 26.1064 126.191 25.8123C125.472 25.5183 124.912 25.0616 124.511 24.4422C124.111 23.8229 123.914 23.0409 123.92 22.0962V14.5889H121.95V11.5859H123.92V8.13255H127.918V11.5859H130.63Z" fill="#030602"/>
</svg>
