<svg width="24" height="24" viewBox="0 0 24 24" fill="none" xmlns="http://www.w3.org/2000/svg">
<path fill-rule="evenodd" clip-rule="evenodd" d="M10.5 4C10.2239 4 10 4.22386 10 4.5V9C10 9.55228 9.55228 10 9 10H4.5C4.22386 10 4 10.2239 4 10.5V13.5C4 13.7761 4.22386 14 4.5 14H9C9.55228 14 10 14.4477 10 15V19.5C10 19.7761 10.2239 20 10.5 20H13.5C13.7761 20 14 19.7761 14 19.5V15C14 14.4477 14.4477 14 15 14H19.5C19.7761 14 20 13.7761 20 13.5V10.5C20 10.2239 19.7761 10 19.5 10H15C14.4477 10 14 9.55228 14 9V4.5C14 4.22386 13.7761 4 13.5 4H10.5ZM8 4.5C8 3.11929 9.11929 2 10.5 2H13.5C14.8807 2 16 3.11929 16 4.5V8H19.5C20.8807 8 22 9.11929 22 10.5V13.5C22 14.8807 20.8807 16 19.5 16H16V19.5C16 20.8807 14.8807 22 13.5 22H10.5C9.11929 22 8 20.8807 8 19.5V16H4.5C3.11929 16 2 14.8807 2 13.5V10.5C2 9.11929 3.11929 8 4.5 8H8V4.5Z" fill="currentColor"/>
</svg>
