<svg width="18" height="18" viewBox="0 0 18 18" fill="none" xmlns="http://www.w3.org/2000/svg">
<path d="M1.5 4.5L16.5 4.5C16.9142 4.5 17.25 4.83579 17.25 5.25L17.25 15.75C17.25 16.1642 16.9142 16.5 16.5 16.5L1.5 16.5C1.08579 16.5 0.749999 16.1642 0.749999 15.75L0.749998 5.25C0.749998 4.83579 1.08578 4.5 1.5 4.5Z" stroke="#F52F57" stroke-width="1.5" stroke-linecap="round" stroke-linejoin="round"/>
<path d="M11.25 4.50049L11.25 2.25049C11.25 2.05158 11.171 1.86081 11.0303 1.72016C10.8897 1.57951 10.6989 1.50049 10.5 1.50049L7.5 1.50049C7.30109 1.50049 7.11032 1.57951 6.96967 1.72016C6.82902 1.86081 6.75 2.05158 6.75 2.25049L6.75 4.50049" stroke="#F62F5A" stroke-width="1.5" stroke-linecap="round" stroke-linejoin="round"/>
<path d="M8.99976 7.5L8.99976 12" stroke="#F62F5A" stroke-width="2.10938" stroke-linecap="round" stroke-linejoin="round"/>
<path d="M11.25 9.75049L6.75 9.75049" stroke="#F62F5A" stroke-width="2.10938" stroke-linecap="round" stroke-linejoin="round"/>
</svg>
