<svg width="24" height="24" viewBox="0 0 24 24" fill="none" xmlns="http://www.w3.org/2000/svg">
<path d="M9.74994 5.25001C9.7372 4.95113 9.78669 4.65287 9.89525 4.37413C10.0038 4.09538 10.1691 3.84222 10.3806 3.6307C10.5922 3.41917 10.8453 3.25389 11.1241 3.14532C11.4028 3.03675 11.7011 2.98727 11.9999 3.00001C12.2988 2.98727 12.5971 3.03675 12.8758 3.14532C13.1546 3.25389 13.4077 3.41917 13.6192 3.6307C13.8308 3.84222 13.9961 4.09538 14.1046 4.37413C14.2132 4.65287 14.2627 4.95113 14.2499 5.25001L15.7499 5.25001L15.7499 7.50001L8.24994 7.50001L8.24994 5.25001L9.74994 5.25001Z" stroke="currentColor" stroke-width="1.5" stroke-linecap="round" stroke-linejoin="round"/>
<path d="M15.75 6.00001L18 6.00001C18.1878 5.99924 18.369 6.06893 18.5078 6.1953C18.6467 6.32166 18.7331 6.49551 18.75 6.68251L18.75 20.3175C18.7331 20.5045 18.6467 20.6784 18.5078 20.8047C18.369 20.9311 18.1878 21.0008 18 21L6 21C5.81225 21.0008 5.63104 20.9311 5.49218 20.8047C5.35331 20.6784 5.2669 20.5045 5.25 20.3175L5.25 6.68251C5.2669 6.49552 5.35331 6.32166 5.49217 6.1953C5.63104 6.06893 5.81225 5.99925 6 6.00001L8.25 6.00001" stroke="currentColor" stroke-width="1.5" stroke-linecap="round" stroke-linejoin="round"/>
<path d="M15.7499 10.5L14.2499 10.5" stroke="currentColor" stroke-width="1.5" stroke-linecap="round" stroke-linejoin="round"/>
<path d="M15.7499 13.5L14.2499 13.5" stroke="currentColor" stroke-width="1.5" stroke-linecap="round" stroke-linejoin="round"/>
<path d="M11.25 10.5L8.25 10.5" stroke="currentColor" stroke-width="1.5" stroke-linecap="round" stroke-linejoin="round"/>
<path d="M11.25 13.5L8.25 13.5" stroke="currentColor" stroke-width="1.5" stroke-linecap="round" stroke-linejoin="round"/>
<path d="M9.74994 15.7495L9.74994 18.7495" stroke="currentColor" stroke-width="1.5" stroke-linecap="round" stroke-linejoin="round"/>
<path d="M11.25 17.25L8.25 17.25" stroke="currentColor" stroke-width="1.5" stroke-linecap="round" stroke-linejoin="round"/>
</svg>
