<svg width="25" height="24" viewBox="0 0 25 24" fill="none" xmlns="http://www.w3.org/2000/svg">
    <path d="M7 17.2222V2.77778C7 1.79594 7.79594 1 8.77778 1H17.2222C18.2041 1 19 1.79594 19 2.77778V17.2222C19 18.2041 18.2041 19 17.2222 19H8.77778C7.79594 19 7 18.2041 7 17.2222Z" fill="currentColor"/>
    <path d="M5 18.2222V5.77778C5 4.79594 5.79594 4 6.77778 4H19.2222C20.2041 4 21 4.79594 21 5.77778V18.2222C21 19.2041 20.2041 20 19.2222 20H6.77778C5.79594 20 5 19.2041 5 18.2222Z" fill="white" stroke="currentColor" stroke-width="2.13333"/>
    <path d="M16.3013 11.9815C16.307 11.9848 16.309 11.9869 16.3092 11.9871L16.3096 11.9876C16.31 11.9884 16.312 11.9927 16.312 12C16.312 12.0073 16.31 12.0116 16.3096 12.0124L16.3092 12.0129L16.3092 12.0129C16.3089 12.0132 16.3069 12.0153 16.3013 12.0185L11.3654 14.8682C11.3598 14.8715 11.3569 14.8722 11.3566 14.8723L11.3566 14.8723L11.3559 14.8724C11.355 14.8724 11.3503 14.8719 11.344 14.8682C11.3377 14.8646 11.335 14.8608 11.3345 14.86L11.3342 14.8594L11.3342 14.8594C11.3341 14.8591 11.3333 14.8562 11.3333 14.8497L11.3333 9.15026C11.3333 9.14369 11.3342 9.14087 11.3342 9.14064L11.3345 9.14C11.335 9.13919 11.3377 9.13541 11.344 9.13175C11.3503 9.1281 11.355 9.12763 11.3559 9.12762L11.3566 9.12771C11.3568 9.12777 11.3597 9.12847 11.3654 9.13175L16.3013 11.9815Z" stroke="currentColor" stroke-width="1.66667"/>
</svg>
