<svg width="16" height="16" viewBox="0 0 16 16" fill="none" xmlns="http://www.w3.org/2000/svg">
<path d="M1.5 8.25L4 10.75L9.5 5.25" stroke="#007AFF" stroke-width="2" stroke-linecap="round" stroke-linejoin="round"/>
<path d="M9.106 9.43407L8.40341 8.72247L6.98022 10.1277L7.68281 10.8392L9.106 9.43407ZM8.99999 10.75L8.2884 11.4526C8.47551 11.6421 8.73049 11.7491 8.99681 11.75C9.26313 11.7508 9.51878 11.6454 9.7071 11.4571L8.99999 10.75ZM15.2071 5.95711C15.5976 5.56658 15.5976 4.93342 15.2071 4.54289C14.8166 4.15237 14.1834 4.15237 13.7929 4.54289L15.2071 5.95711ZM7.68281 10.8392L8.2884 11.4526L9.71159 10.0474L9.106 9.43407L7.68281 10.8392ZM9.7071 11.4571L15.2071 5.95711L13.7929 4.54289L8.29288 10.0429L9.7071 11.4571Z" fill="#007AFF"/>
</svg>
