<svg width="35" height="34" viewBox="0 0 35 34" fill="none" xmlns="http://www.w3.org/2000/svg">
<path d="M18.9931 27.4499V29.3941C18.9931 30.1993 18.3245 30.8521 17.4996 30.8521C16.6747 30.8521 16.0061 30.1993 16.0061 29.3941V27.4499V27.349C10.8016 26.6396 6.7959 22.2767 6.7959 17.0003C6.7959 16.6358 7.01992 15.9067 7.91605 15.9067C8.81217 15.9067 9.03621 16.6358 9.03621 17.0003C9.03621 21.5635 12.8254 25.2628 17.4996 25.2628C19.0298 25.2628 20.4652 24.8663 21.7038 24.1729C23.1777 23.3477 24.373 22.102 25.118 20.6035C25.6594 19.5145 25.963 18.292 25.963 17.0003C25.963 16.6358 26.187 15.9067 27.0831 15.9067C27.9793 15.9067 28.2033 16.6358 28.2033 17.0003C28.2033 18.9017 27.6831 20.6844 26.7742 22.2204C25.8121 23.8459 24.4146 25.195 22.7372 26.1156C21.6014 26.7389 20.3372 27.1658 18.9931 27.349L18.9931 27.4499Z" fill="currentColor"/>
<path d="M17.4996 3.14844C20.3866 3.14844 22.727 5.43327 22.727 8.25175V17.6149C22.6268 20.3473 20.3263 22.5324 17.503 22.5324C14.616 22.5324 12.2756 20.2476 12.2756 17.4291V8.06594C12.3758 5.33353 14.6763 3.14844 17.4996 3.14844Z" fill="currentColor"/>
</svg>
