<svg width="32" height="32" viewBox="0 0 32 32" fill="none" xmlns="http://www.w3.org/2000/svg">
    <path fill-rule="evenodd" clip-rule="evenodd" d="M2.99157 2.99206C3.425 2.55864 4.12514 2.55864 4.55856 2.99206L13.3601 11.7936C13.3948 11.821 13.4284 11.8508 13.4604 11.8829L19.1505 17.5729C19.1823 17.6047 19.2117 17.6379 19.2388 17.6723L22.0952 20.5287C22.1788 20.5761 22.2575 20.6355 22.3289 20.7069C22.4015 20.7795 22.4622 20.8595 22.511 20.9445L29.0081 27.4416C29.4415 27.875 29.4415 28.5752 29.0081 29.0086C28.5747 29.442 27.8745 29.442 27.4411 29.0086L21.4778 23.0452C20.3946 23.8949 19.1277 24.4853 17.7724 24.7633C17.5548 24.808 17.3361 24.8444 17.1168 24.8726V27.1081H20.4507C21.062 27.1081 21.5621 27.6082 21.5621 28.2194C21.5621 28.8307 21.062 29.3308 20.4507 29.3308H16.0239C16.0177 29.3309 16.0116 29.3309 16.0054 29.3309C15.9992 29.3309 15.9931 29.3309 15.9869 29.3308H11.56C10.9488 29.3308 10.4487 28.8418 10.4487 28.2194C10.4487 27.6082 10.9488 27.1081 11.56 27.1081H14.8941V24.8786C14.1092 24.7819 13.3355 24.5801 12.5936 24.2743C10.9599 23.5964 9.55961 22.4517 8.58162 20.9736C7.61476 19.4955 7.10354 17.7619 7.11465 15.9948V13.7721C7.11465 13.1609 7.61476 12.6608 8.226 12.6608C8.83723 12.6608 9.33734 13.1609 9.33734 13.7721V16.0059C9.32622 17.3395 9.71519 18.6398 10.4487 19.74C11.1822 20.8403 12.2379 21.7071 13.4604 22.2183C14.1705 22.5126 14.9173 22.678 15.6714 22.7145C15.7769 22.681 15.8891 22.6629 16.0054 22.6629C16.1204 22.6629 16.2314 22.6806 16.3359 22.7134C16.6714 22.696 17.0067 22.6533 17.339 22.5851C18.2653 22.3951 19.1352 22.0133 19.8964 21.4639L18.2608 19.8283C17.8341 20.0786 17.3658 20.2564 16.8723 20.3513C16.5833 20.418 16.2944 20.4402 16.0054 20.4402C15.4275 20.4402 14.8496 20.3291 14.3051 20.0957C13.4938 19.7623 12.8047 19.1955 12.3158 18.462C11.8157 17.7396 11.56 16.8839 11.56 16.0059V13.1275L2.99157 4.55905C2.55815 4.12563 2.55815 3.42548 2.99157 2.99206ZM16.5741 18.1416L13.7943 15.3617L13.7827 15.3503V15.9948C13.7827 16.4394 13.9161 16.8617 14.1606 17.2284C14.4051 17.5952 14.7496 17.873 15.1608 18.0508C15.5609 18.2175 16.0054 18.262 16.4388 18.1731L16.4389 18.173C16.4809 18.1626 16.5228 18.1521 16.5741 18.1416ZM19.3394 14.15C18.7282 14.15 18.2281 13.6499 18.2281 13.0387V7.10409C18.2281 6.54842 18.0281 6.02609 17.6502 5.61489C17.2835 5.2037 16.7722 4.94809 16.2277 4.89252C15.6831 4.83695 15.1275 4.98143 14.6829 5.31483C14.2384 5.63712 13.9383 6.12611 13.8272 6.65955C13.7049 7.25968 13.1159 7.64865 12.5158 7.5264C11.9157 7.40415 11.5267 6.82625 11.649 6.22613C11.8712 5.14813 12.4825 4.19237 13.3715 3.53668C14.2606 2.88099 15.3608 2.58093 16.4611 2.69206C17.5613 2.8032 18.5726 3.31441 19.3172 4.13681C20.0396 4.94809 20.4508 6.00386 20.4508 7.1152V13.0498C20.4508 13.661 19.9507 14.15 19.3394 14.15ZM24.8961 13.7721C24.8961 13.1609 24.396 12.6608 23.7848 12.6608C23.1736 12.6608 22.6735 13.1609 22.6735 13.7721V15.9948C22.6735 16.3949 22.6401 16.7839 22.5623 17.1728C22.4512 17.773 22.8624 18.3509 23.4625 18.462C24.0626 18.5731 24.6405 18.1619 24.7517 17.5618C24.8517 17.0395 24.8961 16.5171 24.8961 15.9948V13.7721Z" fill="currentColor" fill-opacity="0.95"/>
</svg>
