<svg width="24" height="24" viewBox="0 0 24 24" fill="none" xmlns="http://www.w3.org/2000/svg">
<path fill-rule="evenodd" clip-rule="evenodd" d="M12.4447 1.40723C10.1944 1.40723 8.37059 3.23107 8.37059 5.4813V10.9813C8.37059 13.2315 10.1944 15.0554 12.4447 15.0554C14.6949 15.0554 16.5187 13.2315 16.5187 10.9813V5.4813C16.5187 3.23107 14.6949 1.40723 12.4447 1.40723ZM10.4076 5.4813C10.4076 4.35575 11.3191 3.44426 12.4447 3.44426C13.5702 3.44426 14.4817 4.35575 14.4817 5.4813V10.9813C14.4817 12.1069 13.5702 13.0183 12.4447 13.0183C11.3191 13.0183 10.4076 12.1069 10.4076 10.9813V5.4813Z" fill="currentColor"/>
<path d="M6.12985 10.7776C5.56751 10.7776 5.11133 11.2338 5.11133 11.7961C5.11133 15.0501 8.3092 17.747 11.4261 18.2352V20.5554H9.38911C8.82677 20.5554 8.37059 21.0116 8.37059 21.5739C8.37059 22.1362 8.82677 22.5924 9.38911 22.5924H15.5002C16.0626 22.5924 16.5187 22.1362 16.5187 21.5739C16.5187 21.0116 16.0626 20.5554 15.5002 20.5554H13.4633L13.4643 18.2351C16.58 17.7458 19.778 15.049 19.778 11.7961C19.778 11.2338 19.3218 10.7776 18.7595 10.7776C18.1971 10.7776 17.741 11.2338 17.741 11.7961C17.741 14.271 14.9195 16.2776 12.4447 16.2776C9.96978 16.2776 7.14837 14.271 7.14837 11.7961C7.14837 11.2338 6.69218 10.7776 6.12985 10.7776Z" fill="currentColor"/>
</svg>
