<svg width="24" height="24" viewBox="0 0 24 24" fill="none" xmlns="http://www.w3.org/2000/svg">
<g clip-path="url(#clip0_2031_3996)">
<path d="M7 17.875H15C15.4141 17.875 15.75 18.2109 15.75 18.625C15.75 19.0391 15.4141 19.375 15 19.375H7C6.5859 19.375 6.25 19.0391 6.25 18.625C6.25 18.2109 6.5859 17.875 7 17.875ZM19.5515 20.875H21C21.4141 20.875 21.75 21.2109 21.75 21.625C21.75 22.0391 21.4141 22.375 21 22.375H3C2.5859 22.375 2.25 22.0391 2.25 21.625C2.25 21.2109 2.5859 20.875 3 20.875H15.5C18.1191 20.875 20.25 18.7441 20.25 16.125C20.25 13.878 18.713 12.0097 16.589 11.5162C16.2166 12.594 15.203 13.375 14 13.375C12.4834 13.375 11.25 12.1416 11.25 10.625C11.25 9.1084 12.4834 7.875 14 7.875C15.2946 7.875 16.3757 8.7766 16.6666 9.983C19.6033 10.5302 21.75 13.0731 21.75 16.125C21.75 18.0256 20.8945 19.7278 19.5515 20.875ZM15.25 10.625C15.25 9.9355 14.6895 9.375 14 9.375C13.3105 9.375 12.75 9.9355 12.75 10.625C12.75 11.3145 13.3105 11.875 14 11.875C14.6895 11.875 15.25 11.3145 15.25 10.625ZM13.7371 6.6516C13.3945 6.0419 12.7492 5.625 12 5.625H10C8.8954 5.625 8 6.5204 8 7.625V13.625C8 14.7296 8.8954 15.625 10 15.625H12C12.7492 15.625 13.3945 15.2081 13.7371 14.5984C11.6555 14.4601 10 12.741 10 10.625C10 8.509 11.6555 6.7899 13.7371 6.6516ZM12 3.625C12.1685 3.625 12.3352 3.6378 12.5 3.6589V2.625C12.5 2.0727 12.0523 1.625 11.5 1.625H10.5C9.9477 1.625 9.5 2.0727 9.5 2.625V3.6755C9.6656 3.6545 9.8288 3.625 10 3.625H12Z" fill="#030602"/>
</g>
<defs>
<clipPath id="clip0_2031_3996">
<rect width="19.5" height="20.75" fill="white" transform="translate(2.25 1.625)"/>
</clipPath>
</defs>
</svg>
