<svg width="8" height="12" viewBox="0 0 8 12" fill="none" xmlns="http://www.w3.org/2000/svg">
<path d="M0.0908203 12V10.7969L4.08301 6.40625C4.58301 5.86458 4.96582 5.38021 5.23145 4.95312C5.50228 4.52083 5.6377 4.0599 5.6377 3.57031C5.6377 3.08594 5.48145 2.67188 5.16895 2.32812C4.85645 1.98438 4.41634 1.8125 3.84863 1.8125C3.28092 1.8125 2.80697 2 2.42676 2.375C2.05176 2.75 1.86426 3.28646 1.86426 3.98438V4.11719H0.0751953V3.96875C0.0751953 2.91667 0.429362 2.0599 1.1377 1.39844C1.84603 0.731771 2.74967 0.398438 3.84863 0.398438C4.95801 0.398438 5.83301 0.700521 6.47363 1.30469C7.11426 1.90365 7.43457 2.63021 7.43457 3.48438C7.43457 4.22917 7.23145 4.89844 6.8252 5.49219C6.41895 6.08594 5.92155 6.69792 5.33301 7.32812L2.36426 10.5234H7.71582V12H0.0908203Z" fill="#F62F5A"/>
</svg>
