<svg width="9" height="13" viewBox="0 0 9 13" fill="none" xmlns="http://www.w3.org/2000/svg">
<path d="M0.864258 8.97656V8.85938H2.62207V8.96875C2.62207 9.55729 2.80697 10.013 3.17676 10.3359C3.54655 10.6589 4.04655 10.8203 4.67676 10.8203C5.31217 10.8203 5.81217 10.6589 6.17676 10.3359C6.54134 10.0078 6.72363 9.5 6.72363 8.8125C6.72363 8.13021 6.5153 7.61719 6.09863 7.27344C5.68717 6.92969 5.11686 6.75781 4.3877 6.75781H3.44238V5.39844H4.31738C4.96842 5.39844 5.47103 5.23698 5.8252 4.91406C6.17936 4.58594 6.35645 4.125 6.35645 3.53125C6.35645 2.95312 6.2054 2.52083 5.90332 2.23438C5.60124 1.94792 5.18717 1.80469 4.66113 1.80469C4.10905 1.80469 3.67676 1.95052 3.36426 2.24219C3.05176 2.52865 2.89551 2.94271 2.89551 3.48438V3.57812H1.14551V3.48438C1.14551 2.61979 1.46582 1.88802 2.10645 1.28906C2.74707 0.690104 3.60384 0.390625 4.67676 0.390625C5.74447 0.390625 6.59082 0.674479 7.21582 1.24219C7.84082 1.80469 8.15332 2.51823 8.15332 3.38281C8.15332 3.9401 8.01009 4.45573 7.72363 4.92969C7.43717 5.40365 6.99186 5.76562 6.3877 6.01562V6.04688C7.03874 6.20833 7.55957 6.53385 7.9502 7.02344C8.34603 7.51302 8.54395 8.11979 8.54395 8.84375C8.54395 9.89062 8.18717 10.7161 7.47363 11.3203C6.7653 11.9245 5.8304 12.2266 4.66895 12.2266C3.46582 12.2266 2.53092 11.9245 1.86426 11.3203C1.19759 10.7161 0.864258 9.9349 0.864258 8.97656Z" fill="#F62F5A"/>
</svg>
