<svg xmlns="http://www.w3.org/2000/svg" width="18" height="18" viewBox="0 0 18 18" fill="none">
  <path d="M13.875 14.625H10.875" stroke="#E51A1A" stroke-width="1.5" stroke-linecap="round" stroke-linejoin="round"/>
  <path d="M12.375 16.125V13.125" stroke="#E51A1A" stroke-width="1.5" stroke-linecap="round" stroke-linejoin="round"/>
  <path d="M9.11995 8.1525C9.04495 8.145 8.95495 8.145 8.87245 8.1525C7.08745 8.0925 5.66995 6.63 5.66995 4.83C5.66245 2.9925 7.15495 1.5 8.99245 1.5C10.83 1.5 12.3225 2.9925 12.3225 4.83C12.3225 6.63 10.8974 8.0925 9.11995 8.1525Z" stroke="currentColor" stroke-width="1.5" stroke-linecap="round" stroke-linejoin="round"/>
  <path d="M8.9918 16.3573C7.6268 16.3573 6.2693 16.0123 5.2343 15.3223C3.4193 14.1073 3.4193 12.1273 5.2343 10.9198C7.2968 9.53977 10.6793 9.53977 12.7418 10.9198" stroke="currentColor" stroke-width="1.5" stroke-linecap="round" stroke-linejoin="round"/>
</svg>