<svg width="35" height="34" viewBox="0 0 35 34" fill="none" xmlns="http://www.w3.org/2000/svg">
<path d="M11.3839 14.9222C11.2218 14.9808 11.118 15.1356 11.118 15.3079V17.8604C11.118 18.6306 10.7647 19.3582 10.1595 19.8346L7.29446 22.0894C6.88062 22.4151 6.56258 22.6281 6.03675 22.6572C5.34548 22.6955 4.55382 22.3148 4.07784 21.8121L3.1158 20.7959C2.28262 19.9158 1.60173 18.7926 1.84075 17.6045C2.02629 16.6823 8.1493 11.333 16.8699 11.333C25.5905 11.333 31.7135 16.6822 31.899 17.6045C32.1381 18.7926 31.4572 19.9158 30.624 20.7959L29.662 21.8121C29.186 22.3148 28.3943 22.6955 27.703 22.6572C27.1772 22.6281 26.8592 22.4151 26.4453 22.0894L23.5803 19.8346C22.9751 19.3582 22.6218 18.6306 22.6218 17.8604V15.3013C22.6218 15.1323 22.5198 14.979 22.3625 14.9174C18.0284 13.22 13.5158 14.1514 11.3839 14.9222Z" fill="currentColor"/>
</svg>
