<svg width="106" height="106" viewBox="0 0 106 106" fill="none" xmlns="http://www.w3.org/2000/svg">
<path d="M0 0H4.24V4.24H0V0ZM4.24 0H8.48V4.24H4.24V0ZM8.48 0H12.72V4.24H8.48V0ZM12.72 0H16.96V4.24H12.72V0ZM16.96 0H21.2V4.24H16.96V0ZM21.2 0H25.44V4.24H21.2V0ZM25.44 0H29.68V4.24H25.44V0ZM46.64 0H50.88V4.24H46.64V0ZM59.36 0H63.6V4.24H59.36V0ZM63.6 0H67.84V4.24H63.6V0ZM67.84 0H72.08V4.24H67.84V0ZM76.32 0H80.56V4.24H76.32V0ZM80.56 0H84.8V4.24H80.56V0ZM84.8 0H89.04V4.24H84.8V0ZM89.04 0H93.28V4.24H89.04V0ZM93.28 0H97.52V4.24H93.28V0ZM97.52 0H101.76V4.24H97.52V0ZM101.76 0H106V4.24H101.76V0ZM0 4.24H4.24V8.48H0V4.24ZM25.44 4.24H29.68V8.48H25.44V4.24ZM38.16 4.24H42.4V8.48H38.16V4.24ZM55.12 4.24H59.36V8.48H55.12V4.24ZM59.36 4.24H63.6V8.48H59.36V4.24ZM67.84 4.24H72.08V8.48H67.84V4.24ZM76.32 4.24H80.56V8.48H76.32V4.24ZM101.76 4.24H106V8.48H101.76V4.24ZM0 8.48H4.24V12.72H0V8.48ZM8.48 8.48H12.72V12.72H8.48V8.48ZM12.72 8.48H16.96V12.72H12.72V8.48ZM16.96 8.48H21.2V12.72H16.96V8.48ZM25.44 8.48H29.68V12.72H25.44V8.48ZM38.16 8.48H42.4V12.72H38.16V8.48ZM42.4 8.48H46.64V12.72H42.4V8.48ZM50.88 8.48H55.12V12.72H50.88V8.48ZM59.36 8.48H63.6V12.72H59.36V8.48ZM63.6 8.48H67.84V12.72H63.6V8.48ZM76.32 8.48H80.56V12.72H76.32V8.48ZM84.8 8.48H89.04V12.72H84.8V8.48ZM89.04 8.48H93.28V12.72H89.04V8.48ZM93.28 8.48H97.52V12.72H93.28V8.48ZM101.76 8.48H106V12.72H101.76V8.48ZM0 12.72H4.24V16.96H0V12.72ZM8.48 12.72H12.72V16.96H8.48V12.72ZM12.72 12.72H16.96V16.96H12.72V12.72ZM16.96 12.72H21.2V16.96H16.96V12.72ZM25.44 12.72H29.68V16.96H25.44V12.72ZM33.92 12.72H38.16V16.96H33.92V12.72ZM38.16 12.72H42.4V16.96H38.16V12.72ZM50.88 12.72H55.12V16.96H50.88V12.72ZM59.36 12.72H63.6V16.96H59.36V12.72ZM63.6 12.72H67.84V16.96H63.6V12.72ZM76.32 12.72H80.56V16.96H76.32V12.72ZM84.8 12.72H89.04V16.96H84.8V12.72ZM89.04 12.72H93.28V16.96H89.04V12.72ZM93.28 12.72H97.52V16.96H93.28V12.72ZM101.76 12.72H106V16.96H101.76V12.72ZM0 16.96H4.24V21.2H0V16.96ZM8.48 16.96H12.72V21.2H8.48V16.96ZM12.72 16.96H16.96V21.2H12.72V16.96ZM16.96 16.96H21.2V21.2H16.96V16.96ZM25.44 16.96H29.68V21.2H25.44V16.96ZM42.4 16.96H46.64V21.2H42.4V16.96ZM46.64 16.96H50.88V21.2H46.64V16.96ZM50.88 16.96H55.12V21.2H50.88V16.96ZM55.12 16.96H59.36V21.2H55.12V16.96ZM59.36 16.96H63.6V21.2H59.36V16.96ZM76.32 16.96H80.56V21.2H76.32V16.96ZM84.8 16.96H89.04V21.2H84.8V16.96ZM89.04 16.96H93.28V21.2H89.04V16.96ZM93.28 16.96H97.52V21.2H93.28V16.96ZM101.76 16.96H106V21.2H101.76V16.96ZM0 21.2H4.24V25.44H0V21.2ZM25.44 21.2H29.68V25.44H25.44V21.2ZM33.92 21.2H38.16V25.44H33.92V21.2ZM46.64 21.2H50.88V25.44H46.64V21.2ZM67.84 21.2H72.08V25.44H67.84V21.2ZM76.32 21.2H80.56V25.44H76.32V21.2ZM101.76 21.2H106V25.44H101.76V21.2ZM0 25.44H4.24V29.68H0V25.44ZM4.24 25.44H8.48V29.68H4.24V25.44ZM8.48 25.44H12.72V29.68H8.48V25.44ZM12.72 25.44H16.96V29.68H12.72V25.44ZM16.96 25.44H21.2V29.68H16.96V25.44ZM21.2 25.44H25.44V29.68H21.2V25.44ZM25.44 25.44H29.68V29.68H25.44V25.44ZM33.92 25.44H38.16V29.68H33.92V25.44ZM42.4 25.44H46.64V29.68H42.4V25.44ZM50.88 25.44H55.12V29.68H50.88V25.44ZM59.36 25.44H63.6V29.68H59.36V25.44ZM67.84 25.44H72.08V29.68H67.84V25.44ZM76.32 25.44H80.56V29.68H76.32V25.44ZM80.56 25.44H84.8V29.68H80.56V25.44ZM84.8 25.44H89.04V29.68H84.8V25.44ZM89.04 25.44H93.28V29.68H89.04V25.44ZM93.28 25.44H97.52V29.68H93.28V25.44ZM97.52 25.44H101.76V29.68H97.52V25.44ZM101.76 25.44H106V29.68H101.76V25.44ZM33.92 29.68H38.16V33.92H33.92V29.68ZM38.16 29.68H42.4V33.92H38.16V29.68ZM42.4 29.68H46.64V33.92H42.4V29.68ZM59.36 29.68H63.6V33.92H59.36V29.68ZM63.6 29.68H67.84V33.92H63.6V29.68ZM67.84 29.68H72.08V33.92H67.84V29.68ZM4.24 33.92H8.48V38.16H4.24V33.92ZM8.48 33.92H12.72V38.16H8.48V33.92ZM25.44 33.92H29.68V38.16H25.44V33.92ZM55.12 33.92H59.36V38.16H55.12V33.92ZM59.36 33.92H63.6V38.16H59.36V33.92ZM67.84 33.92H72.08V38.16H67.84V33.92ZM76.32 33.92H80.56V38.16H76.32V33.92ZM80.56 33.92H84.8V38.16H80.56V33.92ZM89.04 33.92H93.28V38.16H89.04V33.92ZM4.24 38.16H8.48V42.4H4.24V38.16ZM8.48 38.16H12.72V42.4H8.48V38.16ZM16.96 38.16H21.2V42.4H16.96V38.16ZM29.68 38.16H33.92V42.4H29.68V38.16ZM42.4 38.16H46.64V42.4H42.4V38.16ZM46.64 38.16H50.88V42.4H46.64V38.16ZM50.88 38.16H55.12V42.4H50.88V38.16ZM55.12 38.16H59.36V42.4H55.12V38.16ZM59.36 38.16H63.6V42.4H59.36V38.16ZM63.6 38.16H67.84V42.4H63.6V38.16ZM67.84 38.16H72.08V42.4H67.84V38.16ZM76.32 38.16H80.56V42.4H76.32V38.16ZM80.56 38.16H84.8V42.4H80.56V38.16ZM89.04 38.16H93.28V42.4H89.04V38.16ZM97.52 38.16H101.76V42.4H97.52V38.16ZM101.76 38.16H106V42.4H101.76V38.16ZM25.44 42.4H29.68V46.64H25.44V42.4ZM46.64 42.4H50.88V46.64H46.64V42.4ZM63.6 42.4H67.84V46.64H63.6V42.4ZM72.08 42.4H76.32V46.64H72.08V42.4ZM80.56 42.4H84.8V46.64H80.56V42.4ZM89.04 42.4H93.28V46.64H89.04V42.4ZM93.28 42.4H97.52V46.64H93.28V42.4ZM101.76 42.4H106V46.64H101.76V42.4ZM0 46.64H4.24V50.88H0V46.64ZM4.24 46.64H8.48V50.88H4.24V46.64ZM16.96 46.64H21.2V50.88H16.96V46.64ZM29.68 46.64H33.92V50.88H29.68V46.64ZM38.16 46.64H42.4V50.88H38.16V46.64ZM42.4 46.64H46.64V50.88H42.4V46.64ZM55.12 46.64H59.36V50.88H55.12V46.64ZM63.6 46.64H67.84V50.88H63.6V46.64ZM72.08 46.64H76.32V50.88H72.08V46.64ZM80.56 46.64H84.8V50.88H80.56V46.64ZM89.04 46.64H93.28V50.88H89.04V46.64ZM0 50.88H4.24V55.12H0V50.88ZM4.24 50.88H8.48V55.12H4.24V50.88ZM12.72 50.88H16.96V55.12H12.72V50.88ZM25.44 50.88H29.68V55.12H25.44V50.88ZM29.68 50.88H33.92V55.12H29.68V50.88ZM33.92 50.88H38.16V55.12H33.92V50.88ZM38.16 50.88H42.4V55.12H38.16V50.88ZM42.4 50.88H46.64V55.12H42.4V50.88ZM55.12 50.88H59.36V55.12H55.12V50.88ZM63.6 50.88H67.84V55.12H63.6V50.88ZM67.84 50.88H72.08V55.12H67.84V50.88ZM76.32 50.88H80.56V55.12H76.32V50.88ZM80.56 50.88H84.8V55.12H80.56V50.88ZM101.76 50.88H106V55.12H101.76V50.88ZM8.48 55.12H12.72V59.36H8.48V55.12ZM12.72 55.12H16.96V59.36H12.72V55.12ZM16.96 55.12H21.2V59.36H16.96V55.12ZM42.4 55.12H46.64V59.36H42.4V55.12ZM46.64 55.12H50.88V59.36H46.64V55.12ZM50.88 55.12H55.12V59.36H50.88V55.12ZM63.6 55.12H67.84V59.36H63.6V55.12ZM67.84 55.12H72.08V59.36H67.84V55.12ZM76.32 55.12H80.56V59.36H76.32V55.12ZM80.56 55.12H84.8V59.36H80.56V55.12ZM97.52 55.12H101.76V59.36H97.52V55.12ZM101.76 55.12H106V59.36H101.76V55.12ZM0 59.36H4.24V63.6H0V59.36ZM4.24 59.36H8.48V63.6H4.24V59.36ZM12.72 59.36H16.96V63.6H12.72V59.36ZM21.2 59.36H25.44V63.6H21.2V59.36ZM25.44 59.36H29.68V63.6H25.44V59.36ZM33.92 59.36H38.16V63.6H33.92V59.36ZM38.16 59.36H42.4V63.6H38.16V59.36ZM42.4 59.36H46.64V63.6H42.4V59.36ZM50.88 59.36H55.12V63.6H50.88V59.36ZM63.6 59.36H67.84V63.6H63.6V59.36ZM67.84 59.36H72.08V63.6H67.84V59.36ZM76.32 59.36H80.56V63.6H76.32V59.36ZM89.04 59.36H93.28V63.6H89.04V59.36ZM93.28 59.36H97.52V63.6H93.28V59.36ZM101.76 59.36H106V63.6H101.76V59.36ZM8.48 63.6H12.72V67.84H8.48V63.6ZM12.72 63.6H16.96V67.84H12.72V63.6ZM16.96 63.6H21.2V67.84H16.96V63.6ZM29.68 63.6H33.92V67.84H29.68V63.6ZM42.4 63.6H46.64V67.84H42.4V63.6ZM59.36 63.6H63.6V67.84H59.36V63.6ZM63.6 63.6H67.84V67.84H63.6V63.6ZM67.84 63.6H72.08V67.84H67.84V63.6ZM72.08 63.6H76.32V67.84H72.08V63.6ZM76.32 63.6H80.56V67.84H76.32V63.6ZM80.56 63.6H84.8V67.84H80.56V63.6ZM84.8 63.6H89.04V67.84H84.8V63.6ZM89.04 63.6H93.28V67.84H89.04V63.6ZM0 67.84H4.24V72.08H0V67.84ZM4.24 67.84H8.48V72.08H4.24V67.84ZM8.48 67.84H12.72V72.08H8.48V67.84ZM16.96 67.84H21.2V72.08H16.96V67.84ZM25.44 67.84H29.68V72.08H25.44V67.84ZM33.92 67.84H38.16V72.08H33.92V67.84ZM46.64 67.84H50.88V72.08H46.64V67.84ZM67.84 67.84H72.08V72.08H67.84V67.84ZM72.08 67.84H76.32V72.08H72.08V67.84ZM76.32 67.84H80.56V72.08H76.32V67.84ZM80.56 67.84H84.8V72.08H80.56V67.84ZM84.8 67.84H89.04V72.08H84.8V67.84ZM97.52 67.84H101.76V72.08H97.52V67.84ZM33.92 72.08H38.16V76.32H33.92V72.08ZM38.16 72.08H42.4V76.32H38.16V72.08ZM42.4 72.08H46.64V76.32H42.4V72.08ZM46.64 72.08H50.88V76.32H46.64V72.08ZM55.12 72.08H59.36V76.32H55.12V72.08ZM59.36 72.08H63.6V76.32H59.36V72.08ZM67.84 72.08H72.08V76.32H67.84V72.08ZM84.8 72.08H89.04V76.32H84.8V72.08ZM101.76 72.08H106V76.32H101.76V72.08ZM0 76.32H4.24V80.56H0V76.32ZM4.24 76.32H8.48V80.56H4.24V76.32ZM8.48 76.32H12.72V80.56H8.48V76.32ZM12.72 76.32H16.96V80.56H12.72V76.32ZM16.96 76.32H21.2V80.56H16.96V76.32ZM21.2 76.32H25.44V80.56H21.2V76.32ZM25.44 76.32H29.68V80.56H25.44V76.32ZM42.4 76.32H46.64V80.56H42.4V76.32ZM46.64 76.32H50.88V80.56H46.64V76.32ZM59.36 76.32H63.6V80.56H59.36V76.32ZM67.84 76.32H72.08V80.56H67.84V76.32ZM76.32 76.32H80.56V80.56H76.32V76.32ZM84.8 76.32H89.04V80.56H84.8V76.32ZM101.76 76.32H106V80.56H101.76V76.32ZM0 80.56H4.24V84.8H0V80.56ZM25.44 80.56H29.68V84.8H25.44V80.56ZM38.16 80.56H42.4V84.8H38.16V80.56ZM42.4 80.56H46.64V84.8H42.4V80.56ZM50.88 80.56H55.12V84.8H50.88V80.56ZM55.12 80.56H59.36V84.8H55.12V80.56ZM67.84 80.56H72.08V84.8H67.84V80.56ZM84.8 80.56H89.04V84.8H84.8V80.56ZM97.52 80.56H101.76V84.8H97.52V80.56ZM0 84.8H4.24V89.04H0V84.8ZM8.48 84.8H12.72V89.04H8.48V84.8ZM12.72 84.8H16.96V89.04H12.72V84.8ZM16.96 84.8H21.2V89.04H16.96V84.8ZM25.44 84.8H29.68V89.04H25.44V84.8ZM38.16 84.8H42.4V89.04H38.16V84.8ZM42.4 84.8H46.64V89.04H42.4V84.8ZM59.36 84.8H63.6V89.04H59.36V84.8ZM63.6 84.8H67.84V89.04H63.6V84.8ZM67.84 84.8H72.08V89.04H67.84V84.8ZM72.08 84.8H76.32V89.04H72.08V84.8ZM76.32 84.8H80.56V89.04H76.32V84.8ZM80.56 84.8H84.8V89.04H80.56V84.8ZM84.8 84.8H89.04V89.04H84.8V84.8ZM97.52 84.8H101.76V89.04H97.52V84.8ZM101.76 84.8H106V89.04H101.76V84.8ZM0 89.04H4.24V93.28H0V89.04ZM8.48 89.04H12.72V93.28H8.48V89.04ZM12.72 89.04H16.96V93.28H12.72V89.04ZM16.96 89.04H21.2V93.28H16.96V89.04ZM25.44 89.04H29.68V93.28H25.44V89.04ZM38.16 89.04H42.4V93.28H38.16V89.04ZM42.4 89.04H46.64V93.28H42.4V89.04ZM46.64 89.04H50.88V93.28H46.64V89.04ZM50.88 89.04H55.12V93.28H50.88V89.04ZM63.6 89.04H67.84V93.28H63.6V89.04ZM72.08 89.04H76.32V93.28H72.08V89.04ZM84.8 89.04H89.04V93.28H84.8V89.04ZM93.28 89.04H97.52V93.28H93.28V89.04ZM97.52 89.04H101.76V93.28H97.52V89.04ZM0 93.28H4.24V97.52H0V93.28ZM8.48 93.28H12.72V97.52H8.48V93.28ZM12.72 93.28H16.96V97.52H12.72V93.28ZM16.96 93.28H21.2V97.52H16.96V93.28ZM25.44 93.28H29.68V97.52H25.44V93.28ZM33.92 93.28H38.16V97.52H33.92V93.28ZM55.12 93.28H59.36V97.52H55.12V93.28ZM59.36 93.28H63.6V97.52H59.36V93.28ZM63.6 93.28H67.84V97.52H63.6V93.28ZM67.84 93.28H72.08V97.52H67.84V93.28ZM72.08 93.28H76.32V97.52H72.08V93.28ZM80.56 93.28H84.8V97.52H80.56V93.28ZM84.8 93.28H89.04V97.52H84.8V93.28ZM89.04 93.28H93.28V97.52H89.04V93.28ZM97.52 93.28H101.76V97.52H97.52V93.28ZM101.76 93.28H106V97.52H101.76V93.28ZM0 97.52H4.24V101.76H0V97.52ZM25.44 97.52H29.68V101.76H25.44V97.52ZM33.92 97.52H38.16V101.76H33.92V97.52ZM38.16 97.52H42.4V101.76H38.16V97.52ZM42.4 97.52H46.64V101.76H42.4V97.52ZM55.12 97.52H59.36V101.76H55.12V97.52ZM67.84 97.52H72.08V101.76H67.84V97.52ZM72.08 97.52H76.32V101.76H72.08V97.52ZM76.32 97.52H80.56V101.76H76.32V97.52ZM80.56 97.52H84.8V101.76H80.56V97.52ZM84.8 97.52H89.04V101.76H84.8V97.52ZM0 101.76H4.24V106H0V101.76ZM4.24 101.76H8.48V106H4.24V101.76ZM8.48 101.76H12.72V106H8.48V101.76ZM12.72 101.76H16.96V106H12.72V101.76ZM16.96 101.76H21.2V106H16.96V101.76ZM21.2 101.76H25.44V106H21.2V101.76ZM25.44 101.76H29.68V106H25.44V101.76ZM42.4 101.76H46.64V106H42.4V101.76ZM50.88 101.76H55.12V106H50.88V101.76ZM67.84 101.76H72.08V106H67.84V101.76ZM76.32 101.76H80.56V106H76.32V101.76ZM89.04 101.76H93.28V106H89.04V101.76ZM101.76 101.76H106V106H101.76V101.76Z" fill="black"/>
</svg>
