<svg width="22" height="19" viewBox="0 0 22 19" fill="none" xmlns="http://www.w3.org/2000/svg">
<path fill-rule="evenodd" clip-rule="evenodd" d="M9.17049 0.954502C9.60983 1.39384 9.60983 2.10616 9.17049 2.54549L4.71599 7L14.375 7C18.3099 7 21.5 10.1899 21.5 14.125L21.5 17.875C21.5 18.4963 20.9963 19 20.375 19C19.7537 19 19.25 18.4963 19.25 17.875L19.25 14.125C19.25 11.4326 17.0673 9.25 14.375 9.25L4.71599 9.25L9.17049 13.7045C9.60983 14.1439 9.60983 14.8561 9.17049 15.2954C8.73116 15.7348 8.01883 15.7348 7.5795 15.2954L1.2045 8.92049C0.765166 8.48116 0.765166 7.76884 1.2045 7.3295L7.5795 0.954502C8.01884 0.515167 8.73116 0.515167 9.17049 0.954502Z" fill="#24292E"/>
</svg>
