<svg width="109" height="32" viewBox="0 0 109 32" fill="none" xmlns="http://www.w3.org/2000/svg">
    <path d="M69.6894 7.83882C69.6894 7.82873 69.6854 7.81906 69.6783 7.81192C69.6712 7.80479 69.6615 7.80078 69.6514 7.80078H67.7985C67.7935 7.80078 67.7886 7.80177 67.784 7.80368C67.7794 7.80559 67.7752 7.80839 67.7716 7.81192C67.7681 7.81546 67.7653 7.81965 67.7634 7.82426C67.7615 7.82888 67.7605 7.83383 67.7605 7.83882V22.9728C67.7605 22.9778 67.7615 22.9828 67.7634 22.9874C67.7653 22.992 67.7681 22.9962 67.7716 22.9997C67.7752 23.0032 67.7794 23.006 67.784 23.008C67.7886 23.0099 67.7935 23.0109 67.7985 23.0109H69.6514C69.6615 23.0109 69.6712 23.0068 69.6783 22.9997C69.6854 22.9926 69.6894 22.9829 69.6894 22.9728V7.83882Z" stroke="#F1A2AD" stroke-width="0.223776"/>
    <path d="M23.9138 20.9902C25.2274 19.6632 25.9994 18.0833 26.1359 16.2114C26.2925 14.0468 25.6656 12.1626 24.2551 10.5589C22.7013 8.79177 20.7477 7.90562 18.3944 7.9004C16.0693 7.89518 13.6555 7.89592 11.153 7.90264C8.39492 7.91047 6.08331 9.29564 4.61311 11.5916C3.03101 14.0632 3.11269 17.7521 4.87828 20.1141C6.438 22.2012 8.50532 23.2432 11.0802 23.2403C11.1004 23.2403 11.1104 23.2306 11.1104 23.2112L11.1082 21.3639C11.1082 21.3474 11.1018 21.3315 11.0903 21.3196C11.0788 21.3077 11.0632 21.3007 11.0467 21.3001C9.56602 21.2613 8.33413 20.7713 7.35101 19.8299C6.33432 18.8572 5.75697 17.6697 5.61898 16.2674C5.37059 13.7443 6.57338 11.4562 8.8615 10.3642C9.53655 10.0427 10.3045 9.88119 11.1653 9.8797C13.2643 9.87597 15.4014 9.87112 17.5765 9.86515C18.5924 9.86292 19.326 9.91401 19.7773 10.0184C21.6626 10.4548 23.2693 11.9284 23.8131 13.8047C24.3043 15.4987 24.1174 17.4556 23.0993 18.8934C21.9692 20.4897 20.4203 21.2923 18.4525 21.3012C17.036 21.3072 15.5886 21.3076 14.1102 21.3024C14.0654 21.3024 14.027 21.3184 13.9949 21.3505L12.1477 23.1989C12.1437 23.203 12.141 23.2082 12.14 23.2138C12.139 23.2195 12.1397 23.2253 12.1419 23.2305C12.1442 23.2358 12.148 23.2403 12.1528 23.2434C12.1576 23.2465 12.1632 23.2481 12.1689 23.2481C14.3179 23.2511 16.4221 23.2485 18.4816 23.2403C20.6269 23.2313 22.4376 22.4813 23.9138 20.9902Z" stroke="#F1A2AD" stroke-width="0.223776"/>
    <path d="M54.8218 12.2964C55.5923 11.2103 56.5501 10.4905 57.6951 10.137C58.7423 9.81398 59.8269 9.77482 60.9488 10.0195C62.3104 10.316 63.539 11.2379 64.3602 12.3747C64.363 12.3787 64.3667 12.3821 64.3709 12.3846C64.3751 12.3872 64.3798 12.3888 64.3847 12.3894C64.3896 12.3901 64.3947 12.3897 64.3995 12.3883C64.4043 12.3869 64.4089 12.3846 64.4128 12.3814L65.8248 11.1965C65.8562 11.1704 65.8603 11.1402 65.8371 11.1059C64.4453 9.00913 61.9065 7.90032 59.4416 7.9048C57.2397 7.90927 55.3797 8.69174 53.8618 10.2522C53.1763 10.9579 52.672 11.7183 52.349 12.5336C51.7978 13.9285 51.6356 15.3965 51.8623 16.9375C52.142 18.8329 53.033 20.3833 54.5353 21.5887C55.8847 22.671 57.4746 23.2159 59.3051 23.2234C62.015 23.2338 64.2032 22.1951 65.8696 20.1073C65.8858 20.0874 65.8934 20.0618 65.8909 20.0361C65.8884 20.0104 65.8759 19.9866 65.8562 19.9697L64.5303 18.8475C64.4923 18.8154 64.4579 18.8191 64.4274 18.8586C64.029 19.3853 63.4688 19.8824 62.7468 20.3501C61.4836 21.1691 59.9541 21.4578 58.4962 21.2307C57.0491 21.0054 55.8787 20.3292 54.9851 19.2021C53.4992 17.3269 53.4399 14.2444 54.8218 12.2964Z" stroke="#F1A2AD" stroke-width="0.223776"/>
    <path d="M75.0584 9.4338C75.0699 9.25491 75.0453 9.07545 74.986 8.90565C74.9267 8.73585 74.8337 8.57905 74.7125 8.44419C74.5913 8.30933 74.4442 8.19906 74.2796 8.11967C74.1149 8.04028 73.936 7.99333 73.753 7.98149C73.57 7.96966 73.3865 7.99317 73.213 8.0507C73.0396 8.10822 72.8794 8.19863 72.7419 8.31675C72.6043 8.43487 72.492 8.5784 72.4112 8.73914C72.3305 8.89988 72.283 9.07469 72.2715 9.25357C72.2599 9.43246 72.2845 9.61192 72.3438 9.78172C72.4032 9.95152 72.4961 10.1083 72.6173 10.2432C72.7385 10.378 72.8856 10.4883 73.0503 10.5677C73.2149 10.6471 73.3938 10.694 73.5768 10.7059C73.7598 10.7177 73.9433 10.6942 74.1168 10.6367C74.2903 10.5791 74.4504 10.4887 74.5879 10.3706C74.7255 10.2525 74.8379 10.109 74.9186 9.94823C74.9993 9.78749 75.0468 9.61269 75.0584 9.4338Z" stroke="#F1A2AD" stroke-width="0.223776"/>
    <path d="M91.7566 9.43135C91.7679 9.25245 91.743 9.07302 91.6834 8.90333C91.6237 8.73364 91.5305 8.577 91.4091 8.44235C91.2876 8.3077 91.1403 8.19769 90.9755 8.11859C90.8108 8.03949 90.6318 7.99285 90.4487 7.98134C90.0791 7.95808 89.7156 8.07931 89.4382 8.31836C89.1608 8.55741 88.9922 8.89468 88.9694 9.256C88.9582 9.43491 88.9831 9.61433 89.0427 9.78402C89.1024 9.95371 89.1956 10.1104 89.317 10.245C89.4385 10.3796 89.5858 10.4897 89.7505 10.5688C89.9153 10.6479 90.0943 10.6945 90.2773 10.706C90.6469 10.7293 91.0104 10.608 91.2879 10.369C91.5653 10.1299 91.7339 9.79267 91.7566 9.43135Z" stroke="#F1A2AD" stroke-width="0.223776"/>
    <path d="M35.6677 23.012L37.4512 23.0064C37.4699 23.0064 37.4878 22.999 37.501 22.9858C37.5142 22.9725 37.5217 22.9546 37.5217 22.9359C37.5187 21.1696 37.5224 19.2373 37.5329 17.139C37.5358 16.4729 37.4799 15.9276 37.365 15.5032C36.9488 13.9703 35.7796 12.7082 34.2937 12.2182C31.6666 11.3521 28.9309 12.7776 28.1387 15.4428C28.0149 15.8612 27.9552 16.4337 27.9597 17.1603C27.9731 19.1839 27.9739 21.12 27.9619 22.9684C27.9618 22.9738 27.9627 22.9791 27.9647 22.9841C27.9666 22.9891 27.9696 22.9937 27.9733 22.9976C27.9771 23.0014 27.9816 23.0045 27.9865 23.0066C27.9915 23.0087 27.9968 23.0098 28.0022 23.0098L29.8204 23.0109C29.8346 23.0109 29.8483 23.0053 29.8584 22.9955C29.8685 22.9856 29.8741 22.9722 29.8741 22.9583C29.8726 20.8652 29.8726 18.7368 29.8741 16.5728C29.8752 15.6845 30.5309 14.7177 31.2403 14.2948C31.8027 13.9599 32.3987 13.8252 33.0282 13.8909C34.0129 13.9938 34.7569 14.4891 35.2604 15.3768C35.4961 15.7915 35.614 16.1887 35.614 16.5684C35.614 18.428 35.614 20.5583 35.614 22.9594C35.614 22.9664 35.6154 22.9734 35.6181 22.9798C35.6208 22.9863 35.6248 22.9921 35.6298 22.997C35.6348 23.0019 35.6407 23.0058 35.6472 23.0083C35.6537 23.0109 35.6607 23.0122 35.6677 23.012Z" stroke="#F1A2AD" stroke-width="0.223776"/>
    <path d="M41.657 18.4067H50.0956C50.1352 18.4067 50.1572 18.387 50.1616 18.3474C50.466 15.708 49.5463 13.2856 46.9941 12.2977C46.5779 12.1365 46.0841 12.0396 45.5127 12.0067C44.9794 11.9762 44.4841 11.9922 44.0268 12.0549C41.7767 12.3648 40.104 14.1315 39.7046 16.2529C39.351 18.1281 39.7146 19.8121 40.7955 21.3046C41.5586 22.3598 42.937 22.9975 44.1611 23.1598C46.0587 23.4119 47.8351 23.043 49.4903 22.0532C49.6268 21.9711 49.76 21.8783 49.8898 21.7746C49.9218 21.7485 49.9278 21.7175 49.9077 21.6817L49.158 20.348C49.1341 20.3055 49.1021 20.2977 49.0618 20.3245C47.8788 21.1025 46.5861 21.4852 45.1837 21.4725C44.7205 21.4688 44.2644 21.3915 43.8153 21.2409C42.5812 20.8258 41.8472 19.7427 41.5966 18.4806C41.5862 18.4314 41.6063 18.4067 41.657 18.4067Z" stroke="#F1A2AD" stroke-width="0.223776"/>
    <path d="M79.1866 16.6735C79.1832 15.7113 79.8188 14.7199 80.6087 14.2679C81.1323 13.968 81.678 13.8394 82.2456 13.8819C83.2504 13.9565 84.0164 14.432 84.5438 15.3085C84.8041 15.7418 84.935 16.1592 84.9365 16.5605C84.9417 18.6237 84.9414 20.7585 84.9354 22.965C84.9354 22.9766 84.9401 22.9879 84.9484 22.9962C84.9568 23.0046 84.9682 23.0094 84.9802 23.0097L86.7715 23.0108C86.8267 23.0108 86.8543 22.9832 86.8543 22.928C86.8416 21.1781 86.8431 19.3793 86.8587 17.5317C86.8662 16.653 86.8147 16.0011 86.7043 15.5759C86.3866 14.3548 85.6955 13.3997 84.6311 12.7104C82.9807 11.6408 80.7877 11.7359 79.2302 12.8973C78.3344 13.5649 77.7432 14.4245 77.4568 15.4763C77.3307 15.9403 77.2707 16.5157 77.2766 17.2027C77.2931 19.0966 77.2946 21.0103 77.2811 22.9437C77.2811 22.9885 77.3035 23.0108 77.3483 23.0108H79.1094C79.1616 23.0108 79.1877 22.9851 79.1877 22.9336C79.1944 20.8301 79.194 18.7434 79.1866 16.6735Z" stroke="#F1A2AD" stroke-width="0.223776"/>
    <path d="M95.4495 18.0375C95.219 15.6375 96.9532 13.6101 99.4192 13.7611C100.014 13.797 100.525 13.9316 100.951 14.1651C101.501 14.4672 102.214 15.04 102.512 15.6453C102.536 15.6931 102.57 15.7035 102.616 15.6767L104.098 14.8151C104.111 14.8074 104.121 14.795 104.125 14.7804C104.129 14.7659 104.128 14.7503 104.121 14.7368C103.121 12.8448 101.051 11.8792 98.9616 11.9978C98.5409 12.0217 98.2597 12.0455 98.118 12.0694C96.5627 12.3312 95.3655 13.0462 94.5264 14.2143C93.6693 15.4081 93.3594 16.8537 93.5093 18.2904C93.7555 20.6411 95.2469 22.4537 97.5205 23.0523C98.0688 23.1967 98.6909 23.237 99.2514 23.2381C101.192 23.2403 103.1 22.2389 104.077 20.5304C104.081 20.5239 104.084 20.5168 104.085 20.5093C104.086 20.5019 104.085 20.4943 104.083 20.487C104.081 20.4798 104.078 20.4729 104.074 20.4669C104.069 20.4609 104.063 20.4559 104.057 20.4521L102.548 19.5838C102.541 19.5802 102.535 19.5779 102.528 19.577C102.521 19.576 102.513 19.5765 102.506 19.5784C102.5 19.5803 102.493 19.5835 102.488 19.5879C102.482 19.5923 102.477 19.5977 102.474 19.6039C102.344 19.8352 102.185 20.044 101.997 20.2305C100.992 21.2293 99.8082 21.6228 98.4469 21.4109C96.753 21.148 95.6106 19.7192 95.4495 18.0375Z" stroke="#F1A2AD" stroke-width="0.223776"/>
    <path d="M74.6069 12.2729C74.6069 12.2634 74.6032 12.2543 74.5964 12.2475C74.5897 12.2408 74.5806 12.2371 74.5711 12.2371H72.7138C72.7043 12.2371 72.6952 12.2408 72.6885 12.2475C72.6818 12.2543 72.678 12.2634 72.678 12.2729V22.9806C72.678 22.9901 72.6818 22.9992 72.6885 23.0059C72.6952 23.0126 72.7043 23.0164 72.7138 23.0164H74.5711C74.5806 23.0164 74.5897 23.0126 74.5964 23.0059C74.6032 22.9992 74.6069 22.9901 74.6069 22.9806V12.2729Z" stroke="#F1A2AD" stroke-width="0.223776"/>
    <path d="M91.3074 12.2819C91.3074 12.2703 91.3028 12.2592 91.2946 12.2511C91.2864 12.2429 91.2753 12.2383 91.2637 12.2383H89.4221C89.4105 12.2383 89.3994 12.2429 89.3912 12.2511C89.383 12.2592 89.3784 12.2703 89.3784 12.2819V22.9717C89.3784 22.9833 89.383 22.9944 89.3912 23.0026C89.3994 23.0107 89.4105 23.0153 89.4221 23.0153H91.2637C91.2753 23.0153 91.2864 23.0107 91.2946 23.0026C91.3028 22.9944 91.3074 22.9833 91.3074 22.9717V12.2819Z" stroke="#F1A2AD" stroke-width="0.223776"/>
    <path d="M15.548 16.2976C15.548 16.2854 15.5528 16.2737 15.5614 16.2651C15.57 16.2565 15.5817 16.2517 15.5938 16.2517H16.9331C16.9453 16.2517 16.957 16.2469 16.9656 16.2383C16.9742 16.2296 16.979 16.218 16.979 16.2058V14.8654C16.979 14.8594 16.9778 14.8534 16.9755 14.8478C16.9732 14.8423 16.9698 14.8372 16.9656 14.833C16.9613 14.8287 16.9563 14.8253 16.9507 14.823C16.9451 14.8207 16.9392 14.8195 16.9331 14.8195L15.5961 14.8206C15.5839 14.8206 15.5722 14.8158 15.5636 14.8072C15.555 14.7986 15.5502 14.7869 15.5502 14.7748L15.5435 13.4724C15.5435 13.4602 15.5387 13.4486 15.5301 13.4399C15.5215 13.4313 15.5098 13.4265 15.4976 13.4265H14.1594C14.1473 13.4265 14.1356 13.4313 14.127 13.4399C14.1184 13.4486 14.1136 13.4602 14.1136 13.4724L14.1124 14.7748C14.1124 14.7869 14.1076 14.7986 14.099 14.8072C14.0904 14.8158 14.0787 14.8206 14.0666 14.8206L12.7217 14.8195C12.7157 14.8195 12.7097 14.8207 12.7041 14.823C12.6986 14.8253 12.6935 14.8287 12.6892 14.833C12.685 14.8372 12.6816 14.8423 12.6793 14.8478C12.677 14.8534 12.6758 14.8594 12.6758 14.8654L12.6747 16.2058C12.6747 16.218 12.6795 16.2296 12.6881 16.2383C12.6967 16.2469 12.7084 16.2517 12.7206 16.2517H14.0666C14.0787 16.2517 14.0904 16.2565 14.099 16.2651C14.1076 16.2737 14.1124 16.2854 14.1124 16.2976V17.6827C14.1124 17.6949 14.1173 17.7066 14.1259 17.7152C14.1345 17.7238 14.1462 17.7286 14.1583 17.7286L15.5032 17.7308C15.5154 17.7308 15.527 17.726 15.5357 17.7174C15.5443 17.7088 15.5491 17.6971 15.5491 17.685L15.548 16.2976Z" stroke="#F1A2AD" stroke-width="0.223776"/>
    <path d="M44.2058 13.7779C42.8833 14.099 41.7946 15.2705 41.5932 16.697C41.5926 16.7015 41.5929 16.7061 41.5941 16.7105C41.5953 16.7148 41.5974 16.7188 41.6003 16.7222C41.6032 16.7256 41.6067 16.7283 41.6107 16.7302C41.6147 16.732 41.6191 16.7329 41.6234 16.7328H48.1655C48.2148 16.7328 48.2371 16.7086 48.2327 16.6601C48.1312 15.5606 47.6743 14.742 46.862 14.2042C46.1102 13.7063 45.0584 13.5709 44.2058 13.7779Z" stroke="#F1A2AD" stroke-width="0.223776"/>
    <path d="M69.6514 7.80078H67.7985C67.7775 7.80078 67.7605 7.81781 67.7605 7.83882V22.9728C67.7605 22.9938 67.7775 23.0109 67.7985 23.0109H69.6514C69.6724 23.0109 69.6894 22.9938 69.6894 22.9728V7.83882C69.6894 7.81781 69.6724 7.80078 69.6514 7.80078Z" fill="#E2445B"/>
    <path d="M26.1359 16.2114C25.9994 18.0833 25.2274 19.6632 23.9138 20.9902C22.4376 22.4813 20.6269 23.2313 18.4816 23.2403C16.4221 23.2485 14.3179 23.2511 12.1689 23.2481C12.1632 23.2481 12.1576 23.2465 12.1528 23.2434C12.148 23.2403 12.1442 23.2358 12.1419 23.2305C12.1397 23.2253 12.139 23.2195 12.14 23.2138C12.141 23.2082 12.1437 23.203 12.1477 23.1989L13.9949 21.3505C14.027 21.3184 14.0654 21.3024 14.1102 21.3024C15.5886 21.3076 17.036 21.3072 18.4525 21.3012C20.4203 21.2923 21.9692 20.4897 23.0993 18.8934C24.1174 17.4556 24.3043 15.4987 23.8131 13.8047C23.2693 11.9284 21.6626 10.4548 19.7773 10.0184C19.326 9.91401 18.5924 9.86292 17.5765 9.86515C15.4014 9.87112 13.2643 9.87597 11.1653 9.8797C10.3045 9.88119 9.53655 10.0427 8.8615 10.3642C6.57338 11.4562 5.37059 13.7443 5.61898 16.2674C5.75697 17.6697 6.33432 18.8572 7.35101 19.8299C8.33413 20.7713 9.56602 21.2613 11.0467 21.3001C11.0632 21.3007 11.0788 21.3077 11.0903 21.3196C11.1018 21.3315 11.1082 21.3474 11.1082 21.3639L11.1104 23.2112C11.1104 23.2306 11.1004 23.2403 11.0802 23.2403C8.50532 23.2432 6.438 22.2012 4.87828 20.1141C3.11269 17.7521 3.03101 14.0632 4.61311 11.5916C6.08331 9.29564 8.39492 7.91047 11.153 7.90264C13.6555 7.89592 16.0693 7.89518 18.3944 7.9004C20.7477 7.90562 22.7013 8.79177 24.2551 10.5589C25.6656 12.1626 26.2925 14.0468 26.1359 16.2114Z" fill="#E2445B"/>
    <path d="M54.8218 12.2964C53.4399 14.2444 53.4992 17.3269 54.9851 19.2021C55.8787 20.3292 57.0491 21.0054 58.4962 21.2307C59.9541 21.4578 61.4836 21.1691 62.7468 20.3501C63.4688 19.8824 64.029 19.3853 64.4274 18.8586C64.4579 18.8191 64.4923 18.8154 64.5303 18.8475L65.8562 19.9697C65.8759 19.9866 65.8884 20.0104 65.8909 20.0361C65.8934 20.0618 65.8858 20.0874 65.8696 20.1073C64.2032 22.1951 62.015 23.2338 59.3051 23.2234C57.4746 23.2159 55.8847 22.671 54.5353 21.5887C53.033 20.3833 52.142 18.8329 51.8623 16.9375C51.6356 15.3965 51.7978 13.9285 52.349 12.5336C52.672 11.7183 53.1763 10.9579 53.8618 10.2522C55.3797 8.69174 57.2397 7.90927 59.4416 7.9048C61.9065 7.90032 64.4453 9.00913 65.8371 11.1059C65.8603 11.1402 65.8562 11.1704 65.8248 11.1965L64.4128 12.3814C64.4089 12.3846 64.4043 12.3869 64.3995 12.3883C64.3947 12.3897 64.3896 12.3901 64.3847 12.3894C64.3798 12.3888 64.3751 12.3872 64.3709 12.3846C64.3667 12.3821 64.363 12.3787 64.3602 12.3747C63.539 11.2379 62.3104 10.316 60.9488 10.0195C59.8269 9.77482 58.7423 9.81398 57.6951 10.137C56.5501 10.4905 55.5923 11.2103 54.8218 12.2964Z" fill="#E2445B"/>
    <path d="M73.5768 10.7058C74.3464 10.7556 75.0097 10.1861 75.0583 9.43377C75.107 8.68145 74.5225 8.03123 73.753 7.98147C72.9834 7.9317 72.3201 8.50123 72.2714 9.25355C72.2228 10.0059 72.8072 10.6561 73.5768 10.7058Z" fill="#E2445B"/>
    <path d="M90.2774 10.7062C91.047 10.7546 91.7093 10.1839 91.7567 9.4315C91.804 8.6791 91.2185 8.0299 90.4488 7.98148C89.6791 7.93305 89.0168 8.50374 88.9695 9.25614C88.9221 10.0085 89.5077 10.6577 90.2774 10.7062Z" fill="#E2445B"/>
    <path d="M35.6677 23.012C35.6607 23.0122 35.6537 23.0109 35.6472 23.0083C35.6407 23.0058 35.6348 23.0019 35.6298 22.997C35.6248 22.9921 35.6208 22.9863 35.6181 22.9798C35.6154 22.9734 35.614 22.9664 35.614 22.9594C35.614 20.5583 35.614 18.428 35.614 16.5684C35.614 16.1887 35.4961 15.7915 35.2604 15.3768C34.7569 14.4891 34.0129 13.9938 33.0282 13.8909C32.3987 13.8252 31.8027 13.9599 31.2403 14.2948C30.5309 14.7177 29.8752 15.6845 29.8741 16.5728C29.8726 18.7368 29.8726 20.8652 29.8741 22.9583C29.8741 22.9722 29.8685 22.9856 29.8584 22.9955C29.8483 23.0053 29.8346 23.0109 29.8204 23.0109L28.0022 23.0098C27.9968 23.0098 27.9915 23.0087 27.9865 23.0066C27.9816 23.0045 27.9771 23.0014 27.9733 22.9976C27.9696 22.9937 27.9666 22.9891 27.9647 22.9841C27.9627 22.9791 27.9618 22.9738 27.9619 22.9684C27.9739 21.12 27.9731 19.1839 27.9597 17.1603C27.9552 16.4337 28.0149 15.8612 28.1387 15.4428C28.9309 12.7776 31.6666 11.3521 34.2937 12.2182C35.7796 12.7082 36.9488 13.9703 37.365 15.5032C37.4799 15.9276 37.5358 16.4729 37.5329 17.139C37.5224 19.2373 37.5187 21.1696 37.5217 22.9359C37.5217 22.9546 37.5142 22.9725 37.501 22.9858C37.4878 22.999 37.4699 23.0064 37.4512 23.0064L35.6677 23.012Z" fill="#E2445B"/>
    <path d="M41.5966 18.4806C41.8472 19.7427 42.5812 20.8258 43.8154 21.2409C44.2644 21.3915 44.7205 21.4688 45.1837 21.4725C46.5861 21.4852 47.8788 21.1025 49.0618 20.3245C49.1021 20.2977 49.1341 20.3055 49.158 20.348L49.9077 21.6817C49.9278 21.7175 49.9218 21.7485 49.8898 21.7746C49.76 21.8783 49.6268 21.9711 49.4903 22.0532C47.8351 23.043 46.0587 23.4119 44.1611 23.1598C42.937 22.9975 41.5586 22.3598 40.7955 21.3046C39.7146 19.8121 39.351 18.1281 39.7046 16.2529C40.104 14.1315 41.7767 12.3648 44.0268 12.0549C44.4841 11.9922 44.9794 11.9762 45.5127 12.0067C46.0841 12.0396 46.5779 12.1365 46.9941 12.2977C49.5463 13.2856 50.466 15.708 50.1616 18.3474C50.1572 18.387 50.1352 18.4067 50.0956 18.4067H41.657C41.6063 18.4067 41.5862 18.4314 41.5966 18.4806ZM44.2058 13.7779C42.8833 14.0991 41.7946 15.2705 41.5933 16.6971C41.5926 16.7016 41.5929 16.7062 41.5941 16.7105C41.5953 16.7149 41.5975 16.7189 41.6003 16.7223C41.6032 16.7257 41.6068 16.7284 41.6108 16.7302C41.6148 16.7321 41.6191 16.733 41.6235 16.7329H48.1656C48.2148 16.7329 48.2372 16.7087 48.2327 16.6602C48.1312 15.5607 47.6744 14.742 46.8621 14.2042C46.1102 13.7063 45.0584 13.5709 44.2058 13.7779Z" fill="#E2445B"/>
    <path d="M80.6087 14.2679C79.8188 14.7199 79.1832 15.7113 79.1866 16.6735C79.194 18.7434 79.1944 20.8301 79.1877 22.9336C79.1877 22.9851 79.1616 23.0108 79.1094 23.0108H77.3483C77.3035 23.0108 77.2811 22.9885 77.2811 22.9437C77.2946 21.0103 77.2931 19.0966 77.2766 17.2027C77.2707 16.5157 77.3307 15.9403 77.4568 15.4763C77.7432 14.4245 78.3344 13.5649 79.2302 12.8973C80.7877 11.7359 82.9807 11.6408 84.6311 12.7104C85.6955 13.3997 86.3866 14.3548 86.7043 15.5759C86.8147 16.0011 86.8662 16.653 86.8587 17.5317C86.8431 19.3793 86.8416 21.1781 86.8543 22.928C86.8543 22.9832 86.8267 23.0108 86.7715 23.0108L84.9802 23.0097C84.9682 23.0094 84.9568 23.0046 84.9484 22.9962C84.9401 22.9879 84.9354 22.9766 84.9354 22.965C84.9414 20.7585 84.9417 18.6237 84.9365 16.5605C84.935 16.1592 84.8041 15.7418 84.5438 15.3085C84.0164 14.432 83.2504 13.9565 82.2456 13.8819C81.678 13.8394 81.1323 13.968 80.6087 14.2679Z" fill="#E2445B"/>
    <path d="M99.4194 13.7611C96.9534 13.6101 95.2191 15.6375 95.4496 18.0375C95.6107 19.7192 96.7531 21.148 98.4471 21.4109C99.8084 21.6228 100.992 21.2293 101.997 20.2305C102.185 20.044 102.344 19.8352 102.474 19.6039C102.477 19.5977 102.482 19.5923 102.488 19.5879C102.493 19.5835 102.5 19.5803 102.507 19.5784C102.513 19.5765 102.521 19.576 102.528 19.577C102.535 19.5779 102.542 19.5802 102.548 19.5838L104.057 20.4521C104.064 20.4559 104.069 20.4609 104.074 20.4669C104.078 20.4729 104.082 20.4798 104.083 20.487C104.085 20.4943 104.086 20.5019 104.085 20.5093C104.084 20.5168 104.081 20.5239 104.077 20.5304C103.1 22.2389 101.192 23.2403 99.2515 23.2381C98.691 23.237 98.0689 23.1967 97.5206 23.0523C95.2471 22.4537 93.7556 20.6411 93.5094 18.2904C93.3595 16.8537 93.6694 15.4081 94.5265 14.2143C95.3657 13.0462 96.5629 12.3312 98.1181 12.0694C98.2598 12.0455 98.541 12.0217 98.9617 11.9978C101.051 11.8792 103.121 12.8448 104.121 14.7368C104.128 14.7503 104.129 14.7659 104.125 14.7804C104.121 14.795 104.112 14.8074 104.099 14.8151L102.616 15.6767C102.571 15.7035 102.536 15.6931 102.512 15.6453C102.214 15.04 101.502 14.4672 100.951 14.1651C100.525 13.9316 100.015 13.797 99.4194 13.7611Z" fill="#E2445B"/>
    <path d="M74.5711 12.2373H72.7138C72.694 12.2373 72.678 12.2533 72.678 12.2731V22.9808C72.678 23.0006 72.694 23.0166 72.7138 23.0166H74.5711C74.5909 23.0166 74.6069 23.0006 74.6069 22.9808V12.2731C74.6069 12.2533 74.5909 12.2373 74.5711 12.2373Z" fill="#E2445B"/>
    <path d="M91.2637 12.2383H89.4221C89.398 12.2383 89.3784 12.2578 89.3784 12.2819V22.9717C89.3784 22.9958 89.398 23.0153 89.4221 23.0153H91.2637C91.2878 23.0153 91.3074 22.9958 91.3074 22.9717V12.2819C91.3074 12.2578 91.2878 12.2383 91.2637 12.2383Z" fill="#E2445B"/>
    <path d="M15.548 16.2976L15.5491 17.685C15.5491 17.6971 15.5443 17.7088 15.5357 17.7174C15.527 17.726 15.5154 17.7308 15.5032 17.7308L14.1583 17.7286C14.1462 17.7286 14.1345 17.7238 14.1259 17.7152C14.1173 17.7066 14.1124 17.6949 14.1124 17.6827V16.2976C14.1124 16.2854 14.1076 16.2737 14.099 16.2651C14.0904 16.2565 14.0787 16.2517 14.0666 16.2517H12.7206C12.7084 16.2517 12.6967 16.2469 12.6881 16.2383C12.6795 16.2296 12.6747 16.218 12.6747 16.2058L12.6758 14.8654C12.6758 14.8594 12.677 14.8534 12.6793 14.8478C12.6816 14.8423 12.685 14.8372 12.6892 14.833C12.6935 14.8287 12.6986 14.8253 12.7041 14.823C12.7097 14.8207 12.7157 14.8195 12.7217 14.8195L14.0666 14.8206C14.0787 14.8206 14.0904 14.8158 14.099 14.8072C14.1076 14.7986 14.1124 14.7869 14.1124 14.7748L14.1136 13.4724C14.1136 13.4602 14.1184 13.4486 14.127 13.4399C14.1356 13.4313 14.1473 13.4265 14.1594 13.4265H15.4976C15.5098 13.4265 15.5215 13.4313 15.5301 13.4399C15.5387 13.4486 15.5435 13.4602 15.5435 13.4724L15.5502 14.7748C15.5502 14.7869 15.555 14.7986 15.5636 14.8072C15.5722 14.8158 15.5839 14.8206 15.5961 14.8206L16.9331 14.8195C16.9392 14.8195 16.9451 14.8207 16.9507 14.823C16.9563 14.8253 16.9613 14.8287 16.9656 14.833C16.9698 14.8372 16.9732 14.8423 16.9755 14.8478C16.9778 14.8534 16.979 14.8594 16.979 14.8654V16.2058C16.979 16.218 16.9742 16.2296 16.9656 16.2383C16.957 16.2469 16.9453 16.2517 16.9331 16.2517H15.5938C15.5817 16.2517 15.57 16.2565 15.5614 16.2651C15.5528 16.2737 15.548 16.2854 15.548 16.2976Z" fill="#E2445B"/>
</svg>
