<svg width="32" height="32" viewBox="0 0 32 32" fill="none" xmlns="http://www.w3.org/2000/svg">
<path d="M0 11.2087C0 7.20306 0 5.20025 0.804216 3.68135C1.45321 2.45561 2.45561 1.45321 3.68135 0.804216C5.20025 0 7.20305 0 11.2087 0H20.7913C24.7969 0 26.7997 0 28.3186 0.804216C29.5444 1.45321 30.5468 2.45561 31.1958 3.68135C32 5.20025 32 7.20305 32 11.2087V20.7913C32 24.7969 32 26.7997 31.1958 28.3186C30.5468 29.5444 29.5444 30.5468 28.3186 31.1958C26.7997 32 24.7969 32 20.7913 32H11.2087C7.20306 32 5.20025 32 3.68135 31.1958C2.45561 30.5468 1.45321 29.5444 0.804216 28.3186C0 26.7997 0 24.7969 0 20.7913V11.2087Z" fill="#AEEFA2"/>
<path d="M7.08235 10.8845L7.23232 10.6205C7.85094 9.39443 8.43207 9.24354 9.65055 9.94142L14.0371 12.5444V7.35735C14.0371 6.05589 14.487 5.62206 15.8742 5.62206H16.1554C17.5239 5.62206 17.9738 6.05589 17.9738 7.35735V12.5444L22.3603 9.94142C23.5788 9.22468 24.1599 9.39443 24.7786 10.6205L24.9285 10.8845C25.5659 12.0917 25.3972 12.6764 24.2724 13.28L19.6609 15.8075L24.2912 18.467C25.3784 19.1083 25.5097 19.6741 24.891 20.8813L24.7598 21.1265C24.1412 22.3525 23.5601 22.5034 22.3791 21.8055L17.9738 19.2026V24.3896C17.9738 25.7288 17.5239 26.1626 16.1554 26.1626H15.8742C14.487 26.1626 14.0371 25.7288 14.0371 24.3896V19.2026L9.61306 21.8055C8.4883 22.4845 7.90718 22.3337 7.23232 21.1265L7.1011 20.8813C6.42625 19.693 6.59496 19.1271 7.71972 18.467L12.3312 15.8075L7.73846 13.28C6.6137 12.6764 6.44499 12.0917 7.08235 10.8845Z" fill="#193914"/>
</svg>
