<svg xmlns="http://www.w3.org/2000/svg" width="64" height="64" viewBox="0 0 64 64" fill="currentColor">
  <path d="M57.8931 54.1069L47.9997 44.2936C51.84 39.5053 53.6998 33.4277 53.1966 27.3104C52.6934 21.193 49.8655 15.501 45.2945 11.4046C40.7234 7.30825 34.7566 5.11893 28.6209 5.28682C22.4852 5.45472 16.647 7.96707 12.3068 12.3073C7.96658 16.6475 5.45423 22.4857 5.28633 28.6214C5.11844 34.757 7.30776 40.7239 11.4041 45.2949C15.5005 49.866 21.1925 52.6939 27.3099 53.1971C33.4272 53.7002 39.5048 51.8405 44.2931 48.0002L54.1064 57.8136C54.3543 58.0635 54.6492 58.2619 54.9742 58.3973C55.2992 58.5327 55.6477 58.6024 55.9997 58.6024C56.3518 58.6024 56.7003 58.5327 57.0253 58.3973C57.3502 58.2619 57.6452 58.0635 57.8931 57.8136C58.3737 57.3163 58.6424 56.6518 58.6424 55.9602C58.6424 55.2687 58.3737 54.6041 57.8931 54.1069ZM29.3331 48.0002C25.6412 48.0002 22.0322 46.9055 18.9624 44.8543C15.8927 42.8032 13.5002 39.8879 12.0873 36.477C10.6745 33.0661 10.3048 29.3129 11.0251 25.6919C11.7453 22.0709 13.5232 18.7448 16.1338 16.1342C18.7443 13.5237 22.0704 11.7458 25.6914 11.0256C29.3124 10.3053 33.0656 10.675 36.4765 12.0878C39.8874 13.5007 42.8027 15.8932 44.8538 18.9629C46.905 22.0326 47.9997 25.6416 47.9997 29.3336C47.9997 34.2843 46.0331 39.0322 42.5324 42.5329C39.0317 46.0336 34.2838 48.0002 29.3331 48.0002ZM39.9997 26.6669H18.6664C17.9592 26.6669 17.2809 26.9479 16.7808 27.4479C16.2807 27.948 15.9997 28.6263 15.9997 29.3336C15.9997 30.0408 16.2807 30.7191 16.7808 31.2192C17.2809 31.7193 17.9592 32.0002 18.6664 32.0002H39.9997C40.707 32.0002 41.3853 31.7193 41.8854 31.2192C42.3855 30.7191 42.6664 30.0408 42.6664 29.3336C42.6664 28.6263 42.3855 27.948 41.8854 27.4479C41.3853 26.9479 40.707 26.6669 39.9997 26.6669Z" fill="black"/>
</svg>