<svg width="24" height="24" viewBox="0 0 24 24" fill="none" xmlns="http://www.w3.org/2000/svg">
<path fill-rule="evenodd" clip-rule="evenodd" d="M4.3335 10C4.3335 6.68629 7.01979 4 10.3335 4C13.6472 4 16.3335 6.68629 16.3335 10C16.3335 13.3137 13.6472 16 10.3335 16C7.01979 16 4.3335 13.3137 4.3335 10ZM10.3335 2C5.91522 2 2.3335 5.58172 2.3335 10C2.3335 14.4183 5.91522 18 10.3335 18C12.1828 18 13.8856 17.3725 15.2405 16.3188C15.2522 16.3318 15.2643 16.3445 15.2768 16.357L19.6268 20.707C20.0173 21.0975 20.6505 21.0975 21.041 20.707C21.4315 20.3165 21.4315 19.6833 21.041 19.2928L16.691 14.9428C16.6785 14.9303 16.6657 14.9182 16.6527 14.9065C17.7062 13.5516 18.3335 11.8491 18.3335 10C18.3335 5.58172 14.7518 2 10.3335 2Z" fill="currentColor"/>
</svg>
