<svg width="24" height="24" viewBox="0 0 24 24" fill="none" xmlns="http://www.w3.org/2000/svg">
<path d="M6 6.5C6 5.39543 6.89543 4.5 8 4.5H18C19.1046 4.5 20 5.39543 20 6.5V19C20 19.8284 19.3284 20.5 18.5 20.5H17.5C16.9477 20.5 16.5 20.9477 16.5 21.5C16.5 22.0523 16.9477 22.5 17.5 22.5H18.5C20.433 22.5 22 20.933 22 19V6.5C22 4.29086 20.2091 2.5 18 2.5H8C5.79086 2.5 4 4.29086 4 6.5V8C4 8.55228 4.44772 9 5 9C5.55228 9 6 8.55228 6 8V6.5Z" fill="currentColor"/>
<path d="M9 6C8.44772 6 8 6.44772 8 7C8 7.55228 8.44772 8 9 8H17C17.5523 8 18 7.55228 18 7C18 6.44772 17.5523 6 17 6H9Z" fill="currentColor"/>
<path d="M14.5 10C13.9477 10 13.5 10.4477 13.5 11C13.5 11.5523 13.9477 12 14.5 12H17C17.5523 12 18 11.5523 18 11C18 10.4477 17.5523 10 17 10H14.5Z" fill="currentColor"/>
<path fill-rule="evenodd" clip-rule="evenodd" d="M4.33337 13.5C4.33337 11.4048 5.86752 9.5 8.00004 9.5C10.1326 9.5 11.6667 11.4048 11.6667 13.5C11.6667 14.472 11.3365 15.4031 10.7695 16.122C13.8628 17.0569 15 19.1556 15 20.5V20.6667C15 21.9554 13.9553 23 12.6667 23H3.33333C2.04467 23 1 21.9554 1 20.6667V20.5C1 19.1556 2.13721 17.0569 5.23058 16.122C4.66359 15.4031 4.33337 14.472 4.33337 13.5ZM8.00004 11.5C7.18704 11.5 6.33337 12.2814 6.33337 13.5C6.33337 14.7186 7.18704 15.5 8.00004 15.5C8.81304 15.5 9.66671 14.7186 9.66671 13.5C9.66671 12.2814 8.81304 11.5 8.00004 11.5ZM3 20.5C3 20.1834 3.61464 17.9305 8 17.6683C12.3854 17.9305 13 20.1834 13 20.5V20.6667C13 20.8508 12.8508 21 12.6667 21H3.33333C3.14924 21 3 20.8508 3 20.6667V20.5Z" fill="currentColor"/>
</svg>
