<svg width="24" height="24" viewBox="0 0 24 24" fill="none" xmlns="http://www.w3.org/2000/svg">
<path d="M21.6758 9.3375L20.1406 10.65C20.2133 11.0953 20.2508 11.55 20.2508 12.0047C20.2508 12.4594 20.2133 12.9141 20.1406 13.3594L21.6758 14.6719C21.7916 14.771 21.8744 14.903 21.9134 15.0504C21.9523 15.1978 21.9455 15.3535 21.8938 15.4969L21.8727 15.5578C21.45 16.739 20.8172 17.834 20.0047 18.7898L19.9625 18.8391C19.8639 18.955 19.7326 19.0383 19.5857 19.078C19.4389 19.1178 19.2834 19.1121 19.1398 19.0617L17.2344 18.3844C16.5313 18.9609 15.7461 19.4156 14.8977 19.7344L14.5297 21.7266C14.5019 21.8765 14.4292 22.0144 14.3212 22.122C14.2132 22.2295 14.075 22.3017 13.925 22.3289L13.8617 22.3406C12.6406 22.5609 11.3563 22.5609 10.1352 22.3406L10.0719 22.3289C9.92187 22.3017 9.78368 22.2295 9.67568 22.122C9.56767 22.0144 9.49495 21.8765 9.46719 21.7266L9.09688 19.725C8.25521 19.4062 7.47141 18.9517 6.77657 18.3797L4.85704 19.0617C4.71352 19.1125 4.55795 19.1184 4.41101 19.0786C4.26407 19.0388 4.1327 18.9553 4.03438 18.8391L3.99219 18.7898C3.18066 17.8333 2.54792 16.7385 2.12422 15.5578L2.10313 15.4969C1.99766 15.2039 2.08438 14.8758 2.3211 14.6719L3.875 13.3453C3.80235 12.9047 3.76719 12.4547 3.76719 12.007C3.76719 11.557 3.80235 11.107 3.875 10.6687L2.3211 9.34219C2.2053 9.24306 2.12243 9.11104 2.0835 8.96367C2.04456 8.8163 2.05141 8.66057 2.10313 8.51719L2.12422 8.45625C2.54844 7.275 3.17656 6.18516 3.99219 5.22422L4.03438 5.175C4.13294 5.05911 4.26431 4.9758 4.41116 4.93605C4.55802 4.8963 4.71347 4.90198 4.85703 4.95234L6.77656 5.63437C7.475 5.06015 8.25547 4.60547 9.09688 4.28906L9.46719 2.2875C9.49495 2.1376 9.56767 1.99969 9.67567 1.8921C9.78368 1.78451 9.92187 1.71233 10.0719 1.68515L10.1352 1.67344C11.3675 1.45194 12.6294 1.45194 13.8617 1.67344L13.925 1.68515C14.075 1.71233 14.2132 1.78451 14.3212 1.8921C14.4292 1.99969 14.5019 2.1376 14.5297 2.2875L14.8977 4.27968C15.7458 4.5976 16.5353 5.05377 17.2344 5.62968L19.1398 4.95234C19.2834 4.90158 19.4389 4.89569 19.5859 4.93546C19.7328 4.97524 19.8642 5.05878 19.9625 5.175L20.0047 5.22422C20.8203 6.1875 21.4484 7.275 21.8727 8.45625L21.8938 8.51718C21.9992 8.80546 21.9125 9.13359 21.6758 9.3375ZM18.4766 13.0828C18.5352 12.7289 18.5656 12.3656 18.5656 12.0023C18.5656 11.6391 18.5352 11.2758 18.4766 10.9219L18.3219 9.98203L20.0727 8.48437C19.8072 7.87291 19.4722 7.29409 19.0742 6.75937L16.8992 7.53047L16.1633 6.92578C15.6031 6.4664 14.9797 6.10546 14.3047 5.85234L13.4117 5.51719L12.9922 3.24375C12.3302 3.16875 11.6619 3.16875 11 3.24375L10.5805 5.52187L9.69453 5.86172C9.02656 6.11484 8.40547 6.47578 7.85 6.93281L7.11406 7.53984L4.925 6.76172C4.52656 7.29844 4.19375 7.87734 3.92656 8.48672L5.6961 9.99844L5.54375 10.9359C5.4875 11.2852 5.45703 11.6461 5.45703 12.0023C5.45703 12.3609 5.48516 12.7195 5.54375 13.0687L5.6961 14.0062L3.92657 15.518C4.19141 16.1297 4.52657 16.7062 4.925 17.243L7.11407 16.4648L7.85 17.0719C8.40547 17.5289 9.02657 17.8898 9.69454 18.143L10.5828 18.4781L11.0023 20.7562C11.6609 20.8312 12.3336 20.8312 12.9945 20.7562L13.4141 18.4828L14.307 18.1477C14.9797 17.8945 15.6055 17.5336 16.1656 17.0742L16.9016 16.4695L19.0766 17.2406C19.475 16.7039 19.8078 16.125 20.075 15.5156L18.3242 14.018L18.4766 13.0828ZM12.0008 16.3617C9.72266 16.3617 7.87578 14.5148 7.87578 12.2367C7.87578 9.95859 9.72266 8.11172 12.0008 8.11172C14.2789 8.11172 16.1258 9.95859 16.1258 12.2367C16.1258 14.5148 14.2789 16.3617 12.0008 16.3617ZM13.857 10.3805C13.6136 10.1363 13.3242 9.94269 13.0057 9.81075C12.6871 9.67882 12.3456 9.61118 12.0008 9.61172C11.3 9.61172 10.6414 9.88594 10.1445 10.3805C9.90037 10.6239 9.70675 10.9133 9.57482 11.2318C9.44289 11.5504 9.37525 11.8919 9.37578 12.2367C9.37578 12.9375 9.65 13.5961 10.1445 14.093C10.6414 14.5898 11.3 14.8617 12.0008 14.8617C12.7016 14.8617 13.3602 14.5898 13.857 14.093C14.1012 13.8495 14.2948 13.5602 14.4267 13.2416C14.5587 12.923 14.6263 12.5815 14.6258 12.2367C14.6258 11.5359 14.3516 10.8773 13.857 10.3805Z" fill="currentColor" fill-opacity="1"/>
</svg>
