<svg width="24" height="24" viewBox="0 0 24 24" fill="none" xmlns="http://www.w3.org/2000/svg">
    <path d="M4 18L4 12C4 10.8954 4.89543 10 6 10L8 10C8.55228 10 9 9.55228 9 9C9 8.44771 8.55228 8 8 8L6 8C3.79086 8 2 9.79086 2 12L2 18C2 20.2091 3.79086 22 6 22L18 22C20.2091 22 22 20.2091 22 18L22 12C22 9.79086 20.2091 8 18 8L16 8C15.4477 8 15 8.44771 15 9C15 9.55228 15.4477 10 16 10L18 10C19.1046 10 20 10.8954 20 12L20 18C20 19.1046 19.1046 20 18 20L6 20C4.89543 20 4 19.1046 4 18Z" fill="currentColor"/>
    <path d="M12 15.5C11.4477 15.5 11 15.0523 11 14.5L11 4.41421L9.70711 5.70711C9.31658 6.09763 8.68342 6.09763 8.29289 5.70711C7.90237 5.31658 7.90237 4.68342 8.29289 4.29289L11.2929 1.29289C11.6834 0.902368 12.3166 0.902368 12.7071 1.29289L15.7071 4.29289C16.0976 4.68342 16.0976 5.31658 15.7071 5.70711C15.3166 6.09763 14.6834 6.09763 14.2929 5.70711L13 4.41421L13 14.5C13 15.0523 12.5523 15.5 12 15.5Z" fill="currentColor"/>
</svg>
