<svg width="24" height="24" viewBox="0 0 24 24" fill="none" xmlns="http://www.w3.org/2000/svg">
<path d="M15.3107 4.25746C15.4447 3.72166 15.9876 3.3959 16.5234 3.52985C18.8026 4.09964 22.7809 6.38974 22.7809 12C22.7809 17.6102 18.8026 19.9003 16.5234 20.4701C15.9876 20.6041 15.4447 20.2783 15.3107 19.7425C15.1768 19.2067 15.5025 18.6638 16.0383 18.5299C17.7592 18.0996 20.7809 16.3897 20.7809 12C20.7809 7.61024 17.7592 5.90034 16.0383 5.47013C15.5025 5.33619 15.1768 4.79325 15.3107 4.25746Z" fill="currentColor"/>
<path fill-rule="evenodd" clip-rule="evenodd" d="M12.4283 3.59869C12.7748 3.76521 12.9952 4.11559 12.9952 4.49999V19.5C12.9952 19.8844 12.7748 20.2348 12.4283 20.4013C12.0819 20.5678 11.6706 20.521 11.3705 20.2809L6.89375 16.6995C6.50113 16.3854 6.0133 16.2143 5.5105 16.2143H3.95944C2.51955 16.2143 1.35229 15.047 1.35229 13.6071V10.3928C1.35229 8.95296 2.51955 7.78571 3.95944 7.78571H5.5105C6.0133 7.78571 6.50113 7.61458 6.89375 7.30049L11.3705 3.71912C11.6706 3.47899 12.0819 3.43217 12.4283 3.59869ZM10.9952 6.58062L8.14314 8.86223C7.39589 9.46002 6.46744 9.78571 5.5105 9.78571H3.95944C3.62412 9.78571 3.35229 10.0575 3.35229 10.3928V13.6071C3.35229 13.9424 3.62412 14.2143 3.95944 14.2143H5.5105C6.46744 14.2143 7.3959 14.54 8.14314 15.1378L10.9952 17.4194V6.58062Z" fill="currentColor"/>
<path d="M16.8709 8.10556C16.377 7.85858 15.7763 8.0588 15.5293 8.55278C15.2823 9.04676 15.4825 9.64743 15.9765 9.89442C16.3076 10.06 17.138 10.7633 17.138 12C17.138 13.2367 16.3076 13.94 15.9765 14.1056C15.4825 14.3526 15.2823 14.9532 15.5293 15.4472C15.7763 15.9412 16.377 16.1414 16.8709 15.8944C17.6827 15.4885 19.138 14.1918 19.138 12C19.138 9.80814 17.6827 8.51145 16.8709 8.10556Z" fill="currentColor"/>
</svg>
