<svg width="15" height="15" viewBox="0 0 15 15" fill="none" xmlns="http://www.w3.org/2000/svg">
<path fill-rule="evenodd" clip-rule="evenodd" d="M9.70361 0.882155C9.70361 0.543053 9.50923 0.233968 9.2036 0.0870733C8.89797 -0.0598217 8.53518 -0.018521 8.27039 0.193314L4.10129 3.52859H0.882146C0.39495 3.52859 0 3.92354 0 4.41074V9.70362C0 10.1908 0.39495 10.5858 0.882146 10.5858H4.10129L8.27039 13.921C8.53518 14.1329 8.89797 14.1742 9.2036 14.0273C9.50923 13.8804 9.70361 13.5713 9.70361 13.2322V0.882155ZM4.9618 5.09958L7.93932 2.71757V11.3968L4.9618 9.01478C4.80539 8.88964 4.61104 8.82147 4.41073 8.82147H1.76429V5.29289H4.41073C4.61104 5.29289 4.80539 5.22471 4.9618 5.09958Z" fill="white"/>
<path d="M13.4503 3.31066C13.1059 2.96611 12.5473 2.96603 12.2028 3.31048C11.8582 3.65492 11.8581 4.21347 12.2026 4.55802C12.8641 5.21973 13.2357 6.11707 13.2357 7.05273C13.2357 7.98838 12.8641 8.88573 12.2026 9.54744C11.8581 9.89199 11.8582 10.4505 12.2028 10.795C12.5473 11.1394 13.1059 11.1393 13.4503 10.7948C14.4426 9.80223 15 8.45621 15 7.05273C15 5.64925 14.4426 4.30323 13.4503 3.31066Z" fill="white"/>
</svg>
