<svg width="12" height="12" viewBox="0 0 12 12" fill="none" xmlns="http://www.w3.org/2000/svg">
    <path d="M5.56512 0.766501C5.75671 0.428813 6.24329 0.428814 6.43488 0.766501L7.79939 3.17152C7.87061 3.29705 7.99261 3.38568 8.134 3.41463L10.843 3.96916C11.2233 4.04702 11.3737 4.50979 11.1117 4.79636L9.24609 6.83728C9.14871 6.9438 9.10211 7.08721 9.11828 7.23063L9.428 9.97837C9.47149 10.3642 9.07783 10.6502 8.72435 10.4896L6.2068 9.34594C6.0754 9.28625 5.9246 9.28625 5.7932 9.34594L3.27565 10.4896C2.92217 10.6502 2.52851 10.3642 2.572 9.97837L2.88172 7.23063C2.89789 7.08721 2.85129 6.9438 2.75391 6.83728L0.888261 4.79636C0.626305 4.50979 0.776668 4.04702 1.15703 3.96916L3.866 3.41463C4.00739 3.38568 4.12939 3.29705 4.20061 3.17152L5.56512 0.766501Z" fill="currentColor"/>
</svg>
