<svg width="24" height="24" viewBox="0 0 24 24" fill="none" xmlns="http://www.w3.org/2000/svg">
<path d="M9 10C9 9.44772 9.44772 9 10 9C10.5523 9 11 9.44772 11 10V17C11 17.5523 10.5523 18 10 18C9.44772 18 9 17.5523 9 17V10Z" fill="currentColor"/>
<path d="M14 9C13.4477 9 13 9.44772 13 10V17C13 17.5523 13.4477 18 14 18C14.5523 18 15 17.5523 15 17V10C15 9.44772 14.5523 9 14 9Z" fill="currentColor"/>
<path fill-rule="evenodd" clip-rule="evenodd" d="M8 5V4C8 2.89543 8.89543 2 10 2H14C15.1046 2 16 2.89543 16 4V5H20C20.5523 5 21 5.44772 21 6C21 6.55228 20.5523 7 20 7H19.9312C19.9311 7.04405 19.9296 7.08841 19.9267 7.13304L19.1222 19.1996C19.0172 20.7754 17.7083 22 16.1289 22H7.8711C6.2917 22 4.9828 20.7755 4.87774 19.1996L4.07331 7.13304C4.07033 7.08841 4.06884 7.04405 4.06879 7H4C3.44772 7 3 6.55228 3 6C3 5.44772 3.44772 5 4 5H8ZM10 4H14V5H10V4ZM6.06888 7L6.87331 19.0665C6.90833 19.5918 7.34463 20 7.8711 20H16.1289C16.6553 20 17.0917 19.5918 17.1267 19.0665L17.9311 7L6.06888 7Z" fill="currentColor"/>
</svg>
