<svg width="18" height="20" viewBox="0 0 18 20" fill="none" xmlns="http://www.w3.org/2000/svg">
<path d="M12 8C12 7.44772 11.5523 7 11 7C10.4477 7 10 7.44772 10 8L10 15C10 15.5523 10.4477 16 11 16C11.5523 16 12 15.5523 12 15L12 8Z" fill="#FF5555"/>
<path d="M7 7C7.55228 7 8 7.44772 8 8L8 15C8 15.5523 7.55229 16 7 16C6.44772 16 6 15.5523 6 15L6 8C6 7.44772 6.44772 7 7 7Z" fill="#FF5555"/>
<path fill-rule="evenodd" clip-rule="evenodd" d="M13 3L13 2C13 0.895431 12.1046 5.15395e-07 11 6.11959e-07L7 9.61651e-07C5.89543 1.05822e-06 5 0.895432 5 2L5 3L1 3C0.447716 3 3.01409e-07 3.44772 3.49691e-07 4C3.97973e-07 4.55229 0.447716 5 1 5L1.06881 5C1.06886 5.04405 1.07035 5.08842 1.07333 5.13304L1.87776 17.1996C1.98282 18.7755 3.29173 20 4.87112 20L13.1289 20C14.7083 20 16.0172 18.7755 16.1223 17.1996L16.9267 5.13304C16.9297 5.08841 16.9312 5.04405 16.9312 5L17 5C17.5523 5 18 4.55228 18 4C18 3.44772 17.5523 3 17 3L13 3ZM11 2L7 2L7 3L11 3L11 2ZM14.9311 5L14.1267 17.0665C14.0917 17.5918 13.6554 18 13.1289 18L4.87112 18C4.34465 18 3.90835 17.5918 3.87333 17.0665L3.0689 5L14.9311 5Z" fill="#FF5555"/>
</svg>
