<svg width="24" height="24" viewBox="0 0 24 24" fill="none" xmlns="http://www.w3.org/2000/svg">
    <path fill-rule="evenodd" clip-rule="evenodd" d="M17.6087 4.33037C16.5114 3.2331 14.7324 3.2331 13.6351 4.33037L5.65954 12.306C3.82814 14.1374 3.82813 17.1067 5.65954 18.9381C7.49094 20.7695 10.4602 20.7695 12.2916 18.9381L20.2672 10.9625C20.6382 10.5915 21.2397 10.5915 21.6107 10.9625C21.9817 11.3335 21.9817 11.935 21.6107 12.306L13.6351 20.2816C11.0617 22.855 6.88943 22.855 4.31603 20.2816C1.74264 17.7082 1.74264 13.5359 4.31604 10.9625L12.2916 2.98687C14.1309 1.14761 17.1129 1.1476 18.9522 2.98687C20.7915 4.82614 20.7915 7.80817 18.9522 9.64744L10.9766 17.623C9.87147 18.7282 8.0797 18.7282 6.97457 17.623C5.86944 16.5179 5.86944 14.7261 6.97457 13.621L14.2855 6.31004C14.6565 5.93904 15.258 5.93904 15.629 6.31004C16 6.68103 16 7.28254 15.629 7.65354L8.31807 14.9645C7.95494 15.3276 7.95494 15.9164 8.31807 16.2795C8.68121 16.6427 9.26997 16.6427 9.6331 16.2795L17.6087 8.30394C18.706 7.20667 18.706 5.42764 17.6087 4.33037Z" fill="currentColor"/>
</svg>
