<svg width="20" height="18" viewBox="0 0 20 18" fill="none" xmlns="http://www.w3.org/2000/svg">
<mask id="path-1-inside-1_8134_12560" fill="white">
<path d="M19 7.5H18V6.5C18 6.23478 17.8946 5.98043 17.7071 5.79289C17.5196 5.60536 17.2652 5.5 17 5.5C16.7348 5.5 16.4804 5.60536 16.2929 5.79289C16.1054 5.98043 16 6.23478 16 6.5V7.5H15C14.7348 7.5 14.4804 7.60536 14.2929 7.79289C14.1054 7.98043 14 8.23478 14 8.5C14 8.76522 14.1054 9.01957 14.2929 9.20711C14.4804 9.39464 14.7348 9.5 15 9.5H16V10.5C16 10.7652 16.1054 11.0196 16.2929 11.2071C16.4804 11.3946 16.7348 11.5 17 11.5C17.2652 11.5 17.5196 11.3946 17.7071 11.2071C17.8946 11.0196 18 10.7652 18 10.5V9.5H19C19.2652 9.5 19.5196 9.39464 19.7071 9.20711C19.8946 9.01957 20 8.76522 20 8.5C20 8.23478 19.8946 7.98043 19.7071 7.79289C19.5196 7.60536 19.2652 7.5 19 7.5ZM11.3 9.22C11.8336 8.75813 12.2616 8.18688 12.5549 7.54502C12.8482 6.90316 13 6.20571 13 5.5C13 4.17392 12.4732 2.90215 11.5355 1.96447C10.5979 1.02678 9.32608 0.5 8 0.5C6.67392 0.5 5.40215 1.02678 4.46447 1.96447C3.52678 2.90215 3 4.17392 3 5.5C2.99999 6.20571 3.1518 6.90316 3.44513 7.54502C3.73845 8.18688 4.16642 8.75813 4.7 9.22C3.30014 9.85388 2.11247 10.8775 1.27898 12.1685C0.445495 13.4596 0.00147185 14.9633 0 16.5C0 16.7652 0.105357 17.0196 0.292893 17.2071C0.48043 17.3946 0.734784 17.5 1 17.5C1.26522 17.5 1.51957 17.3946 1.70711 17.2071C1.89464 17.0196 2 16.7652 2 16.5C2 14.9087 2.63214 13.3826 3.75736 12.2574C4.88258 11.1321 6.4087 10.5 8 10.5C9.5913 10.5 11.1174 11.1321 12.2426 12.2574C13.3679 13.3826 14 14.9087 14 16.5C14 16.7652 14.1054 17.0196 14.2929 17.2071C14.4804 17.3946 14.7348 17.5 15 17.5C15.2652 17.5 15.5196 17.3946 15.7071 17.2071C15.8946 17.0196 16 16.7652 16 16.5C15.9985 14.9633 15.5545 13.4596 14.721 12.1685C13.8875 10.8775 12.6999 9.85388 11.3 9.22ZM8 8.5C7.40666 8.5 6.82664 8.32405 6.33329 7.99441C5.83994 7.66476 5.45542 7.19623 5.22836 6.64805C5.0013 6.09987 4.94189 5.49667 5.05764 4.91473C5.1734 4.33279 5.45912 3.79824 5.87868 3.37868C6.29824 2.95912 6.83279 2.6734 7.41473 2.55764C7.99667 2.44189 8.59987 2.5013 9.14805 2.72836C9.69623 2.95542 10.1648 3.33994 10.4944 3.83329C10.8241 4.32664 11 4.90666 11 5.5C11 6.29565 10.6839 7.05871 10.1213 7.62132C9.55871 8.18393 8.79565 8.5 8 8.5Z"/>
</mask>
<path d="M19 7.5H18V6.5C18 6.23478 17.8946 5.98043 17.7071 5.79289C17.5196 5.60536 17.2652 5.5 17 5.5C16.7348 5.5 16.4804 5.60536 16.2929 5.79289C16.1054 5.98043 16 6.23478 16 6.5V7.5H15C14.7348 7.5 14.4804 7.60536 14.2929 7.79289C14.1054 7.98043 14 8.23478 14 8.5C14 8.76522 14.1054 9.01957 14.2929 9.20711C14.4804 9.39464 14.7348 9.5 15 9.5H16V10.5C16 10.7652 16.1054 11.0196 16.2929 11.2071C16.4804 11.3946 16.7348 11.5 17 11.5C17.2652 11.5 17.5196 11.3946 17.7071 11.2071C17.8946 11.0196 18 10.7652 18 10.5V9.5H19C19.2652 9.5 19.5196 9.39464 19.7071 9.20711C19.8946 9.01957 20 8.76522 20 8.5C20 8.23478 19.8946 7.98043 19.7071 7.79289C19.5196 7.60536 19.2652 7.5 19 7.5ZM11.3 9.22C11.8336 8.75813 12.2616 8.18688 12.5549 7.54502C12.8482 6.90316 13 6.20571 13 5.5C13 4.17392 12.4732 2.90215 11.5355 1.96447C10.5979 1.02678 9.32608 0.5 8 0.5C6.67392 0.5 5.40215 1.02678 4.46447 1.96447C3.52678 2.90215 3 4.17392 3 5.5C2.99999 6.20571 3.1518 6.90316 3.44513 7.54502C3.73845 8.18688 4.16642 8.75813 4.7 9.22C3.30014 9.85388 2.11247 10.8775 1.27898 12.1685C0.445495 13.4596 0.00147185 14.9633 0 16.5C0 16.7652 0.105357 17.0196 0.292893 17.2071C0.48043 17.3946 0.734784 17.5 1 17.5C1.26522 17.5 1.51957 17.3946 1.70711 17.2071C1.89464 17.0196 2 16.7652 2 16.5C2 14.9087 2.63214 13.3826 3.75736 12.2574C4.88258 11.1321 6.4087 10.5 8 10.5C9.5913 10.5 11.1174 11.1321 12.2426 12.2574C13.3679 13.3826 14 14.9087 14 16.5C14 16.7652 14.1054 17.0196 14.2929 17.2071C14.4804 17.3946 14.7348 17.5 15 17.5C15.2652 17.5 15.5196 17.3946 15.7071 17.2071C15.8946 17.0196 16 16.7652 16 16.5C15.9985 14.9633 15.5545 13.4596 14.721 12.1685C13.8875 10.8775 12.6999 9.85388 11.3 9.22ZM8 8.5C7.40666 8.5 6.82664 8.32405 6.33329 7.99441C5.83994 7.66476 5.45542 7.19623 5.22836 6.64805C5.0013 6.09987 4.94189 5.49667 5.05764 4.91473C5.1734 4.33279 5.45912 3.79824 5.87868 3.37868C6.29824 2.95912 6.83279 2.6734 7.41473 2.55764C7.99667 2.44189 8.59987 2.5013 9.14805 2.72836C9.69623 2.95542 10.1648 3.33994 10.4944 3.83329C10.8241 4.32664 11 4.90666 11 5.5C11 6.29565 10.6839 7.05871 10.1213 7.62132C9.55871 8.18393 8.79565 8.5 8 8.5Z" fill="black"/>
<path d="M18 7.5H16V9.5H18V7.5ZM16 7.5V9.5H18V7.5H16ZM16 9.5H18V7.5H16V9.5ZM18 9.5V7.5H16V9.5H18ZM13 5.5H11V5.50002L13 5.5ZM3 5.5L5 5.50002V5.5H3ZM4.7 9.22L5.525 11.0419L8.37158 9.75293L6.00894 7.70783L4.7 9.22ZM0 16.5L-2 16.4981V16.5H0ZM2 16.5H4H2ZM8 10.5V8.5V10.5ZM14 16.5H16H14ZM16 16.5H18V16.4981L16 16.5ZM11 5.5H13H11ZM19 5.5H18V9.5H19V5.5ZM20 7.5V6.5H16V7.5H20ZM20 6.5C20 5.70435 19.6839 4.94129 19.1213 4.37868L16.2929 7.20711C16.1054 7.01957 16 6.76521 16 6.5H20ZM19.1213 4.37868C18.5587 3.81607 17.7956 3.5 17 3.5V7.5C16.7348 7.5 16.4804 7.39464 16.2929 7.20711L19.1213 4.37868ZM17 3.5C16.2044 3.5 15.4413 3.81607 14.8787 4.37868L17.7071 7.20711C17.5196 7.39464 17.2652 7.5 17 7.5V3.5ZM14.8787 4.37868C14.3161 4.94129 14 5.70435 14 6.5H18C18 6.76521 17.8946 7.01957 17.7071 7.20711L14.8787 4.37868ZM14 6.5V7.5H18V6.5H14ZM16 5.5H15V9.5H16V5.5ZM15 5.5C14.2044 5.5 13.4413 5.81607 12.8787 6.37868L15.7071 9.20711C15.5196 9.39464 15.2652 9.5 15 9.5V5.5ZM12.8787 6.37868C12.3161 6.94129 12 7.70435 12 8.5H16C16 8.76521 15.8946 9.01957 15.7071 9.20711L12.8787 6.37868ZM12 8.5C12 9.29565 12.3161 10.0587 12.8787 10.6213L15.7071 7.79289C15.8946 7.98043 16 8.23479 16 8.5H12ZM12.8787 10.6213C13.4413 11.1839 14.2044 11.5 15 11.5V7.5C15.2652 7.5 15.5196 7.60536 15.7071 7.79289L12.8787 10.6213ZM15 11.5H16V7.5H15V11.5ZM14 9.5V10.5H18V9.5H14ZM14 10.5C14 11.2956 14.3161 12.0587 14.8787 12.6213L17.7071 9.79289C17.8946 9.98043 18 10.2348 18 10.5H14ZM14.8787 12.6213C15.4413 13.1839 16.2044 13.5 17 13.5V9.5C17.2652 9.5 17.5196 9.60536 17.7071 9.79289L14.8787 12.6213ZM17 13.5C17.7956 13.5 18.5587 13.1839 19.1213 12.6213L16.2929 9.79289C16.4804 9.60536 16.7348 9.5 17 9.5V13.5ZM19.1213 12.6213C19.6839 12.0587 20 11.2956 20 10.5H16C16 10.2348 16.1054 9.98043 16.2929 9.79289L19.1213 12.6213ZM20 10.5V9.5H16V10.5H20ZM18 11.5H19V7.5H18V11.5ZM19 11.5C19.7956 11.5 20.5587 11.1839 21.1213 10.6213L18.2929 7.79289C18.4804 7.60536 18.7348 7.5 19 7.5V11.5ZM21.1213 10.6213C21.6839 10.0587 22 9.29565 22 8.5H18C18 8.23479 18.1054 7.98043 18.2929 7.79289L21.1213 10.6213ZM22 8.5C22 7.70435 21.6839 6.94129 21.1213 6.37868L18.2929 9.20711C18.1054 9.01957 18 8.76521 18 8.5H22ZM21.1213 6.37868C20.5587 5.81607 19.7956 5.5 19 5.5V9.5C18.7348 9.5 18.4804 9.39464 18.2929 9.20711L21.1213 6.37868ZM12.6089 10.7322C13.3594 10.0826 13.9614 9.27909 14.3739 8.37631L10.7358 6.71373C10.5617 7.09468 10.3077 7.43371 9.99106 7.70783L12.6089 10.7322ZM14.3739 8.37631C14.7865 7.47353 15 6.49256 15 5.49998L11 5.50002C11 5.91886 10.9099 6.33279 10.7358 6.71373L14.3739 8.37631ZM15 5.5C15 3.64348 14.2625 1.86301 12.9497 0.550253L10.1213 3.37868C10.6839 3.94129 11 4.70435 11 5.5H15ZM12.9497 0.550253C11.637 -0.762502 9.85652 -1.5 8 -1.5V2.5C8.79565 2.5 9.55871 2.81607 10.1213 3.37868L12.9497 0.550253ZM8 -1.5C6.14348 -1.5 4.36301 -0.762502 3.05025 0.550253L5.87868 3.37868C6.44129 2.81607 7.20435 2.5 8 2.5V-1.5ZM3.05025 0.550253C1.7375 1.86301 1 3.64348 1 5.5H5C5 4.70435 5.31607 3.94129 5.87868 3.37868L3.05025 0.550253ZM1 5.49998C0.999989 6.49256 1.21351 7.47353 1.62607 8.37631L5.26418 6.71373C5.09009 6.33279 5 5.91886 5 5.50002L1 5.49998ZM1.62607 8.37631C2.03863 9.27909 2.64058 10.0826 3.39106 10.7322L6.00894 7.70783C5.69227 7.43371 5.43827 7.09468 5.26418 6.71373L1.62607 8.37631ZM3.875 7.39808C2.12518 8.19044 0.640583 9.47 -0.401274 11.0838L2.95923 13.2533C3.58435 12.2851 4.4751 11.5173 5.525 11.0419L3.875 7.39808ZM-0.401274 11.0838C-1.44313 12.6975 -1.99816 14.5772 -2 16.4981L2 16.5019C2.0011 15.3494 2.33412 14.2216 2.95923 13.2533L-0.401274 11.0838ZM-2 16.5C-2 17.2956 -1.68393 18.0587 -1.12132 18.6213L1.70711 15.7929C1.89464 15.9804 2 16.2348 2 16.5H-2ZM-1.12132 18.6213C-0.558708 19.1839 0.204355 19.5 1 19.5V15.5C1.26521 15.5 1.51957 15.6054 1.70711 15.7929L-1.12132 18.6213ZM1 19.5C1.79565 19.5 2.55871 19.1839 3.12132 18.6213L0.292893 15.7929C0.480432 15.6054 0.734788 15.5 1 15.5V19.5ZM3.12132 18.6213C3.68393 18.0587 4 17.2956 4 16.5H0C0 16.2348 0.105356 15.9804 0.292893 15.7929L3.12132 18.6213ZM4 16.5C4 15.4391 4.42143 14.4217 5.17157 13.6716L2.34315 10.8431C0.842855 12.3434 0 14.3783 0 16.5H4ZM5.17157 13.6716C5.92172 12.9214 6.93913 12.5 8 12.5V8.5C5.87827 8.5 3.84344 9.34286 2.34315 10.8431L5.17157 13.6716ZM8 12.5C9.06087 12.5 10.0783 12.9214 10.8284 13.6716L13.6569 10.8431C12.1566 9.34286 10.1217 8.5 8 8.5V12.5ZM10.8284 13.6716C11.5786 14.4217 12 15.4391 12 16.5H16C16 14.3783 15.1571 12.3434 13.6569 10.8431L10.8284 13.6716ZM12 16.5C12 17.2956 12.3161 18.0587 12.8787 18.6213L15.7071 15.7929C15.8946 15.9804 16 16.2348 16 16.5H12ZM12.8787 18.6213C13.4413 19.1839 14.2044 19.5 15 19.5V15.5C15.2652 15.5 15.5196 15.6054 15.7071 15.7929L12.8787 18.6213ZM15 19.5C15.7956 19.5 16.5587 19.1839 17.1213 18.6213L14.2929 15.7929C14.4804 15.6054 14.7348 15.5 15 15.5V19.5ZM17.1213 18.6213C17.6839 18.0587 18 17.2956 18 16.5H14C14 16.2348 14.1054 15.9804 14.2929 15.7929L17.1213 18.6213ZM18 16.4981C17.9982 14.5772 17.4431 12.6975 16.4013 11.0838L13.0408 13.2533C13.6659 14.2216 13.9989 15.3494 14 16.5019L18 16.4981ZM16.4013 11.0838C15.3594 9.47 13.8748 8.19044 12.125 7.39808L10.475 11.0419C11.5249 11.5173 12.4157 12.2851 13.0408 13.2533L16.4013 11.0838ZM8 6.5C7.80222 6.5 7.60888 6.44135 7.44443 6.33147L5.22215 9.65735C6.04439 10.2068 7.01109 10.5 8 10.5V6.5ZM7.44443 6.33147C7.27998 6.22159 7.15181 6.06541 7.07612 5.88268L3.3806 7.41342C3.75904 8.32705 4.3999 9.10794 5.22215 9.65735L7.44443 6.33147ZM7.07612 5.88268C7.00043 5.69996 6.98063 5.49889 7.01922 5.30491L3.09607 4.52455C2.90315 5.49445 3.00216 6.49979 3.3806 7.41342L7.07612 5.88268ZM7.01922 5.30491C7.0578 5.11093 7.15304 4.93275 7.29289 4.79289L4.46447 1.96447C3.7652 2.66373 3.289 3.55464 3.09607 4.52455L7.01922 5.30491ZM7.29289 4.79289C7.43275 4.65304 7.61093 4.5578 7.80491 4.51922L7.02455 0.596074C6.05464 0.789 5.16373 1.2652 4.46447 1.96447L7.29289 4.79289ZM7.80491 4.51922C7.99889 4.48063 8.19996 4.50043 8.38268 4.57612L9.91342 0.880603C8.99979 0.502164 7.99445 0.403148 7.02455 0.596074L7.80491 4.51922ZM8.38268 4.57612C8.56541 4.65181 8.72159 4.77998 8.83147 4.94443L12.1573 2.72215C11.6079 1.8999 10.827 1.25904 9.91342 0.880603L8.38268 4.57612ZM8.83147 4.94443C8.94135 5.10888 9 5.30222 9 5.5H13C13 4.51109 12.7068 3.54439 12.1573 2.72215L8.83147 4.94443ZM9 5.5C9 5.76522 8.89464 6.01957 8.70711 6.20711L11.5355 9.03553C12.4732 8.09785 13 6.82608 13 5.5H9ZM8.70711 6.20711C8.51957 6.39464 8.26522 6.5 8 6.5V10.5C9.32608 10.5 10.5979 9.97322 11.5355 9.03553L8.70711 6.20711Z" fill="white" mask="url(#path-1-inside-1_8134_12560)"/>
</svg>
