<svg width="24" height="24" viewBox="0 0 24 24" fill="none" xmlns="http://www.w3.org/2000/svg">
<path d="M12 10.5C13.6569 10.5 15 9.15685 15 7.5C15 5.84315 13.6569 4.5 12 4.5C10.3431 4.5 9 5.84315 9 7.5C9 9.15685 10.3431 10.5 12 10.5Z" stroke="currentColor" stroke-width="1.5" stroke-linecap="round" stroke-linejoin="round"/>
<path d="M6 20.25V18.75C6 17.1587 6.63214 15.6326 7.75736 14.5074C8.88258 13.3821 10.4087 12.75 12 12.75C13.5913 12.75 15.1174 13.3821 16.2427 14.5074C17.3679 15.6326 18 17.1587 18 18.75V20.25" stroke="currentColor" stroke-width="1.5" stroke-linecap="round" stroke-linejoin="round"/>
<path d="M9.75 15.75V18.75" stroke="currentColor" stroke-width="1.5" stroke-linecap="round" stroke-linejoin="round"/>
<path d="M8.25 17.25H11.25" stroke="currentColor" stroke-width="1.5" stroke-linecap="round" stroke-linejoin="round"/>
</svg>
