<svg width="24" height="24" viewBox="0 0 24 24" fill="none" xmlns="http://www.w3.org/2000/svg">
    <path fill-rule="evenodd" clip-rule="evenodd" d="M12 2C9.1311 2 7 4.57642 7 7.5C7 9.47721 7.97472 11.2956 9.49317 12.2657C3.97729 13.1828 2 15.9642 2 18V19C2 20.6569 3.34315 22 5 22H19C20.6569 22 22 20.6569 22 19V18C22 15.9642 20.0227 13.1828 14.5068 12.2657C16.0253 11.2956 17 9.47721 17 7.5C17 4.57642 14.8689 2 12 2ZM9 7.5C9 5.45302 10.4506 4 12 4C13.5494 4 15 5.45302 15 7.5C15 9.54698 13.5494 11 12 11C10.4506 11 9 9.54698 9 7.5ZM4 18C4 17.3146 5.04264 14.4032 12 14.0016C18.9574 14.4032 20 17.3146 20 18V19C20 19.5523 19.5523 20 19 20H5C4.44772 20 4 19.5523 4 19V18Z" fill="currentColor"/>
</svg>
