<svg width="24" height="24" viewBox="0 0 24 24" fill="none" xmlns="http://www.w3.org/2000/svg">
<path d="M5.25006 6.00049C4.00742 6.00049 3.00006 7.00785 3.00006 8.25049V15.7505C3.00006 16.9931 4.00742 18.0005 5.25006 18.0005H14.2501C15.4927 18.0005 16.5001 16.9931 16.5001 15.7505V13.6018L19.7699 16.3267C19.9935 16.513 20.3046 16.5531 20.5682 16.4297C20.8317 16.3062 21.0001 16.0415 21.0001 15.7505V8.25049C21.0001 7.95948 20.8317 7.69473 20.5682 7.5713C20.3046 7.44786 19.9935 7.48802 19.7699 7.67432L16.5001 10.3992V8.25049C16.5001 7.00785 15.4927 6.00049 14.2501 6.00049H5.25006Z" fill="currentColor"/>
</svg>
