<svg width="28" height="40" viewBox="0 0 28 40" fill="none" xmlns="http://www.w3.org/2000/svg">
<path d="M14 20L2.6 11.45C2.41371 11.3103 2.2625 11.1291 2.15836 10.9208C2.05422 10.7125 2 10.4829 2 10.25V3.5C2 3.10218 2.15804 2.72064 2.43934 2.43934C2.72064 2.15804 3.10218 2 3.5 2H24.5C24.8978 2 25.2794 2.15804 25.5607 2.43934C25.842 2.72064 26 3.10218 26 3.5V10.1827C26 10.4146 25.9462 10.6434 25.8429 10.851C25.7396 11.0586 25.5895 11.2395 25.4045 11.3793L14 20Z" stroke="#F62F5A" stroke-width="3" stroke-linecap="round" stroke-linejoin="round"/>
<path d="M14 20L2.6 28.55C2.41371 28.6897 2.2625 28.8709 2.15836 29.0792C2.05422 29.2875 2 29.5171 2 29.75V36.5C2 36.8978 2.15804 37.2794 2.43934 37.5607C2.72064 37.842 3.10218 38 3.5 38H24.5C24.8978 38 25.2794 37.842 25.5607 37.5607C25.842 37.2794 26 36.8978 26 36.5V29.8173C26 29.5854 25.9462 29.3566 25.8429 29.149C25.7396 28.9414 25.5895 28.7605 25.4045 28.6207L14 20Z" stroke="#F62F5A" stroke-width="3" stroke-linecap="round" stroke-linejoin="round"/>
</svg>
