<svg width="24" height="24" viewBox="0 0 24 24" fill="none" xmlns="http://www.w3.org/2000/svg">
<path d="M19.5 11C18.9477 11 18.5 11.4477 18.5 12C18.5 12.5523 18.9477 13 19.5 13C20.0523 13 20.5 12.5523 20.5 12C20.5 11.4477 20.0523 11 19.5 11Z" fill="currentColor"/>
<path fill-rule="evenodd" clip-rule="evenodd" d="M0.5 7C0.5 4.79086 2.29086 3 4.5 3H19.5C21.7091 3 23.5 4.79086 23.5 7V17C23.5 19.2091 21.7091 21 19.5 21H4.5C2.29086 21 0.5 19.2091 0.5 17V7ZM4.5 5C3.39543 5 2.5 5.89543 2.5 7V17C2.5 18.1046 3.39543 19 4.5 19H19.5C20.6046 19 21.5 18.1046 21.5 17V16H17.5C15.8431 16 14.5 14.6569 14.5 13V11C14.5 9.34315 15.8431 8 17.5 8H21.5V7C21.5 5.89543 20.6046 5 19.5 5H4.5ZM17.5 10H21.5V14H17.5C16.9477 14 16.5 13.5523 16.5 13V11C16.5 10.4477 16.9477 10 17.5 10Z" fill="currentColor"/>
</svg>
