<svg width="24" height="24" viewBox="0 0 24 24" fill="none" xmlns="http://www.w3.org/2000/svg">
<path d="M18.4756 5.17765C17.8905 4.9932 17.2329 4.90365 16.4732 4.85677C15.6049 4.80319 14.5496 4.80319 13.255 4.8032H10.3327C8.80279 4.80319 7.6034 4.80319 6.64521 4.89429C5.66854 4.98715 4.86882 5.17969 4.16384 5.61171C3.42558 6.06411 2.80488 6.68482 2.35247 7.42308C2.33645 7.44923 2.32075 7.47552 2.30537 7.50194C2.37913 6.12489 2.57176 5.21286 3.07493 4.49086C3.33824 4.11302 3.65695 3.78075 4.01937 3.50624C5.14155 2.65625 6.74231 2.65625 9.94385 2.65625H15.0667C16.6766 2.65625 17.4816 2.65625 17.9817 3.17767C18.3659 3.57814 18.455 4.16606 18.4756 5.17765Z" fill="#1A1D21"/>
<path d="M2.96257 7.797C2.25952 8.94428 2.25952 10.506 2.25952 13.6295C2.25952 16.753 2.25952 18.3148 2.96257 19.4621C3.35597 20.104 3.89571 20.6438 4.53768 21.0372C5.68495 21.7402 7.24671 21.7402 10.3702 21.7402H13.2328C16.3563 21.7402 17.9181 21.7402 19.0653 21.0372C19.7073 20.6438 20.247 20.104 20.6404 19.4621C21.1022 18.7086 21.2607 17.7763 21.3151 16.3403H15.2714C13.4389 16.3403 11.9534 14.8548 11.9534 13.0223C11.9534 11.1898 13.4389 9.70433 15.2714 9.70433H21.2268C21.1311 8.91458 20.9571 8.31375 20.6404 7.797C20.247 7.15504 19.7073 6.61529 19.0653 6.2219C18.8826 6.10991 18.6893 6.01576 18.4809 5.9366C17.3809 5.51885 15.8588 5.51885 13.2328 5.51885H10.3702C7.24671 5.51885 5.68495 5.51885 4.53768 6.2219C3.89571 6.61529 3.35597 7.15504 2.96257 7.797Z" fill="#1A1D21"/>
<path fill-rule="evenodd" clip-rule="evenodd" d="M21.3224 11.1356H15.2714C14.2294 11.1356 13.3847 11.9803 13.3847 13.0223C13.3847 14.0643 14.2294 14.909 15.2714 14.909H21.3413C21.3435 14.5138 21.3435 14.0886 21.3435 13.6295C21.3435 12.6589 21.3435 11.8391 21.3224 11.1356ZM15.2714 12.3067C14.8762 12.3067 14.5558 12.6271 14.5558 13.0223C14.5558 13.4176 14.8762 13.738 15.2714 13.738H17.8738C18.269 13.738 18.5894 13.4176 18.5894 13.0223C18.5894 12.6271 18.269 12.3067 17.8738 12.3067H15.2714Z" fill="currentColor"/>
</svg>
