<svg width="24" height="24" viewBox="0 0 24 24" fill="none" xmlns="http://www.w3.org/2000/svg">
    <mask id="mask0_4446_22718" style="mask-type:luminance" maskUnits="userSpaceOnUse" x="0" y="0" width="24" height="24">
        <path fill-rule="evenodd" clip-rule="evenodd" d="M5.456 0.0117741C4.92077 0.0307999 4.23095 0.0726738 3.91741 0.135956C3.4388 0.232607 2.98682 0.379143 2.61095 0.570717C2.16933 0.795782 1.77352 1.08294 1.43175 1.42417C1.0892 1.76606 0.800897 2.16224 0.574928 2.60452C0.383888 2.97838 0.237434 3.42761 0.140373 3.9035C0.0758161 4.2202 0.0331207 4.91516 0.0137661 5.45385C0.00591735 5.67402 0.00189027 5.95896 0.00189027 6.09037L0 17.9077C0 18.0385 0.00398599 18.3236 0.0117936 18.544C0.0308195 19.0792 0.072693 19.769 0.136017 20.0825C0.232626 20.5611 0.379204 21.0131 0.570737 21.389C0.795843 21.8307 1.08296 22.2264 1.42419 22.5682C1.76608 22.9107 2.1623 23.199 2.60454 23.425C2.97844 23.616 3.42767 23.7625 3.90352 23.8596C4.22022 23.9241 4.91522 23.9668 5.45391 23.9861C5.674 23.994 5.95898 23.998 6.09039 23.998L17.9077 23.9999C18.0386 23.9999 18.3236 23.996 18.544 23.9881C19.0792 23.9691 19.7691 23.9272 20.0825 23.8639C20.5612 23.7673 21.0132 23.6207 21.389 23.4292C21.8306 23.2041 22.2264 22.9169 22.5682 22.5757C22.9107 22.2338 23.199 21.8377 23.425 21.3954C23.616 21.0215 23.7626 20.5723 23.8596 20.0964C23.9242 19.7797 23.9668 19.0847 23.9862 18.546C23.9941 18.3259 23.9981 18.041 23.9981 17.9095L24 6.09226C24 5.96134 23.996 5.67632 23.9882 5.45594C23.9691 4.92075 23.9273 4.23093 23.8639 3.91739C23.7673 3.43878 23.6208 2.9868 23.4292 2.61093C23.2042 2.16927 22.917 1.7735 22.5758 1.43169C22.2339 1.08923 21.8377 0.800879 21.3954 0.574909C21.0215 0.383869 20.5723 0.237373 20.0964 0.140354C19.7797 0.075798 19.0847 0.033102 18.5461 0.0137882C18.3259 0.00585747 18.041 0.00187111 17.9096 0.00187111L6.09228 -1.90735e-05C5.96136 -1.90735e-05 5.67634 0.00392532 5.456 0.0117741Z" fill="white"/>
    </mask>
    <g mask="url(#mask0_4446_22718)">
        <path d="M5.456 0.0117741C4.92077 0.0307999 4.23095 0.0726738 3.91741 0.135956C3.4388 0.232607 2.98682 0.379143 2.61095 0.570717C2.16933 0.795782 1.77352 1.08294 1.43175 1.42417C1.0892 1.76606 0.800897 2.16224 0.574928 2.60452C0.383888 2.97838 0.237434 3.42761 0.140373 3.9035C0.0758161 4.2202 0.0331207 4.91516 0.0137661 5.45385C0.00591735 5.67402 0.00189027 5.95896 0.00189027 6.09037L0 17.9077C0 18.0385 0.00398599 18.3236 0.0117936 18.544C0.0308195 19.0792 0.072693 19.769 0.136017 20.0825C0.232626 20.5611 0.379204 21.0131 0.570737 21.389C0.795843 21.8307 1.08296 22.2264 1.42419 22.5682C1.76608 22.9107 2.1623 23.199 2.60454 23.425C2.97844 23.616 3.42767 23.7625 3.90352 23.8596C4.22022 23.9241 4.91522 23.9668 5.45391 23.9861C5.674 23.994 5.95898 23.998 6.09039 23.998L17.9077 23.9999C18.0386 23.9999 18.3236 23.996 18.544 23.9881C19.0792 23.9691 19.7691 23.9272 20.0825 23.8639C20.5612 23.7673 21.0132 23.6207 21.389 23.4292C21.8306 23.2041 22.2264 22.9169 22.5682 22.5757C22.9107 22.2338 23.199 21.8377 23.425 21.3954C23.616 21.0215 23.7626 20.5723 23.8596 20.0964C23.9242 19.7797 23.9668 19.0847 23.9862 18.546C23.9941 18.3259 23.9981 18.041 23.9981 17.9095L24 6.09226C24 5.96134 23.996 5.67632 23.9882 5.45594C23.9691 4.92075 23.9273 4.23093 23.8639 3.91739C23.7673 3.43878 23.6208 2.9868 23.4292 2.61093C23.2042 2.16927 22.917 1.7735 22.5758 1.43169C22.2339 1.08923 21.8377 0.800879 21.3954 0.574909C21.0215 0.383869 20.5723 0.237373 20.0964 0.140354C19.7797 0.075798 19.0847 0.033102 18.5461 0.0137882C18.3259 0.00585747 18.041 0.00187111 17.9096 0.00187111L6.09228 -1.90735e-05C5.96136 -1.90735e-05 5.67634 0.00392532 5.456 0.0117741Z" fill="url(#paint0_linear_4446_22718)"/>
        <path fill-rule="evenodd" clip-rule="evenodd" d="M16.1603 13.5796C15.9465 13.4726 14.8956 12.9556 14.6996 12.8843C14.5037 12.813 14.3612 12.7774 14.2187 12.9913C14.0762 13.2052 13.6665 13.6866 13.5418 13.8292C13.4171 13.9718 13.2925 13.9897 13.0787 13.8827C12.8649 13.7757 12.1762 13.55 11.3597 12.822C10.7243 12.2554 10.2953 11.5556 10.1705 11.3416C10.0459 11.1277 10.1573 11.0121 10.2643 10.9055C10.3604 10.8098 10.478 10.656 10.5849 10.5312C10.6918 10.4064 10.7274 10.3172 10.7987 10.1746C10.8699 10.032 10.8343 9.90722 10.7808 9.80025C10.7274 9.69329 10.2999 8.64148 10.1218 8.21362C9.9483 7.79694 9.77206 7.85332 9.64085 7.84679C9.5163 7.84058 9.37366 7.83927 9.23115 7.83927C9.08864 7.83927 8.85709 7.89277 8.66112 8.10666C8.46519 8.32059 7.91298 8.83761 7.91298 9.88938C7.91298 10.9412 8.67895 11.9573 8.78583 12.1C8.89271 12.2426 10.2932 14.401 12.4375 15.3266C12.9475 15.5468 13.3456 15.6783 13.6561 15.7768C14.1682 15.9394 14.6341 15.9165 15.0025 15.8615C15.4131 15.8001 16.2672 15.3445 16.4453 14.8453C16.6234 14.3462 16.6234 13.9183 16.57 13.8292C16.5166 13.7401 16.3741 13.6866 16.1603 13.5796ZM12.2601 18.9033H12.2572C10.9813 18.9028 9.72984 18.5602 8.63813 17.9125L8.37847 17.7584L5.68727 18.4642L6.40561 15.8411L6.23651 15.5722C5.52474 14.4404 5.14883 13.1323 5.14936 11.7892C5.15092 7.86997 8.34075 4.68138 12.2629 4.68138C14.1621 4.68212 15.9475 5.42249 17.29 6.76605C18.6325 8.10966 19.3714 9.89563 19.3706 11.795C19.369 15.7145 16.1793 18.9033 12.2601 18.9033ZM18.3116 5.7451C16.6964 4.12856 14.5484 3.23787 12.2599 3.23697C7.54447 3.23697 3.70669 7.07326 3.7048 11.7887C3.70419 13.296 4.0981 14.7674 4.84673 16.0643L3.63306 20.496L8.16821 19.3068C9.41776 19.9881 10.8246 20.3472 12.2564 20.3478H12.2599H12.26C16.9749 20.3478 20.813 16.511 20.815 11.7955C20.8158 9.51035 19.9268 7.36161 18.3116 5.7451Z" fill="white"/>
    </g>
    <defs>
        <linearGradient id="paint0_linear_4446_22718" x1="-2.57492e-05" y1="23.9999" x2="-2.57492e-05" y2="-4.66486e-05" gradientUnits="userSpaceOnUse">
            <stop stop-color="#25CF43"/>
            <stop offset="1" stop-color="#61FD7D"/>
        </linearGradient>
    </defs>
</svg>