<svg width="24" height="24" viewBox="0 0 24 24" fill="none" xmlns="http://www.w3.org/2000/svg">
<path d="M11.403 5.21235L11.9975 5.65456L12.5937 5.21453C13.6088 4.46525 14.8583 4.10346 16.1167 4.19445C17.3732 4.2853 18.5559 4.82156 19.4522 5.70666C19.9382 6.19992 20.3222 6.78414 20.5823 7.42592C20.8431 8.06948 20.9741 8.75824 20.9678 9.4526C20.9616 10.147 20.8182 10.8333 20.5458 11.472C20.3558 11.9177 20.1057 12.3341 19.8032 12.7099C20.4281 11.7658 20.7346 10.6414 20.6701 9.50293C20.5968 8.21045 20.0504 6.99015 19.135 6.07476C18.2196 5.15938 16.9993 4.61294 15.7068 4.53967C14.4143 4.46639 13.1401 4.87141 12.1271 5.67748L12.0812 5.71406L12.0398 5.75573L12.0324 5.74836C11.0461 4.77457 9.71582 4.22854 8.32979 4.22854C6.94376 4.22854 5.61352 4.77457 4.62721 5.74836L4.62103 5.75446L4.61496 5.76067C3.64791 6.74919 3.1064 8.07709 3.1064 9.45997C3.1064 10.8428 3.64791 12.1707 4.61496 13.1593L4.61492 13.1593L4.62268 13.1671L10.6198 19.1642C10.6203 19.1647 10.6209 19.1653 10.6214 19.1658C10.807 19.3525 11.0276 19.5007 11.2706 19.602C11.5144 19.7035 11.7758 19.7558 12.0398 19.7558C12.3038 19.7558 12.5652 19.7035 12.8089 19.602C12.9547 19.5412 13.0923 19.4636 13.2192 19.371C12.8646 19.6584 12.4204 19.8173 11.9598 19.8173C11.4305 19.8173 10.9229 19.6075 10.548 19.234C10.5475 19.2335 10.547 19.2329 10.5465 19.2324L4.54982 13.1858L4.54984 13.1858L4.54441 13.1804C3.59869 12.2413 3.04392 10.9787 2.99182 9.6469C2.93973 8.31511 3.39418 7.01306 4.26366 6.00292C5.13314 4.99279 6.35307 4.34962 7.67777 4.20293C9.00247 4.05624 10.3336 4.41693 11.403 5.21235Z" fill="black" stroke="white" stroke-width="2"/>
</svg>
